<svg width="406" height="306" viewBox="0 0 406 306" fill="none" xmlns="http://www.w3.org/2000/svg">
<path d="M346.592 68.7144L278.77 28.2261V84.995L346.592 123.352V68.7144Z" fill="#3494AA"/>
<path d="M283.987 37.3103V84.4977" stroke="#29ABE2" stroke-width="1.015" stroke-miterlimit="10"/>
<path d="M295.71 44.6387V91.826" stroke="#29ABE2" stroke-width="1.015" stroke-miterlimit="10"/>
<path d="M314.031 55.5295V102.717" stroke="#29ABE2" stroke-width="1.015" stroke-miterlimit="10"/>
<path d="M327.266 62.7158V109.913" stroke="#29ABE2" stroke-width="1.015" stroke-miterlimit="10"/>
<path d="M339.122 70.3892V117.577" stroke="#29ABE2" stroke-width="1.015" stroke-miterlimit="10"/>
<path d="M285.042 77.4536C285.042 77.4536 288.087 62.797 294.056 65.4462C300.44 68.2577 294.624 80.3464 301.546 83.9395C308.245 87.4209 306.307 61.9343 314.051 64.9387C320.963 67.6183 318.385 77.9205 318.395 83.2087C318.395 85.6447 317.573 94.6477 322.303 96.0281C330.586 98.4438 327.155 73.6271 337.822 79.2603" stroke="white" stroke-width="1.015" stroke-miterlimit="10"/>
<path d="M285.042 79.1282C285.76 79.1282 286.342 78.4238 286.342 77.5549C286.342 76.6861 285.76 75.9817 285.042 75.9817C284.325 75.9817 283.743 76.6861 283.743 77.5549C283.743 78.4238 284.325 79.1282 285.042 79.1282Z" fill="white"/>
<path d="M337.822 81.1685C338.54 81.1685 339.122 80.4641 339.122 79.5952C339.122 78.7263 338.54 78.022 337.822 78.022C337.105 78.022 336.523 78.7263 336.523 79.5952C336.523 80.4641 337.105 81.1685 337.822 81.1685Z" fill="white"/>
<path d="M308.225 71.9624C308.943 71.9624 309.524 71.2581 309.524 70.3892C309.524 69.5203 308.943 68.8159 308.225 68.8159C307.508 68.8159 306.926 69.5203 306.926 70.3892C306.926 71.2581 307.508 71.9624 308.225 71.9624Z" fill="white"/>
<path d="M318.436 82.7417C319.153 82.7417 319.735 82.0373 319.735 81.1685C319.735 80.2996 319.153 79.5952 318.436 79.5952C317.718 79.5952 317.137 80.2996 317.137 81.1685C317.137 82.0373 317.718 82.7417 318.436 82.7417Z" fill="white"/>
<path d="M21.65 169.362L180.213 79.1182C184.084 76.9161 188.465 75.7692 192.918 75.7923C197.372 75.8155 201.741 77.0079 205.588 79.2501L369.003 174.406C371.147 175.653 372.926 177.441 374.16 179.593C375.393 181.744 376.039 184.183 376.032 186.663C376.025 189.143 375.365 191.577 374.119 193.722C372.872 195.866 371.084 197.644 368.932 198.878L216.428 286.442C211.262 289.412 205.407 290.975 199.447 290.975C193.488 290.975 187.633 289.412 182.467 286.442L21.5993 193.894C19.4397 192.654 17.6463 190.865 16.4009 188.708C15.1554 186.551 14.5022 184.104 14.5074 181.613C14.5125 179.123 15.1759 176.678 16.4302 174.527C17.6846 172.375 19.4853 170.593 21.65 169.362Z" fill="#2B9399"/>
<path opacity="0.32" d="M200.341 216.387C200.432 216.387 257.506 186.739 257.577 186.789L163.973 129.736L110.96 110.786L90.132 147.925C102.576 155.314 187.065 210.479 200.341 216.387Z" fill="url(#paint0_linear)"/>
<path d="M250.593 149.752C250.593 149.752 249.822 186.109 248.716 187.145C247.609 188.18 242.737 153.65 242.737 153.65" fill="#844040"/>
<path d="M201.031 165.18C201.894 167.646 198.93 215.707 200.341 216.366C201.752 217.026 209.313 165.718 209.313 165.718" fill="#844040"/>
<path d="M269.046 134.466V143.053H266.153L265.159 138.323" fill="#A85C5C"/>
<path d="M99.8962 107.274V98.8396L103.449 103.509L99.8962 107.274Z" fill="#A85C5C"/>
<path d="M103.337 100.819L148.342 74.845C149.938 73.9239 151.748 73.439 153.59 73.439C155.432 73.439 157.242 73.9239 158.837 74.845L265.565 136.456C266.638 137.069 267.531 137.955 268.152 139.025C268.772 140.094 269.099 141.309 269.099 142.546C269.099 143.782 268.772 144.997 268.152 146.066C267.531 147.136 266.638 148.022 265.565 148.636L220.478 174.66C218.952 175.541 217.221 176.005 215.459 176.005C213.697 176.005 211.966 175.541 210.44 174.66L103.337 112.796C102.285 112.19 101.412 111.317 100.804 110.266C100.197 109.214 99.877 108.022 99.877 106.807C99.877 105.593 100.197 104.401 100.804 103.349C101.412 102.298 102.285 101.425 103.337 100.819Z" fill="#A85C5C"/>
<path d="M102.83 93.1149L147.835 67.1309C149.43 66.2098 151.24 65.7249 153.082 65.7249C154.925 65.7249 156.734 66.2098 158.33 67.1309L265.067 128.752C266.141 129.365 267.033 130.251 267.654 131.321C268.275 132.39 268.602 133.605 268.602 134.842C268.602 136.078 268.275 137.293 267.654 138.362C267.033 139.432 266.141 140.318 265.067 140.932L219.981 166.956C218.455 167.837 216.724 168.301 214.962 168.301C213.2 168.301 211.469 167.837 209.943 166.956L102.83 105.133C101.768 104.529 100.885 103.655 100.271 102.6C99.6574 101.544 99.334 100.345 99.334 99.1237C99.334 97.9026 99.6574 96.7034 100.271 95.6479C100.885 94.5924 101.768 93.7185 102.83 93.1149Z" fill="#C96F6F"/>
<path opacity="0.32" d="M75.7799 218.041C80.7737 219.574 85.7776 221.086 90.9034 222.101C94.0348 222.658 97.1974 223.02 100.373 223.187L105.692 219.584L142.506 192.179L116.471 174.143L47.705 206.064C55.957 212.104 66.1273 215.088 75.7799 218.041Z" fill="url(#paint1_linear)"/>
<path d="M111.203 163.15C107.499 160.562 103.083 159.141 98.4245 160.176C93.4003 161.283 89.0561 164.439 83.9405 165.251C83.1285 165.373 79.8805 165.17 79.4034 165.637C65.1934 179.106 104.961 177.665 104.961 177.665C108.828 174.498 112.462 171.392 116.299 168.195C115.142 165.525 113.193 164.51 111.203 163.15Z" fill="#F8997C"/>
<path d="M92.4767 182.648L91.0659 223.299C91.0151 224.842 93.4105 224.842 93.4613 223.299L94.8721 182.648C94.9229 181.115 92.5275 181.115 92.4767 182.648Z" fill="#844040"/>
<path d="M122.318 204.4C115.071 197.308 108.131 189.905 101.5 182.191C100.485 181.014 98.8103 182.719 99.805 183.886C106.402 191.594 113.328 198.996 120.582 206.095C121.719 207.181 123.424 205.486 122.318 204.4Z" fill="#844040"/>
<path d="M84.1638 178.893C78.5339 189.516 73.2356 200.299 68.2689 211.241C67.6396 212.631 69.7001 213.849 70.2989 212.448C75.2927 201.507 80.6181 190.724 86.275 180.1C86.9551 178.74 84.8844 177.522 84.1638 178.893Z" fill="#844040"/>
<path d="M115.639 166.916C113.24 170.198 109.865 172.639 105.996 173.889C100.556 175.523 92.6492 174.751 89.7565 169.149C84.5495 158.999 89.4418 146.189 83.9405 136.283C83.2997 135.024 82.4008 133.914 81.3026 133.026C80.2043 132.138 78.9313 131.49 77.5663 131.127C74.0037 130.355 71.5575 132.994 70.2685 136.09C67.9543 141.652 68.0355 148.575 68.1471 154.502C68.1396 159.288 68.4788 164.067 69.1621 168.804C69.1621 168.804 72.4913 188.677 98.4347 183.338C102.921 182.538 107.235 180.965 111.183 178.69C113.196 177.546 114.963 176.014 116.38 174.183C118.055 171.909 116.999 169.24 115.639 166.916Z" fill="#3494AA"/>
<path d="M133.594 185.988C133.594 185.988 133.381 189.621 134.508 190.626C135.634 191.631 141.684 188.819 143.298 189.824C144.912 190.829 137.208 198.086 134.508 198.492C131.808 198.898 129.291 195.041 129.291 195.041V200.512L126.246 202.258L123.992 200.918L124.662 185.988H133.594Z" fill="#8787D1"/>
<path d="M123.221 188.657C126.449 191.438 129.92 191.347 133.919 189.672C136.802 184.597 140.192 153.772 132.985 148.839C125.251 143.55 113.172 144.494 111.153 145.063L81.5452 149.915C79.2716 153.741 85.2601 173.99 98.4551 174.549C111.65 175.107 119.993 170.164 119.993 170.164L123.221 188.657Z" fill="#124577"/>
<path d="M111.711 104.046C110.3 104.67 109.134 105.74 108.392 107.091V107.193C106.311 108.898 105.986 112.014 103.774 113.547C103.774 113.608 101.693 115.069 101.673 115.13C101.652 115.191 101.876 112.278 101.865 112.298C101.145 114.268 100.444 116.237 99.8354 118.236C99.9331 118.298 100.039 118.346 100.15 118.378L99.9166 118.49L99.7136 118.612C99.6866 118.712 99.6368 118.804 99.5682 118.882C99.4995 118.959 99.4138 119.02 99.3177 119.058C99.2339 119.351 99.2367 119.661 99.3256 119.952C99.4146 120.243 99.586 120.502 99.8191 120.697C100.052 120.893 100.337 121.016 100.639 121.053C100.941 121.09 101.247 121.039 101.52 120.906L108.219 117.637C109.11 117.448 109.985 117.193 110.838 116.876C110.838 116.176 110.95 115.475 111.011 114.785C111.537 113.97 111.853 113.037 111.931 112.07C112.009 111.103 111.846 110.132 111.457 109.243C111.492 109.197 111.533 109.156 111.579 109.121V109.05C112.133 108.663 112.605 108.17 112.965 107.598C113.326 107.026 113.569 106.388 113.68 105.721C113.741 104.767 112.777 103.549 111.711 104.046Z" fill="#F7931E"/>
<path d="M103.195 110.37C103.195 110.37 110.828 115.11 111.62 119.059C111.62 119.059 106.26 130.701 106.616 131.167C112.706 139.064 94.5067 126.164 94.5067 126.164C94.5067 126.164 98.2013 115.12 103.195 110.37Z" fill="#3494AA"/>
<path d="M120.572 113.273C121.201 118.541 114.482 125.889 111.64 127.3C107.752 129.239 106.24 113.09 89.1577 113.151C88.0514 113.151 82.5095 110.796 79.5964 118.074C76.6834 125.351 79.5964 146.23 81.5351 149.864C83.2504 153.071 94.6387 160.785 110.899 152.533L111.143 145.012C111.143 145.012 120.785 144.819 125.86 137.775C130.6 131.198 133.412 121.302 132.965 116.46C129.098 114.765 124.348 112.035 120.572 113.273Z" fill="#3494AA"/>
<path d="M103.195 110.37C103.195 110.37 110.828 115.11 111.62 119.059C111.62 119.059 106.26 130.701 106.616 131.167C112.706 139.064 94.5067 126.164 94.5067 126.164C94.5067 126.164 98.2013 115.12 103.195 110.37Z" fill="#8787D1"/>
<path d="M113.467 90.3745L133.736 94.8405L130.316 123.281L110.838 116.957" fill="#124577"/>
<path d="M134.386 106.848C134.333 106.622 134.233 106.41 134.091 106.227C133.95 106.043 133.771 105.892 133.566 105.783C133.361 105.674 133.135 105.611 132.904 105.597C132.672 105.582 132.441 105.618 132.224 105.701C132.129 105.299 131.9 104.941 131.574 104.686C131.311 104.487 130.993 104.373 130.663 104.359C130.334 104.344 130.007 104.43 129.727 104.605C129.552 104.707 129.394 104.838 129.26 104.99L129.159 104.879C128.936 104.617 128.64 104.428 128.309 104.338C127.977 104.247 127.626 104.259 127.301 104.371C127.109 104.461 126.936 104.589 126.794 104.747C126.605 103.817 126.364 102.899 126.073 101.996C125.799 101.093 125.352 99.4282 124.236 99.2252C123.505 99.0932 123.221 99.6312 123.028 100.24C122.849 100.672 122.823 101.152 122.957 101.6C123.007 102.211 123.095 102.818 123.221 103.417C123.322 104.27 123.414 105.132 123.495 105.995C123.42 105.994 123.345 106.008 123.276 106.036C123.206 106.064 123.143 106.105 123.089 106.158C122.556 106.55 122.162 107.102 121.965 107.734C121.768 108.366 121.778 109.044 121.993 109.67C122.488 111.464 123.168 113.202 124.023 114.856C124.057 114.93 124.106 114.995 124.167 115.049C124.228 115.102 124.299 115.143 124.376 115.168C124.454 115.192 124.535 115.201 124.616 115.193C124.696 115.185 124.774 115.16 124.845 115.12L124.926 115.435C124.96 115.579 125.043 115.707 125.162 115.796C125.281 115.885 125.427 115.929 125.575 115.921C125.723 115.912 125.864 115.852 125.972 115.75C126.079 115.648 126.148 115.511 126.165 115.364V115.242C126.227 115.293 126.3 115.331 126.378 115.354L126.428 116.044C126.428 116.683 127.443 116.683 127.636 116.155L127.697 116.663C127.778 117.363 128.895 117.292 128.935 116.592V116.023C129.04 116.019 129.142 115.993 129.235 115.945C129.327 115.898 129.409 115.831 129.473 115.749C129.584 115.888 129.744 115.979 129.92 116.003C130.003 116.071 130.102 116.114 130.208 116.128C130.314 116.142 130.421 116.127 130.519 116.084V116.237C130.573 116.403 130.687 116.543 130.839 116.63C130.991 116.716 131.17 116.742 131.341 116.703C131.341 116.775 131.341 116.846 131.341 116.917C131.341 117.718 132.6 117.82 132.589 117.018C132.589 115.421 132.545 113.821 132.457 112.217C132.527 112.182 132.589 112.134 132.64 112.075C133.899 110.806 134.995 108.655 134.386 106.848ZM127.687 105.64C127.737 105.606 127.794 105.584 127.854 105.576C127.914 105.567 127.974 105.572 128.032 105.589C127.999 105.636 127.972 105.688 127.951 105.741H127.575C127.607 105.702 127.645 105.668 127.687 105.64Z" fill="#F7931E"/>
<path d="M98.2013 93.927C98.2013 94.0996 99.2163 104.777 96.8716 107.122C94.527 109.467 88.1325 108.502 86.5592 105.934C84.986 103.367 83.0473 99.9764 84.7322 95.9976C86.4171 92.0188 97.9171 91.2982 98.2013 93.927Z" fill="#F7931E"/>
<path d="M94.7807 100.87C94.869 100.684 94.8988 100.476 94.8662 100.273C94.8335 100.07 94.74 99.8814 94.598 99.7327C93.8676 98.8255 92.8516 98.1923 91.7154 97.9362C91.2007 97.8145 90.6592 97.8857 90.1935 98.1364C89.7278 98.387 89.37 98.7997 89.1881 99.2963C88.4573 101.722 92.3853 102.433 93.989 102.636C94.2709 102.633 94.5404 102.52 94.7397 102.321C94.939 102.121 95.0521 101.852 95.0548 101.57C95.0589 101.441 95.0368 101.312 94.9897 101.192C94.9426 101.071 94.8715 100.962 94.7807 100.87Z" fill="#FFE8E6"/>
<path d="M120.572 113.273C121.201 118.541 114.482 125.889 111.64 127.3C107.752 129.239 106.24 113.09 89.1577 113.151C88.0514 113.151 82.5095 110.796 79.5964 118.074C76.6834 125.351 79.5964 146.23 81.5351 149.864C83.2504 153.071 94.6387 160.785 110.899 152.533L111.143 145.012C111.143 145.012 120.785 144.819 125.86 137.775C130.6 131.198 133.412 121.302 132.965 116.46C129.098 114.765 124.348 112.035 120.572 113.273Z" fill="#8787D1"/>
<path d="M119.232 143.175C114.801 144.765 109.965 144.823 105.497 143.339C101.03 141.856 97.1886 138.918 94.588 134.994C94.2429 134.476 93.4004 134.994 93.7455 135.481C96.4546 139.589 100.462 142.671 105.127 144.235C109.793 145.799 114.848 145.754 119.486 144.109C120.075 143.865 119.821 142.962 119.232 143.175Z" fill="white"/>
<path d="M109.62 125.504C108.75 123.473 107.46 121.65 105.834 120.155C103.977 118.46 101.673 117.374 99.744 115.79C99.3583 115.476 98.7899 116.024 99.1858 116.348C101.023 117.851 103.185 118.886 104.981 120.408C106.7 121.905 108.057 123.772 108.95 125.869C109.153 126.366 109.833 125.96 109.62 125.504Z" fill="white"/>
<path d="M98.455 95.4292L95.0345 97.175C95.0345 97.175 97.6633 107.183 98.455 109.812C99.2467 112.441 96.0901 116.125 85.8183 116.389C75.5465 116.653 76.0743 101.164 78.4494 95.3277C80.8245 89.4914 87.9295 86.9032 93.6744 88.4866C95.228 88.7752 96.6037 89.6681 97.4999 90.9696C98.3961 92.271 98.7396 93.8748 98.455 95.4292Z" fill="#B24D16"/>
<path d="M116.786 169.24C116.683 168.982 116.516 168.755 116.301 168.58C116.085 168.405 115.829 168.287 115.556 168.239C115.283 168.19 115.002 168.212 114.739 168.302C114.477 168.392 114.241 168.547 114.056 168.753C111.869 171.143 109.088 172.911 105.996 173.879C100.556 175.513 92.6492 174.741 89.7565 169.139C84.5698 158.989 89.4012 146.281 84.0014 136.374C83.0713 134.59 81.6663 133.097 79.9414 132.061C75.0694 129.249 71.8214 132.324 70.2685 136.121C67.9543 141.683 68.0355 148.605 68.1471 154.533C68.1396 159.318 68.4788 164.098 69.1621 168.834C69.1621 168.834 72.4913 188.708 98.4347 183.369C102.921 182.569 107.235 180.996 111.183 178.72C113.196 177.577 114.963 176.045 116.38 174.214C116.87 173.49 117.165 172.651 117.236 171.78C117.308 170.909 117.152 170.034 116.786 169.24Z" fill="#3494AA"/>
<path opacity="0.32" d="M320.253 206.095C323.095 206.968 325.947 207.82 328.87 208.409C330.656 208.726 332.459 208.933 334.27 209.028L337.315 206.998L358.295 191.367L342.238 186.028L304.256 199.223C308.956 202.735 314.762 204.41 320.253 206.095Z" fill="url(#paint2_linear)"/>
<path d="M349.911 174.386C346.125 174.061 342.136 172.914 339.335 170.326V181.552C339.335 183.082 339.636 184.597 340.222 186.011C340.807 187.425 341.666 188.709 342.748 189.791C343.83 190.873 345.114 191.732 346.528 192.317C347.942 192.903 349.457 193.204 350.987 193.204C354.077 193.204 357.041 191.977 359.226 189.791C361.412 187.606 362.639 184.642 362.639 181.552V170.133C358.671 171.757 354.154 174.752 349.911 174.386Z" fill="#3494AA"/>
<path d="M350.987 176.426C357.422 176.426 362.639 173.659 362.639 170.245C362.639 166.831 357.422 164.063 350.987 164.063C344.552 164.063 339.335 166.831 339.335 170.245C339.335 173.659 344.552 176.426 350.987 176.426Z" fill="#5ED18D"/>
<path d="M350.987 171.27C350.987 171.27 343.06 170.103 340.969 157.283C340.969 157.314 347.729 161.039 350.987 171.27Z" fill="#5ED18D"/>
<path d="M352.205 169.666C352.205 169.666 343.07 153.355 352.205 142.393C354.983 151.272 354.983 160.787 352.205 169.666Z" fill="#5ED18D"/>
<path d="M350.987 159.415C350.987 159.415 343.06 158.248 340.969 145.428C340.969 145.428 347.729 149.153 350.987 159.415Z" fill="#5ED18D"/>
<path d="M351.951 164.632C351.951 164.632 349.921 156.867 360.985 149.985C360.985 149.955 360.152 157.669 351.951 164.632Z" fill="#5ED18D"/>
<path d="M350.987 176.426C357.422 176.426 362.639 173.659 362.639 170.245C362.639 166.831 357.422 164.063 350.987 164.063C344.552 164.063 339.335 166.831 339.335 170.245C339.335 173.659 344.552 176.426 350.987 176.426Z" fill="#146666"/>
<path d="M350.987 171.27C350.987 171.27 343.06 170.103 340.969 157.283C340.969 157.314 347.729 161.039 350.987 171.27Z" fill="#5ED18D"/>
<path d="M352.205 169.666C352.205 169.666 343.07 153.355 352.205 142.393C354.983 151.272 354.983 160.787 352.205 169.666Z" fill="#5ED18D"/>
<path d="M350.987 159.415C350.987 159.415 343.06 158.248 340.969 145.428C340.969 145.428 347.729 149.153 350.987 159.415Z" fill="#5ED18D"/>
<path d="M351.951 164.632C351.951 164.632 349.921 156.867 360.985 149.985C360.985 149.955 360.152 157.669 351.951 164.632Z" fill="#5ED18D"/>
<path d="M244.788 136.658V137.613L244.31 138.201" fill="#ADCEE1"/>
<path d="M225.594 125.027L244.25 136.587C244.432 136.687 244.584 136.834 244.689 137.012C244.795 137.191 244.851 137.395 244.851 137.602C244.851 137.81 244.795 138.014 244.689 138.192C244.584 138.371 244.432 138.518 244.25 138.617L215.941 154.634C215.548 154.861 215.101 154.981 214.647 154.981C214.193 154.981 213.746 154.861 213.353 154.634L194.778 143.723C193.429 142.616 193.53 140.526 194.778 140.444L222.924 125.057C223.326 124.814 223.786 124.683 224.255 124.678C224.724 124.672 225.187 124.793 225.594 125.027Z" fill="#88D3D8"/>
<path d="M225.594 124.225L244.25 135.745C244.432 135.845 244.584 135.991 244.689 136.17C244.795 136.349 244.851 136.552 244.851 136.76C244.851 136.967 244.795 137.171 244.689 137.35C244.584 137.528 244.432 137.675 244.25 137.775L215.941 153.792C215.548 154.019 215.101 154.138 214.647 154.138C214.193 154.138 213.746 154.019 213.353 153.792L194.738 142.85C194.521 142.723 194.341 142.541 194.216 142.323C194.091 142.105 194.026 141.858 194.026 141.607C194.026 141.355 194.091 141.108 194.216 140.89C194.341 140.672 194.521 140.49 194.738 140.363L222.884 124.184C223.297 123.944 223.767 123.821 224.245 123.828C224.722 123.835 225.188 123.972 225.594 124.225Z" fill="white"/>
<path d="M224.833 122.651C224.833 122.651 217.088 97.652 217.139 97.652C217.19 97.652 216.895 96.5457 215.515 97.1648L185.745 114.663C185.745 114.663 184.304 115.252 184.588 116.592C184.872 117.932 192.16 141.053 192.16 141.053C192.312 141.272 192.529 141.438 192.781 141.525C193.032 141.613 193.306 141.618 193.56 141.541C194.464 141.256 224.102 124.042 224.102 124.042C224.379 123.949 224.61 123.752 224.746 123.493C224.882 123.234 224.913 122.933 224.833 122.651Z" fill="#053855"/>
<path d="M216.642 99.4587L186.192 117.211L192.505 138.414L223.341 121.19L216.642 99.4587Z" fill="#3494AA"/>
<path d="M226.741 126.874L233.562 131.127C233.684 131.2 233.785 131.303 233.855 131.427C233.925 131.55 233.962 131.69 233.962 131.832C233.962 131.974 233.925 132.114 233.855 132.238C233.785 132.361 233.684 132.465 233.562 132.538L209.09 146.494C208.724 146.705 208.309 146.816 207.887 146.816C207.465 146.816 207.05 146.705 206.684 146.494C205.111 145.58 202.401 143.926 200.747 142.911C200.602 142.819 200.483 142.693 200.4 142.543C200.318 142.393 200.274 142.225 200.274 142.053C200.274 141.882 200.318 141.714 200.4 141.564C200.483 141.414 200.602 141.287 200.747 141.196L225.33 126.854C225.543 126.724 225.789 126.658 226.038 126.661C226.288 126.665 226.531 126.739 226.741 126.874Z" fill="#3494AA"/>
<path d="M226.345 138.404L217.789 143.215C217.658 143.29 217.549 143.398 217.473 143.528C217.398 143.658 217.358 143.806 217.358 143.956C217.358 144.107 217.398 144.255 217.473 144.385C217.549 144.515 217.658 144.623 217.789 144.697L222.864 147.641C223.036 147.741 223.232 147.793 223.432 147.793C223.632 147.793 223.828 147.741 224 147.641L232.75 142.647C232.859 142.585 232.951 142.495 233.015 142.387C233.078 142.278 233.112 142.154 233.112 142.028C233.112 141.902 233.078 141.778 233.015 141.669C232.951 141.561 232.859 141.471 232.75 141.409L227.522 138.364C227.341 138.262 227.136 138.213 226.928 138.22C226.72 138.227 226.519 138.291 226.345 138.404Z" fill="#3494AA"/>
<path opacity="0.1" d="M226.741 126.874L233.562 131.127C233.684 131.2 233.785 131.303 233.855 131.427C233.925 131.55 233.962 131.69 233.962 131.832C233.962 131.974 233.925 132.114 233.855 132.238C233.785 132.361 233.684 132.465 233.562 132.538L209.09 146.494C208.724 146.705 208.309 146.816 207.887 146.816C207.465 146.816 207.05 146.705 206.684 146.494C205.111 145.58 202.401 143.926 200.747 142.911C200.602 142.819 200.483 142.693 200.4 142.543C200.318 142.393 200.274 142.225 200.274 142.053C200.274 141.882 200.318 141.714 200.4 141.564C200.483 141.414 200.602 141.287 200.747 141.196L225.33 126.854C225.543 126.724 225.789 126.658 226.038 126.661C226.288 126.665 226.531 126.739 226.741 126.874Z" fill="#053855"/>
<path opacity="0.1" d="M226.345 138.404L217.789 143.215C217.658 143.29 217.549 143.398 217.473 143.528C217.398 143.658 217.358 143.806 217.358 143.956C217.358 144.107 217.398 144.255 217.473 144.385C217.549 144.515 217.658 144.623 217.789 144.697L222.864 147.641C223.036 147.741 223.232 147.793 223.432 147.793C223.632 147.793 223.828 147.741 224 147.641L232.75 142.647C232.859 142.585 232.951 142.495 233.015 142.387C233.078 142.278 233.112 142.154 233.112 142.028C233.112 141.902 233.078 141.778 233.015 141.669C232.951 141.561 232.859 141.471 232.75 141.409L227.522 138.364C227.341 138.262 227.136 138.213 226.928 138.22C226.72 138.227 226.519 138.291 226.345 138.404Z" fill="#053855"/>
<path opacity="0.41" d="M234.577 253.313C250.116 244.005 278.09 227.724 281.825 224.365L280.932 221.076L259.941 208.622L208.836 238.321C216.073 244.421 226.731 247.974 234.577 253.313Z" fill="url(#paint3_linear)"/>
<path d="M251.72 94.668L247.264 91.3287C247.257 91.1856 247.215 91.0463 247.143 90.9226C247.07 90.799 246.969 90.6945 246.848 90.6182C242.592 87.6544 238.342 84.6771 234.1 81.6862C233.966 81.5834 233.809 81.5155 233.643 81.4886C233.476 81.4617 233.306 81.4766 233.147 81.532C232.988 81.5874 232.845 81.6815 232.731 81.8059C232.618 81.9303 232.537 82.081 232.496 82.2444C232.049 83.0158 232.618 83.8177 233.338 84.4165C234.059 85.0154 234.952 85.7462 235.764 86.4465C235.659 86.5234 235.569 86.6199 235.5 86.7307C234.851 87.7457 233.765 89.187 233.755 90.4558C233.744 91.7245 234.77 92.3538 235.561 93.044V93.2267C235.399 94.7898 236.089 95.2567 237.327 95.9977C237.446 96.0783 237.581 96.1326 237.723 96.1571C237.865 96.1816 238.01 96.1757 238.149 96.1398C239.009 96.6992 239.915 97.1815 240.86 97.5811L244.615 99.4893C245.569 99.9765 246.259 98.8295 245.874 98.0581C246.625 98.119 246.939 97.2969 246.747 96.6574C246.843 96.5639 246.916 96.4492 246.96 96.3225V96.2717L248.259 97.2867C249.274 98.1089 250.553 96.4747 249.507 95.6526L248.584 94.9218L250.482 96.3428C250.704 96.507 250.982 96.5763 251.255 96.5353C251.528 96.4944 251.774 96.3466 251.938 96.1246C252.102 95.9025 252.172 95.6243 252.131 95.3511C252.09 95.078 251.942 94.8322 251.72 94.668Z" fill="#F04900"/>
<path d="M281.155 225.187L282.759 224.172V206.115L274.832 205.831C274.832 205.831 274.679 213.535 272.802 215.291C270.924 217.047 266.295 215.788 265.839 215.94C265.382 216.092 262.266 215.189 260.865 216.63C259.464 218.072 265.615 222.233 268.884 222.994C271.122 223.446 273.419 223.532 275.684 223.248C275.684 223.248 276.395 218.63 277.531 219.087C278.668 219.543 278.749 224.426 278.749 224.426L281.155 225.187Z" fill="#006BA4"/>
<path d="M287.164 129.594C288.281 135.793 288.939 142.066 289.133 148.361C289.265 155.466 286.758 212.245 286.758 212.245C286.758 212.245 282.048 217.767 270.579 214.438C268.914 213.961 268.386 159.029 268.386 159.029L272.304 133.816" fill="#FC9C54"/>
<path d="M281.896 100.92C281.267 100.92 260.165 100.372 245.904 87.5935C245.904 87.5935 239.073 94.2925 241.844 99.4183C241.844 99.4183 262.063 118.896 277.481 114.907" fill="#006BA4"/>
<path d="M265.179 94.8913C265.15 94.8474 265.111 94.8112 265.065 94.7862C265.019 94.7612 264.967 94.748 264.915 94.748C264.863 94.748 264.811 94.7612 264.765 94.7862C264.719 94.8112 264.68 94.8474 264.651 94.8913C262.619 97.9669 261.889 101.723 262.621 105.336C262.702 105.721 263.291 105.559 263.22 105.173C262.572 101.903 263.177 98.5079 264.915 95.6627C266.652 98.9081 267.545 102.538 267.513 106.219C267.513 106.301 267.546 106.38 267.604 106.438C267.662 106.496 267.741 106.528 267.823 106.528C267.905 106.528 267.984 106.496 268.042 106.438C268.1 106.38 268.133 106.301 268.133 106.219C268.159 102.249 267.14 98.3426 265.179 94.8913Z" fill="#42A200"/>
<path d="M259.485 239.123L261.089 238.108V220.051L253.161 219.767C253.161 219.767 253.009 227.47 251.131 229.226C249.254 230.982 244.625 229.724 244.168 229.876C243.712 230.028 240.596 229.125 239.195 230.566C237.794 232.008 243.945 236.169 247.213 236.93C249.452 237.382 251.748 237.468 254.014 237.184C254.014 237.184 254.724 232.566 255.861 233.022C256.998 233.479 257.079 238.361 257.079 238.361L259.485 239.123Z" fill="#006BA4"/>
<path d="M262.327 132.223C262.327 132.223 255.019 159.202 252.045 183.349C251.334 189.144 245.336 223.715 245.336 223.715C245.336 223.715 255.222 227.328 264.012 224.497C264.012 224.497 274.466 180.385 274.913 179.522C275.359 178.659 282.414 150.087 283.226 129.584" fill="#FC9C54"/>
<path d="M284.667 97.8958L280.495 96.3225C279.43 96.3936 269.939 99.4995 265.626 105.782C265.015 107.751 264.554 109.763 264.245 111.801C263.697 114.511 263.23 117.232 262.885 119.921C262.491 122.902 262.321 125.908 262.378 128.914C262.378 130.203 262.449 130.853 262.581 132.132C263.045 132.601 263.588 132.985 264.184 133.269C276.648 138.628 286.514 132.122 287.012 131.117C287.509 130.112 289.153 115.415 290.057 106.665C290.247 104.814 289.822 102.952 288.848 101.367C287.874 99.782 286.404 98.562 284.667 97.8958Z" fill="#006BA4"/>
<path d="M274.486 81.8891C274.486 81.8891 270.569 96.0991 275.776 98.0581C280.982 100.017 287.681 94.4345 288.351 91.5012C289.021 88.5678 282.302 77.616 274.486 81.8891Z" fill="#F04900"/>
<path d="M300.207 77.6464C299.526 76.2177 298.357 75.0799 296.91 74.4393C295.463 73.7988 293.835 73.6978 292.32 74.1548C289.448 75.0886 287.712 77.555 286.869 80.3057C284.281 78.0422 280.424 76.8953 275.532 78.3975C275.532 78.3975 270.731 80.4275 271.604 83.4725C272.477 86.5175 276.121 86.5175 279.176 87.1163C282.231 87.7152 279.754 90.3948 279.907 93.4093C280.059 96.4239 281.419 96.9212 282.688 97.1851C283.956 97.449 289.722 96.1701 290.534 89.4001C290.583 88.9858 290.603 88.5687 290.594 88.1516C291.387 88.2341 292.184 88.2578 292.98 88.2227C294.774 88.2807 296.544 87.7922 298.055 86.822C299.38 85.7476 300.31 84.2632 300.7 82.6022C301.09 80.9412 300.916 79.1979 300.207 77.6464Z" fill="#FC9C54"/>
<path d="M269.472 97.4695C269.87 96.9102 270.04 96.221 269.949 95.541C269.921 95.3375 269.831 95.1476 269.693 94.996C269.554 94.8445 269.373 94.7386 269.172 94.6924C268.972 94.6462 268.763 94.6618 268.572 94.7372C268.381 94.8126 268.217 94.9442 268.102 95.1147L267.655 95.7237C267.584 94.9421 267.503 94.1606 267.392 93.379C267.382 93.1098 267.266 92.8554 267.069 92.6717C266.872 92.488 266.61 92.3901 266.341 92.3995C266.072 92.409 265.817 92.5249 265.634 92.722C265.45 92.919 265.352 93.181 265.362 93.4502C265.362 93.6938 265.301 93.9474 265.28 94.191C265.196 94.4518 265.138 94.7205 265.108 94.9929C264.001 95.135 262.682 95.541 262.489 96.8097C262.489 96.8097 262.489 96.8706 262.489 96.8909C261.637 96.8909 260.804 97.2259 260.774 98.2409C260.759 98.4334 260.759 98.6269 260.774 98.8194C259.911 99.0732 259.282 99.5096 259.404 100.636C259.588 101.948 259.929 103.232 260.419 104.463C260.489 104.616 260.596 104.749 260.731 104.85C260.866 104.951 261.023 105.016 261.19 105.041C261.312 105.589 261.454 106.127 261.606 106.665C261.719 106.896 261.888 107.095 262.098 107.243C262.307 107.391 262.551 107.484 262.807 107.512C263.062 107.54 263.32 107.504 263.558 107.405C263.795 107.307 264.003 107.15 264.164 106.95C264.268 106.943 264.37 106.922 264.468 106.889C264.59 106.972 264.728 107.028 264.874 107.053C265.019 107.077 265.169 107.07 265.311 107.031C265.436 107.12 265.581 107.18 265.733 107.205C265.885 107.23 266.041 107.22 266.188 107.176C266.336 107.132 266.472 107.055 266.585 106.951C266.699 106.846 266.787 106.718 266.843 106.574C266.962 106.468 267.054 106.336 267.113 106.188C267.171 106.04 267.193 105.88 267.178 105.721C267.178 105.488 267.178 105.255 267.178 105.031C267.99 102.5 268.755 99.9799 269.472 97.4695Z" fill="#F04900"/>
<path d="M267.737 102.727C267.412 102.808 262.844 98.6162 259.383 100.058C259.383 100.058 246.188 122.306 258.5 128.193C264.59 131.117 269.33 122.103 269.33 122.103L265.829 115.181L267.737 102.727Z" fill="#006BA4"/>
<path d="M266.651 103.63C263.754 108.349 261.764 113.568 260.784 119.018C260.672 119.657 261.647 119.931 261.799 119.292C262.759 113.928 264.714 108.792 267.564 104.148C267.858 103.59 266.945 103.082 266.651 103.63Z" fill="#653200"/>
<path d="M269.097 122.966C268.082 124.945 266.783 127.026 264.753 128.041C263.555 128.602 262.217 128.793 260.91 128.591C259.603 128.388 258.386 127.801 257.414 126.904C253.09 123.179 253.74 116.754 254.603 111.75C254.714 111.111 253.74 110.837 253.588 111.476C252.573 117.099 252.055 124.407 257.363 128.173C258.384 128.927 259.577 129.415 260.833 129.592C262.09 129.769 263.37 129.63 264.56 129.188C267.097 128.173 268.711 125.757 269.929 123.413C270.274 122.895 269.401 122.388 269.097 122.966Z" fill="#653200"/>
<path d="M280.14 149.437C279.49 162.338 275.684 174.701 272.456 187.124C269.229 199.548 266.478 211.921 264.123 224.456L265.219 224.152C267.608 211.491 270.43 198.922 273.685 186.444C276.882 174.264 280.516 162.084 281.155 149.437C281.206 148.788 280.191 148.788 280.14 149.437Z" fill="#653200"/>
<path d="M154.869 93.8459L142.81 86.7409C142.81 86.7409 145.855 84.4064 147.571 85.2184C148.28 85.487 148.941 85.8674 149.53 86.3451C149.53 86.3451 150.768 83.7771 152.93 84.3151C153.506 84.4158 154.05 84.6526 154.516 85.0056C154.982 85.3587 155.357 85.8179 155.61 86.3451C155.61 86.3451 156.543 83.9294 158.655 85.2184C159.282 85.6146 159.813 86.1453 160.209 86.772C160.606 87.3987 160.859 88.1057 160.949 88.842L160.725 97.1751L154.869 93.8459Z" fill="white"/>
<path d="M170.175 95.2565L182.233 88.1515C182.233 88.1515 179.188 85.817 177.473 86.629C176.764 86.8977 176.102 87.278 175.514 87.7557C175.514 87.7557 174.275 85.1877 172.114 85.7257C171.538 85.8265 170.994 86.0632 170.528 86.4163C170.062 86.7693 169.687 87.2285 169.434 87.7557C169.434 87.7557 168.5 85.34 166.389 86.629C165.762 87.0253 165.231 87.5559 164.834 88.1826C164.437 88.8093 164.185 89.5164 164.095 90.2526L164.328 98.6162L170.175 95.2565Z" fill="white"/>
<path d="M168.185 75.5352C168.185 75.5352 172.631 80.123 172.631 82.7417C172.631 85.3604 172.631 93.8356 172.631 93.8356H170.774C170.774 93.8356 166.967 85.0965 164.542 82.224C162.116 79.3516 168.185 75.5352 168.185 75.5352Z" fill="#3494AA"/>
<path opacity="0.61" d="M168.185 75.5352C168.185 75.5352 172.631 80.123 172.631 82.7417C172.631 85.3604 172.631 93.8356 172.631 93.8356H170.774C170.774 93.8356 166.967 85.0965 164.542 82.224C162.116 79.3516 168.185 75.5352 168.185 75.5352Z" fill="#363636"/>
<path d="M157.041 75.5352C157.041 75.5352 152.595 80.123 152.595 82.7417C152.595 85.3604 152.595 93.8356 152.595 93.8356H154.453C154.453 93.8356 158.259 85.0965 160.685 82.224C163.11 79.3516 157.041 75.5352 157.041 75.5352Z" fill="#3494AA"/>
<path opacity="0.61" d="M157.041 75.5352C157.041 75.5352 152.595 80.123 152.595 82.7417C152.595 85.3604 152.595 93.8356 152.595 93.8356H154.453C154.453 93.8356 158.259 85.0965 160.685 82.224C163.11 79.3516 157.041 75.5352 157.041 75.5352Z" fill="#363636"/>
<path d="M166.978 44.8518C165.902 41.9334 164.478 39.1559 162.735 36.5796C160.986 39.1725 159.57 41.9757 158.523 44.9229C161.03 46.2627 164.176 45.8364 166.978 44.8518Z" fill="#3494AA"/>
<path d="M162.613 67.4862C165.108 67.4862 167.13 65.7048 167.13 63.5074C167.13 61.3099 165.108 59.5286 162.613 59.5286C160.119 59.5286 158.096 61.3099 158.096 63.5074C158.096 65.7048 160.119 67.4862 162.613 67.4862Z" fill="#3494AA"/>
<path d="M162.735 36.5693C162.735 36.5693 149.337 54.6668 158.249 82.6909C158.249 82.6909 159.264 88.6693 162.43 88.5475C165.597 88.4257 168.074 81.95 168.074 81.95C168.074 81.95 175.362 55.1032 162.735 36.5693Z" fill="#3494AA"/>
<path opacity="0.61" d="M166.978 44.8518C165.902 41.9334 164.478 39.1559 162.735 36.5796C160.986 39.1725 159.57 41.9757 158.523 44.9229C161.03 46.2627 164.176 45.8364 166.978 44.8518Z" fill="#363636"/>
<path opacity="0.61" d="M162.613 67.4862C165.108 67.4862 167.13 65.7048 167.13 63.5074C167.13 61.3099 165.108 59.5286 162.613 59.5286C160.119 59.5286 158.096 61.3099 158.096 63.5074C158.096 65.7048 160.119 67.4862 162.613 67.4862Z" fill="#363636"/>
<path d="M158.249 82.6909C158.249 82.6909 155.204 85.8577 155.204 87.6543C155.204 89.4508 155.204 95.2972 155.204 95.2972H156.483C156.483 95.2972 159.111 89.2783 160.776 87.299C162.441 85.3198 158.249 82.6909 158.249 82.6909Z" fill="#3494AA"/>
<path d="M166.978 82.6909C166.978 82.6909 170.023 85.8577 170.023 87.6543C170.023 89.4508 170.023 95.2972 170.023 95.2972H168.744C168.744 95.2972 166.115 89.2783 164.45 87.299C162.786 85.3198 166.978 82.6909 166.978 82.6909Z" fill="#3494AA"/>
<path opacity="0.29" d="M158.249 82.6909C158.249 82.6909 155.204 85.8577 155.204 87.6543C155.204 89.4508 155.204 95.2972 155.204 95.2972H156.483C156.483 95.2972 159.111 89.2783 160.776 87.299C162.441 85.3198 158.249 82.6909 158.249 82.6909Z" fill="#363636"/>
<path opacity="0.29" d="M166.978 82.6909C166.978 82.6909 170.023 85.8577 170.023 87.6543C170.023 89.4508 170.023 95.2972 170.023 95.2972H168.744C168.744 95.2972 166.115 89.2783 164.45 87.299C162.786 85.3198 166.978 82.6909 166.978 82.6909Z" fill="#363636"/>
<path d="M161.253 87.9487C161.253 87.9487 156.046 88.8521 155.163 90.9937C154.638 92.124 154.558 93.4106 154.94 94.597C154.94 94.597 151.651 94.6985 151.062 96.9721C150.474 99.2457 151.062 99.9663 151.062 99.9663C151.062 99.9663 143.724 100.261 143.957 107.67V110.045L161.263 100.058L161.253 87.9487Z" fill="white"/>
<path d="M163.74 87.2686C163.74 87.2686 168.947 88.1719 169.83 90.3136C170.355 91.4438 170.435 92.7304 170.053 93.9168C170.053 93.9168 173.342 94.0183 173.93 96.2919C174.519 98.5655 173.93 99.2862 173.93 99.2862C173.93 99.2862 181.269 99.5805 181.035 106.99V109.355L163.73 99.3674L163.74 87.2686Z" fill="white"/>
<defs>
<linearGradient id="paint0_linear" x1="158.746" y1="193.235" x2="189.663" y2="139.379" gradientUnits="userSpaceOnUse">
<stop stop-color="white" stop-opacity="0"/>
<stop offset="0.99" stop-color="#0048AA"/>
</linearGradient>
<linearGradient id="paint1_linear" x1="6923.62" y1="10527.5" x2="9171.88" y2="7441.4" gradientUnits="userSpaceOnUse">
<stop stop-color="white" stop-opacity="0"/>
<stop offset="0.99" stop-color="#0048AA"/>
</linearGradient>
<linearGradient id="paint2_linear" x1="324.262" y1="201.923" x2="344.268" y2="183.105" gradientUnits="userSpaceOnUse">
<stop stop-opacity="0"/>
<stop offset="0.99" stop-color="#552800"/>
</linearGradient>
<linearGradient id="paint3_linear" x1="223.96" y1="244.868" x2="268.427" y2="217.168" gradientUnits="userSpaceOnUse">
<stop stop-color="#0071BC" stop-opacity="0"/>
<stop offset="0.99" stop-color="#2E3192"/>
</linearGradient>
</defs>
</svg>
