<svg width="406" height="306" viewBox="0 0 406 306" fill="none" xmlns="http://www.w3.org/2000/svg">
<path d="M196.504 291.974L14.0779 184.16C8.27218 180.902 3.28853 175.543 8.95223 172.041L192.028 66.4813C194.778 64.7761 198.95 63.6596 201.741 65.2836L393.231 176.467C399.037 179.836 400.083 189.256 394.246 192.636L220.549 291.801C216.902 293.917 212.766 295.046 208.55 295.076C204.333 295.107 200.181 294.037 196.504 291.974Z" fill="#2B9399"/>
<path d="M110.909 161.658L52.0391 197.122C52.0391 197.122 159.852 259.098 188.993 276.414L247.132 236.494" fill="url(#paint0_linear)"/>
<path d="M88.9038 176.193V180.212L90.944 182.709" fill="#ADCEE1"/>
<path d="M169.749 127.209L91.2079 175.929C90.4987 176.375 89.9167 176.997 89.5179 177.734C89.1191 178.47 88.9171 179.298 88.9314 180.135C88.9457 180.973 89.1757 181.793 89.5994 182.516C90.0231 183.239 90.626 183.84 91.35 184.262L210.531 251.678C212.197 252.62 214.081 253.108 215.994 253.092C217.907 253.076 219.783 252.557 221.432 251.587L299.587 205.628C305.271 200.959 304.845 192.179 299.587 191.803L181.106 127.026C179.373 126.028 177.402 125.518 175.402 125.55C173.403 125.582 171.449 126.156 169.749 127.209Z" fill="#88D3D8"/>
<path d="M169.749 123.859L91.2079 172.579C90.4987 173.026 89.9167 173.647 89.5179 174.384C89.1191 175.121 88.9171 175.948 88.9314 176.786C88.9457 177.624 89.1757 178.444 89.5994 179.166C90.0231 179.889 90.626 180.491 91.35 180.912L210.531 248.329C212.197 249.271 214.081 249.758 215.994 249.742C217.907 249.726 219.783 249.207 221.432 248.237L299.587 202.278C300.496 201.739 301.249 200.973 301.772 200.054C302.295 199.136 302.57 198.097 302.57 197.041C302.57 195.984 302.295 194.946 301.772 194.027C301.249 193.109 300.496 192.343 299.587 191.803L181.106 123.677C179.373 122.679 177.402 122.168 175.402 122.201C173.403 122.233 171.449 122.806 169.749 123.859Z" fill="white"/>
<path d="M172.956 117.211C172.956 117.211 205.568 11.915 205.365 11.915C205.162 11.915 206.38 7.23583 212.216 9.88498L337.376 83.5841C337.376 83.5841 343.466 86.0404 342.258 91.7041C341.05 97.3678 310.387 194.696 310.387 194.696C309.745 195.62 308.825 196.315 307.761 196.68C306.696 197.045 305.544 197.061 304.47 196.726C300.653 195.539 175.889 123.068 175.889 123.068C175.889 123.068 171.728 121.535 172.956 117.211Z" fill="#053855"/>
<path d="M207.446 19.5884L335.62 94.3127L309.037 183.572L179.208 111.07L207.446 19.5884Z" fill="#68A2AF"/>
<path d="M164.927 135.014L136.213 152.909C135.703 153.225 135.285 153.668 134.998 154.195C134.711 154.722 134.566 155.315 134.578 155.914C134.589 156.514 134.756 157.101 135.062 157.616C135.368 158.132 135.803 158.56 136.325 158.857L239.398 217.615C240.941 218.506 242.691 218.975 244.473 218.975C246.255 218.975 248.005 218.506 249.548 217.615C256.176 213.758 267.584 206.795 274.568 202.512C275.19 202.131 275.703 201.596 276.057 200.957C276.41 200.319 276.591 199.6 276.583 198.87C276.575 198.141 276.378 197.426 276.01 196.795C275.642 196.165 275.117 195.641 274.486 195.275C253.638 183.156 185.633 143.601 170.743 134.963C169.862 134.44 168.854 134.168 167.828 134.177C166.803 134.186 165.8 134.475 164.927 135.014Z" fill="#68A2AF"/>
<path d="M166.46 183.572L202.472 203.821C203.025 204.131 203.487 204.581 203.81 205.127C204.133 205.672 204.305 206.293 204.311 206.927C204.316 207.561 204.153 208.185 203.839 208.736C203.525 209.287 203.071 209.745 202.523 210.063L181.35 222.456C180.623 222.876 179.799 223.097 178.96 223.097C178.121 223.097 177.296 222.876 176.569 222.456L139.725 201.446C139.273 201.176 138.899 200.793 138.639 200.335C138.379 199.877 138.242 199.359 138.242 198.832C138.242 198.306 138.379 197.788 138.639 197.33C138.899 196.872 139.273 196.489 139.725 196.219L161.75 183.562C162.47 183.157 163.281 182.945 164.107 182.947C164.932 182.948 165.743 183.164 166.46 183.572Z" fill="#68A2AF"/>
<path opacity="0.1" d="M164.927 135.014L136.213 152.909C135.703 153.225 135.285 153.668 134.998 154.195C134.711 154.722 134.566 155.315 134.578 155.914C134.589 156.514 134.756 157.101 135.062 157.616C135.368 158.132 135.803 158.56 136.325 158.857L239.398 217.615C240.941 218.506 242.691 218.975 244.473 218.975C246.255 218.975 248.005 218.506 249.548 217.615C256.176 213.758 267.584 206.795 274.568 202.512C275.19 202.131 275.703 201.596 276.057 200.957C276.41 200.319 276.591 199.6 276.583 198.87C276.575 198.141 276.378 197.426 276.01 196.795C275.642 196.165 275.117 195.641 274.486 195.275C253.638 183.156 185.633 143.601 170.743 134.963C169.862 134.44 168.854 134.168 167.828 134.177C166.803 134.186 165.8 134.475 164.927 135.014Z" fill="#053855"/>
<path opacity="0.1" d="M166.46 183.572L202.472 203.821C203.025 204.131 203.487 204.581 203.81 205.127C204.133 205.672 204.305 206.293 204.311 206.927C204.316 207.561 204.153 208.185 203.839 208.736C203.525 209.287 203.071 209.745 202.523 210.063L181.35 222.456C180.623 222.876 179.799 223.097 178.96 223.097C178.121 223.097 177.296 222.876 176.569 222.456L139.725 201.446C139.273 201.176 138.899 200.793 138.639 200.335C138.379 199.877 138.242 199.359 138.242 198.832C138.242 198.306 138.379 197.788 138.639 197.33C138.899 196.872 139.273 196.489 139.725 196.219L161.75 183.562C162.47 183.157 163.281 182.945 164.107 182.947C164.932 182.948 165.743 183.164 166.46 183.572Z" fill="#053855"/>
<path d="M253.182 69.3538C265.94 69.3538 276.527 81.341 278.313 96.9111C279.328 96.6167 280.282 96.3224 281.267 96.0077C279.125 79.1993 267.341 66.3088 253.182 66.3088C245.062 66.3088 237.693 70.5921 232.506 77.4129L235.257 78.7832C239.844 72.9672 246.188 69.3538 253.182 69.3538Z" fill="#0071BC"/>
<path d="M232.973 121.068C229.515 115.163 227.719 108.433 227.776 101.59C227.767 97.2446 228.473 92.9273 229.867 88.8113C229.723 88.7931 229.58 88.7626 229.441 88.72C228.619 88.4561 227.786 88.1922 226.964 87.908C225.474 92.3187 224.72 96.9446 224.731 101.6C224.678 109.107 226.697 116.483 230.567 122.915C231.366 122.3 232.168 121.684 232.973 121.068Z" fill="#0071BC"/>
<path d="M278.161 107.325C276.009 122.347 265.636 133.776 253.182 133.776C248.883 133.741 244.698 132.395 241.184 129.919C240.484 130.67 239.753 131.401 238.992 132.081C243.108 135.125 248.083 136.784 253.202 136.821C267.27 136.821 278.983 124.083 281.246 107.386L278.161 107.325Z" fill="#0071BC"/>
<path d="M233.623 101.58C233.623 87.8574 242.392 76.6822 253.171 76.6822C257.147 76.7289 260.975 78.198 263.961 80.8234C264.671 80.1062 265.392 79.3957 266.123 78.6919C262.567 75.4802 257.962 73.6757 253.171 73.6169C240.707 73.6169 230.578 86.1522 230.578 101.56C230.577 103.259 230.703 104.955 230.953 106.635L233.856 105.407C233.701 104.137 233.623 102.859 233.623 101.58Z" fill="#0071BC"/>
<path d="M257.648 125.818C256.199 126.254 254.694 126.476 253.182 126.478C245.924 126.478 239.591 121.403 236.211 113.912C235.304 114.359 234.387 114.792 233.46 115.212C237.337 123.738 244.717 129.523 253.182 129.523C255.097 129.522 257.001 129.225 258.825 128.64C258.409 127.706 258.033 126.762 257.648 125.818Z" fill="#0071BC"/>
<path d="M266.945 119.18C267.331 120.266 267.747 121.342 268.183 122.408C273.183 116.633 275.878 109.218 275.755 101.58C275.798 95.6701 274.214 89.8622 271.178 84.792L268.853 86.822C271.417 91.3229 272.747 96.4207 272.71 101.6C272.798 107.938 270.769 114.125 266.945 119.18Z" fill="#0071BC"/>
<path d="M253.182 85.7461C258.125 85.7461 262.388 89.5118 264.347 94.8811C265.362 94.6274 266.316 94.3635 267.29 94.0793C264.925 87.3803 259.495 82.6707 253.182 82.6707C251.266 82.6888 249.379 83.1362 247.66 83.98C247.944 84.995 248.208 86.01 248.452 86.9641C249.903 86.1717 251.528 85.7531 253.182 85.7461Z" fill="#0071BC"/>
<path d="M268.356 98.667C267.341 98.9512 266.387 99.2151 265.392 99.479C265.469 100.18 265.51 100.885 265.514 101.59C265.514 110.319 259.982 117.424 253.182 117.424H253.009C252.745 118.439 252.471 119.454 252.177 120.418C252.512 120.418 252.847 120.479 253.192 120.479C261.667 120.479 268.569 112.004 268.569 101.6C268.56 100.619 268.489 99.6392 268.356 98.667Z" fill="#0071BC"/>
<path d="M244.138 116.805C244.595 115.851 245.051 114.907 245.518 113.963C242.425 110.591 240.753 106.155 240.849 101.58C240.788 97.5426 242.066 93.5986 244.483 90.3642C244.199 89.1868 243.915 87.9993 243.61 86.832C241.72 88.7876 240.234 91.0969 239.238 93.6276C238.242 96.1583 237.755 98.8607 237.804 101.58C237.744 104.419 238.277 107.238 239.367 109.86C240.458 112.481 242.082 114.847 244.138 116.805Z" fill="#0071BC"/>
<path d="M233.156 88.9738C232.354 89.3392 231.572 89.7147 230.781 90.0903C231.4 89.7046 232.019 89.2986 232.608 88.8621C233.196 88.4257 234.069 87.4513 233.937 86.6494C233.744 85.4416 231.653 86.5175 230.09 87.4919C231.176 86.5479 232.07 85.4619 231.105 85.0457C230.141 84.6296 229.167 85.8171 228.588 86.2231C227.573 86.9539 226.558 87.7355 225.614 88.5678C226.292 87.6705 226.896 86.7201 227.421 85.7258C227.979 84.792 226.589 84.0206 225.909 84.7108C223.985 86.8032 221.912 88.7537 219.707 90.547C219.604 90.6238 219.518 90.7204 219.453 90.8312H218.103C217.697 90.8312 217.322 90.8312 216.946 90.8312H216.621C216.485 90.8025 216.344 90.8088 216.211 90.8497C216.077 90.8905 215.957 90.9645 215.86 91.0647C215.683 91.1243 215.513 91.2025 215.353 91.2981C215.301 91.3334 215.253 91.3743 215.21 91.4199C214.764 91.4199 214.317 91.5011 213.881 91.562C213.734 91.5935 213.597 91.6568 213.478 91.7477C213.359 91.8385 213.261 91.9545 213.193 92.0874C213.124 92.2203 213.085 92.3668 213.08 92.5164C213.074 92.6659 213.101 92.8149 213.16 92.9526L212.977 92.8511C211.962 92.2319 211.181 93.8661 212.176 94.5055C214.301 95.8062 216.748 96.4881 219.24 96.4746C219.253 96.5861 219.309 96.688 219.396 96.7583C219.484 96.8286 219.595 96.8616 219.707 96.8502C222.338 96.7812 224.946 96.3369 227.451 95.5307C227.764 95.4436 228.067 95.3246 228.355 95.1754C229.851 94.56 231.225 93.6837 232.415 92.5872C232.497 92.5084 232.551 92.4041 232.566 92.2912C232.582 92.1782 232.56 92.0633 232.502 91.9648C232.445 91.8663 232.356 91.79 232.25 91.7482C232.144 91.7065 232.027 91.7017 231.917 91.7346L231.481 91.8665C231.765 91.7041 232.049 91.5519 232.323 91.3793C233.014 90.9429 233.836 90.4151 233.947 89.5422C233.977 89.4396 233.974 89.3305 233.939 89.2298C233.904 89.129 233.838 89.0416 233.752 88.9794C233.665 88.9171 233.561 88.8832 233.454 88.8822C233.348 88.8812 233.243 88.9132 233.156 88.9738Z" fill="#FCBF81"/>
<path d="M199.356 79.0065C199.552 78.5364 199.783 78.0818 200.046 77.6464C200.04 77.6697 200.04 77.6941 200.046 77.7174C200.056 77.7502 200.075 77.7795 200.101 77.802C200.127 77.8245 200.159 77.8392 200.193 77.8445C200.227 77.8498 200.261 77.8454 200.293 77.8319C200.325 77.8184 200.352 77.7963 200.371 77.7682L200.869 77.0069C200.852 77.1043 200.852 77.2038 200.869 77.3013C200.908 77.4888 201.016 77.6546 201.173 77.7656C201.329 77.8766 201.521 77.9246 201.711 77.9001C201.821 77.892 201.928 77.8595 202.025 77.8052C202.121 77.7509 202.204 77.6759 202.268 77.5858C202.332 77.4956 202.375 77.3924 202.395 77.2836C202.414 77.1747 202.41 77.0629 202.381 76.9562L202.614 76.6923C202.602 76.7696 202.602 76.8484 202.614 76.9257C202.648 77.0344 202.709 77.1326 202.791 77.2109C202.873 77.2891 202.975 77.3447 203.085 77.3723C203.195 77.3998 203.311 77.3984 203.42 77.3682C203.53 77.338 203.63 77.28 203.711 77.1998C203.802 77.1287 203.873 77.0374 203.964 76.9562C204.035 76.9869 204.111 77.0028 204.188 77.0028C204.264 77.0028 204.34 76.9869 204.411 76.9562C205.062 76.7344 205.699 76.4734 206.319 76.1746C206.277 76.155 206.24 76.1257 206.212 76.0892C206.183 76.0527 206.164 76.0099 206.155 75.9644C206.146 75.9189 206.148 75.8719 206.16 75.8273C206.173 75.7827 206.196 75.7417 206.228 75.7077C206.958 75.1168 207.732 74.5807 208.542 74.104H208.643V74.0228C208.836 73.4068 208.793 72.741 208.522 72.1552C208.717 71.9179 208.856 71.6393 208.928 71.3404C209 71.0414 209.004 70.7301 208.938 70.4297C208.874 70.424 208.814 70.3993 208.765 70.3587C208.649 70.2603 208.55 70.1437 208.471 70.0136C208.329 69.8343 208.219 69.6317 208.146 69.4147C208.13 69.3612 208.131 69.3039 208.149 69.251C208.167 69.1981 208.202 69.1523 208.248 69.1204C207.943 68.7144 207.598 68.3388 207.233 67.9937C207.983 66.7 208.336 65.2137 208.248 63.7206C208.248 63.5765 208.2 63.4366 208.112 63.3227C208.023 63.2088 207.9 63.1275 207.76 63.0914C207.621 63.0554 207.474 63.0668 207.341 63.1237C207.209 63.1806 207.099 63.2799 207.03 63.4059C206.733 63.8765 206.465 64.3646 206.228 64.8675C206.151 64.9187 206.088 64.9885 206.045 65.0705C204.829 67.6889 203.474 70.2402 201.985 72.7135C201.721 73.1296 198.483 77.5956 198.849 77.6971C198.737 77.89 196.088 83.98 199.356 79.0065ZM201.275 77.1186C201.291 77.1378 201.311 77.1532 201.334 77.1638C201.356 77.1744 201.381 77.1799 201.406 77.1799C201.432 77.1799 201.456 77.1744 201.479 77.1638C201.502 77.1532 201.522 77.1378 201.538 77.1186C201.618 77.177 201.709 77.2173 201.805 77.2366C201.902 77.2559 202.001 77.2537 202.097 77.2302C202.089 77.3433 202.036 77.4485 201.95 77.5227C201.865 77.597 201.753 77.6341 201.64 77.6261C201.527 77.618 201.422 77.5653 201.347 77.4797C201.273 77.394 201.236 77.2824 201.244 77.1693L201.275 77.1186Z" fill="#FCBF81"/>
<path d="M199.701 77.5854C200.407 77.0255 200.999 76.3366 201.447 75.5554C201.534 75.3942 201.652 75.2522 201.795 75.1378C201.938 75.0234 202.102 74.939 202.279 74.8898C202.455 74.8405 202.639 74.8273 202.821 74.851C203.002 74.8747 203.177 74.9347 203.335 75.0276C203.383 74.6676 203.407 74.3048 203.406 73.9416C203.406 72.1044 206.299 72.074 206.268 73.9416C206.327 75.3766 205.941 76.7947 205.162 78.0016C204.296 79.1004 203.241 80.0354 202.046 80.7624C201.835 80.8809 201.598 80.9456 201.356 80.9508C201.114 80.956 200.875 80.9015 200.659 80.7921C200.443 80.6827 200.258 80.5218 200.119 80.3236C199.98 80.1255 199.893 79.8962 199.864 79.656L199.732 79.5545C199.478 79.2914 199.333 78.9416 199.328 78.576C199.322 78.2104 199.456 77.8562 199.701 77.5854Z" fill="#FCBF81"/>
<path d="M183.837 84.4469C183.837 84.4469 192.19 84.8428 194.362 82.8432C196.534 80.8437 199.671 74.5405 199.671 74.5405C199.671 74.5405 205.426 78.2351 205.761 80.3666C206.096 82.4981 199.711 92.8004 196.91 93.4906" fill="#4D47C4"/>
<path d="M171.17 187.439C171.17 187.439 178.275 184.303 179.929 184.171C181.584 184.039 184.466 184.627 181.959 187.744C181.959 187.744 174.529 192.605 173.555 192.758C172.58 192.91 170.195 192.169 170.134 192.423C170.073 192.676 169.85 194.554 169.85 194.554C169.85 194.554 163.638 196.919 163.374 192.768C163.374 192.23 164.268 184.516 164.268 184.516" fill="#34323D"/>
<path d="M163.07 169.24C164.298 161.262 166.541 153.528 167.485 145.448C168.074 140.373 168.5 135.298 169.119 130.223C169.738 125.148 171.637 120.236 172.855 115.212C172.887 115.095 172.879 114.971 172.833 114.859C172.787 114.747 172.705 114.653 172.601 114.592C172.662 114.42 172.712 114.237 172.763 114.065C173.392 113.466 174.032 112.897 174.651 112.359L183.329 118.206C183.329 118.206 183.279 123.524 183.005 131.218C181.99 135.704 181.228 139.714 180.091 143.966C180.215 144.101 180.304 144.264 180.35 144.441C180.396 144.618 180.398 144.804 180.355 144.981C177.532 158.387 175.475 171.942 174.194 185.581C174.177 185.807 174.095 186.022 173.958 186.202C173.821 186.382 173.635 186.519 173.423 186.596L173.179 188.698C165.628 191.611 163.973 186.536 163.973 186.536C163.973 186.536 163.628 182.212 163.202 176.203C163.06 173.858 163.019 171.544 163.07 169.24Z" fill="#34323D"/>
<path d="M186.618 199.051L190.81 200.553C190.934 200.935 191.156 201.278 191.453 201.549C191.75 201.819 192.113 202.008 192.505 202.096C192.654 202.273 192.864 202.389 193.094 202.42C194.795 202.54 196.502 202.262 198.077 201.608C200.107 200.979 207.933 197.975 205.751 203.638C204.32 204.653 202.706 205.516 201.254 206.409C200.432 206.907 199.6 207.424 198.757 207.871C198.311 208.176 197.817 208.406 197.296 208.551C196.169 208.723 193.429 207.871 193.358 208.165C193.286 208.46 193.033 210.622 193.033 210.622C193.033 210.622 185.928 213.342 185.583 208.592C185.542 207.911 186.618 199.051 186.618 199.051Z" fill="#34323D"/>
<path d="M180.67 156.126C179.797 142.018 179.31 127.828 176.336 113.953C176.204 110.35 173.87 112.654 174.032 111.222C175.301 99.6209 192.211 113.425 192.211 113.425C192.891 113.983 192.982 117.546 193.114 118.348C193.879 122.807 194.532 127.28 195.073 131.766C197.874 154.431 196.839 176.974 195.692 199.71C192.099 203.384 189.744 204.481 183.959 202.106C182.802 187.226 181.705 172.346 180.751 157.446L180.67 156.126Z" fill="#34323D"/>
<path d="M189.805 86.01C189.643 85.2792 187.775 84.7818 187.186 84.4773C185.877 83.7668 186.638 82.5285 185.359 81.7571C183.48 80.6631 181.523 79.7097 179.503 78.905H179.452C176.245 78.905 170.865 78.7223 170.54 82.965C170.043 89.5625 170.622 96.16 171.129 102.717C171.332 105.356 171.565 107.975 171.799 110.553C171.88 111.497 172.002 119.109 172.57 119.343C178.934 121.982 187.075 121.048 193.307 118.581C192.982 107.65 191.812 96.7603 189.805 86.01Z" fill="#695DD8"/>
<path d="M184.04 92.6481C184.231 94.8433 185.092 96.9268 186.507 98.6168C187.921 100.307 189.82 101.522 191.947 102.098C191.947 102.534 192.079 105.214 192.129 105.65C187.054 104.432 183.299 98.0479 182.771 92.6481C182.7 91.8361 183.959 91.8361 184.04 92.6481Z" fill="#34323D"/>
<path d="M180.934 65.5678C181.35 65.6795 184.913 73.8604 183.512 78.8237C182.111 83.7871 173.677 78.6816 171.555 74.8957C169.434 71.1097 172.956 63.4972 180.934 65.5678Z" fill="#FCBF81"/>
<path d="M180.822 66.7249C180.817 67.4843 180.592 68.226 180.174 68.8601C179.756 69.4942 179.163 69.9935 178.467 70.2977C176.103 71.1706 174.144 71.7593 174.265 72.8555C174.387 73.9517 178.539 72.7032 178.549 75.2001C178.548 76.8844 178.319 78.5609 177.869 80.1838C177.605 81.4119 170.52 77.6564 168.186 71.2416C165.851 64.8268 171.697 63.1216 171.982 63.1216C172.266 63.1216 172.794 61.3352 175.666 60.7161C178.539 60.0969 179.34 61.2033 179.34 61.2033C179.993 60.8104 180.756 60.6423 181.513 60.7248C182.271 60.8073 182.98 61.1358 183.532 61.66C186.181 63.7611 185.501 67.5978 182.517 69.1507L180.822 66.7249Z" fill="#34323D"/>
<path d="M184.03 81.0264C184.03 81.0264 198.625 89.39 203.883 89.4001C207.679 89.4001 215.19 88.172 219.108 87.4818C222.721 90.5268 222.965 95.9063 220.722 100.017C214.348 101.032 195.469 103.773 189.551 100.839C182.385 97.2867 174.499 92.5263 174.499 92.5263C174.499 92.5263 167.333 85.533 184.03 81.0264Z" fill="#695DD8"/>
<defs>
<linearGradient id="paint0_linear" x1="135.736" y1="238.869" x2="163.111" y2="195.275" gradientUnits="userSpaceOnUse">
<stop offset="0.01" stop-color="#68A2AF"/>
<stop offset="1" stop-color="#4DC8E3"/>
</linearGradient>
</defs>
</svg>
