<svg width="1171" height="515" viewBox="0 0 1171 515" fill="none" xmlns="http://www.w3.org/2000/svg">
<g filter="url(#filter0_f)">
<mask id="path-1-inside-1" fill="white">
<path d="M805.43 34.5785C807.712 25.7221 809.923 18.7146 811.239 11.5434C812.316 5.67627 815.632 3.93759 820.964 4.0017C829.158 4.10007 837.355 4.06728 845.551 4.02088C851.35 3.98809 854.702 6.83198 855.947 12.4196C857.544 19.5842 859.476 26.688 860.758 33.9078C861.899 40.3358 864.218 45.0125 871.343 46.5845C875.193 47.4337 878.605 50.1194 882.41 51.3851C884.516 52.1445 886.831 52.083 888.894 51.2128C897.123 46.4472 905.255 41.4705 913.091 36.089C918.055 32.6803 922.084 33.0844 926.167 37.1293C932.173 43.0785 938.846 48.5106 943.929 55.1611C945.047 56.9946 945.74 59.0553 945.958 61.1917C946.175 63.3282 945.911 65.4862 945.186 67.5074C941.979 74.6045 937.143 81.0292 932.526 87.4041C929.055 92.1965 928.398 96.7401 931.55 101.767C932.128 102.689 933.155 103.587 933.213 104.541C934.147 120.164 945.691 121.25 957.313 122.3C958.947 122.42 960.568 122.675 962.159 123.063C976.099 126.712 977.182 128.144 977.184 142.633C977.185 148.37 977.003 154.114 977.22 159.842C977.445 165.776 974.802 168.89 969.031 170.105C960.249 171.957 951.455 173.883 942.869 176.451C940.291 177.222 937.929 179.913 936.247 182.278C926.706 195.691 929.494 207.911 940.16 219.333C941.79 221.079 942.586 223.575 943.976 225.58C948.867 232.631 947.835 238.718 941.445 244.301C937.357 247.872 933.419 251.641 929.655 255.552C922.876 262.595 917.79 263.027 909.659 257.391C903.646 253.223 897.718 248.623 891.082 245.781C887.493 244.244 882.347 245.365 878.167 246.377C867.689 248.914 859.858 253.851 859.756 266.591C859.709 272.419 857.451 278.299 855.718 284.01C854.968 286.48 853.485 289.945 851.52 290.632C838.121 295.321 831.701 307.919 821.622 316.305C815.594 321.321 810.792 327.809 804.767 332.828C795.671 340.403 791.676 350.803 787.945 361.279C786.823 363.9 786.541 366.805 787.138 369.594C787.735 372.382 789.182 374.917 791.279 376.849C799.529 385.375 797.444 407.84 788.606 415.909C785.137 419.076 783.997 422.152 784.55 427.286C785.544 436.498 787.697 446.041 781.315 454.889C775.104 463.503 767.109 467.433 756.892 466.874C749.139 466.45 745.081 467.721 743.381 477.174C738.506 504.272 708.724 519.477 684.28 506.016C672.812 499.701 662.9 490.529 662.502 475.586C662.296 467.837 657.209 466.772 651.32 467.028C642.211 467.421 634.784 465.359 627.725 458.481C618.417 449.409 619.537 439.163 620.327 428.217C620.572 424.835 620.294 420.267 618.272 418.06C606.682 405.411 603.981 391.91 614.016 377.28C621.864 365.838 616.282 356.468 611.774 347.692C607.128 338.813 600.697 330.99 592.885 324.715C558.939 297.686 536.143 263.25 527.742 221.131C519.598 180.297 523.014 139.793 542.66 101.717C557.903 71.4406 581.391 46.0872 610.417 28.5789C633.697 14.5488 659.183 4.93129 686.691 4.40337C705.738 4.11751 724.776 5.37311 743.621 8.15786C762.321 10.854 779.198 19.5959 795.317 29.4437C798.243 31.2301 801.441 32.5706 805.43 34.5785ZM786.35 50.7605C786.542 49.427 786.733 48.0931 786.925 46.7589C782.16 43.879 777.719 40.0369 772.568 38.3003C757.467 33.2069 742.345 27.3166 726.738 24.8249C711.058 22.3216 694.427 21.2221 678.853 23.6341C653.503 27.5604 630.126 37.8815 608.87 53.0005C588.104 67.534 571.41 87.1484 560.382 109.971C553.613 124.01 548.037 139.321 545.73 154.634C542.764 172.872 542.404 191.439 544.66 209.778C546.844 225.54 553.763 240.971 560.451 255.703C570.004 276.743 584.902 293.99 603.291 308.131C619.521 320.613 630.866 336.614 635.675 356.554C637.076 362.362 639.355 364.343 644.821 364.334C683.335 364.272 721.848 364.269 760.362 364.327C766.241 364.335 769.651 361.682 770.462 355.877C772.488 341.379 780.452 330.254 790.511 320.287C799.573 311.31 808.607 302.304 816.235 294.719C813.653 287.035 811.108 280.896 809.549 274.516C806.5 262.036 805.124 249.357 788.79 245.585C782.265 244.078 777.639 243.758 772.273 247.491C766.085 251.795 759.354 255.318 753.145 259.596C747.765 263.301 742.922 261.403 738.842 258.208C717.06 241.151 716.237 235.576 731.246 212.324C732.115 210.978 733.999 209.976 734.254 208.6C735.135 203.84 736.78 198.714 735.826 194.216C733.088 181.312 725.723 172.919 711.218 172.926C707.412 172.705 703.649 172.004 700.019 170.84C693.042 169.011 688.3 165.307 688.789 157.117C689.098 151.946 688.833 146.741 688.843 141.551C688.87 128.699 689.291 127.971 701.577 124.585C707.598 122.925 713.748 121.699 719.884 120.505C725.562 119.401 730.252 117.542 731.665 110.991C732.427 107.803 733.676 104.751 735.369 101.944C738.564 96.4352 737.449 91.6329 734.043 86.7352C730.324 81.3861 726.595 76.0054 723.4 70.3401C719.386 63.2229 719.663 56.3238 725.974 50.3307C730.124 46.3904 734.28 42.4488 738.264 38.3446C743.138 33.3246 748 32.2829 754.157 36.5576C761.496 41.6849 769.139 46.3611 777.046 50.5601C779.501 51.8522 783.214 50.7603 786.35 50.7603V50.7605ZM886.836 221.41C889.349 222.316 891.795 223.401 894.154 224.656C899.89 228.21 905.189 232.59 911.21 235.515C914.281 237.007 918.528 236.079 922.244 236.245C922.137 232.809 923.006 228.935 921.705 226.035C919.417 221.107 916.44 216.531 912.861 212.443C906.975 205.593 907.608 198.73 911.012 191.178C914.399 184.083 917.325 176.777 919.771 169.306C921.391 163.952 924.174 160.857 929.449 159.697C936.61 158.121 943.936 157.026 950.842 154.69C953.729 153.712 956.46 150.398 957.727 147.48C958.198 146.395 954.658 142.323 952.29 141.496C946.124 139.417 939.792 137.869 933.364 136.869C926.211 135.68 921.637 132.531 919.485 125.146C917.382 118.408 914.651 111.881 911.328 105.653C907.492 98.1429 907.289 91.2079 912.056 84.0747C915.943 78.5477 919.434 72.7534 922.505 66.7348C923.437 64.7945 922.332 60.9115 920.784 59.0819C919.731 57.8382 915.887 57.7772 913.987 58.6694C909.572 60.7883 905.393 63.3656 901.517 66.3587C892.72 73.0541 884.173 75.0307 873.92 68.6724C868.061 65.0387 860.513 64.2252 854.301 61.0244C850.643 59.0588 847.771 55.8972 846.164 52.0681C843.368 44.4534 842.313 36.2124 839.739 28.4966C838.942 26.1059 835.074 22.6842 833.446 23.089C831.921 23.5989 830.525 24.4333 829.353 25.5348C828.182 26.6363 827.263 27.9787 826.66 29.4695C824.532 36.7648 822.787 44.1663 821.432 51.6438C820.206 57.3732 816.72 59.9669 811.069 61.622C803.23 63.6876 795.712 66.8206 788.725 70.9329C782.836 74.6497 778.242 74.4936 772.969 71.0721C766.586 66.9312 760.359 62.5265 753.785 58.7171C751.654 57.4821 746.622 56.9086 746.375 57.4926C745.072 60.5801 743.425 64.7659 744.576 67.3997C747.405 73.888 751.079 79.974 755.502 85.4998C760.252 91.3894 759.618 96.6286 756.763 102.856C752.816 111.463 749.812 120.511 745.698 129.03C744.066 131.974 741.412 134.219 738.238 135.34C730.508 137.858 722.363 139.094 714.616 141.568C711.922 142.428 709.909 145.42 707.585 147.438C710.264 149.938 712.543 153.637 715.704 154.694C722.62 157.004 730.263 157.234 737.054 159.787C740.718 161.164 744.16 165.092 746.089 168.726C750.397 176.841 753.418 185.629 757.494 193.88C760.454 199.874 759.063 204.812 755.657 209.887C751.559 215.589 747.826 221.543 744.479 227.715C744.013 229.114 743.881 230.603 744.092 232.062C744.303 233.521 744.852 234.911 745.695 236.12C746.827 237.516 751.287 237.646 753.355 236.581C759.366 233.482 764.651 228.929 770.743 226.051C775.13 223.979 780.939 221.725 785.086 222.972C795.131 226.242 804.859 230.415 814.152 235.44C817.515 237.419 820.067 240.527 821.354 244.211C823.918 251.912 824.909 260.133 827.419 267.857C828.137 270.067 831.752 272.337 834.253 272.608C835.872 272.783 838.895 269.681 839.532 267.528C842.078 258.932 843.719 250.07 846.197 241.45C846.995 238.992 848.716 236.94 850.997 235.725C860.659 231.389 870.545 227.55 880.372 223.585C882.362 222.782 884.442 222.208 886.836 221.41V221.41ZM704.256 382.881C683.53 382.881 662.803 382.803 642.077 382.916C632.453 382.969 628.03 386.876 627.934 394.832C627.832 403.226 632.312 407.316 642.322 407.336C682.957 407.415 723.592 407.418 764.227 407.345C772.675 407.334 777.489 402.887 777.604 395.418C777.725 387.548 772.823 382.929 763.982 382.899C744.073 382.83 724.165 382.877 704.256 382.881ZM703.359 448.818C720.277 448.818 737.197 448.956 754.111 448.699C757.452 448.648 761.841 448.068 763.821 445.94C766.163 443.424 768.115 438.461 767.225 435.449C765.313 428.978 759.923 425.806 752.721 425.831C719.159 425.947 685.596 425.834 652.033 425.92C643.674 425.941 638.114 430.926 638.34 437.668C638.558 444.162 643.871 448.722 651.787 448.771C668.977 448.877 686.168 448.804 703.359 448.818ZM703.691 469.149V469.073C699.349 469.073 694.976 468.756 690.676 469.182C687.706 469.476 682.39 470.723 682.361 471.674C682.445 475.349 683.364 478.958 685.049 482.225C686.333 484.3 688.091 486.039 690.179 487.302C701.291 495.411 719.714 491.681 724.286 475.971C725.506 471.779 724.068 469.072 719.159 469.134C714.004 469.201 708.847 469.149 703.691 469.149Z"/>
</mask>
<path d="M805.43 34.5785C807.712 25.7221 809.923 18.7146 811.239 11.5434C812.316 5.67627 815.632 3.93759 820.964 4.0017C829.158 4.10007 837.355 4.06728 845.551 4.02088C851.35 3.98809 854.702 6.83198 855.947 12.4196C857.544 19.5842 859.476 26.688 860.758 33.9078C861.899 40.3358 864.218 45.0125 871.343 46.5845C875.193 47.4337 878.605 50.1194 882.41 51.3851C884.516 52.1445 886.831 52.083 888.894 51.2128C897.123 46.4472 905.255 41.4705 913.091 36.089C918.055 32.6803 922.084 33.0844 926.167 37.1293C932.173 43.0785 938.846 48.5106 943.929 55.1611C945.047 56.9946 945.74 59.0553 945.958 61.1917C946.175 63.3282 945.911 65.4862 945.186 67.5074C941.979 74.6045 937.143 81.0292 932.526 87.4041C929.055 92.1965 928.398 96.7401 931.55 101.767C932.128 102.689 933.155 103.587 933.213 104.541C934.147 120.164 945.691 121.25 957.313 122.3C958.947 122.42 960.568 122.675 962.159 123.063C976.099 126.712 977.182 128.144 977.184 142.633C977.185 148.37 977.003 154.114 977.22 159.842C977.445 165.776 974.802 168.89 969.031 170.105C960.249 171.957 951.455 173.883 942.869 176.451C940.291 177.222 937.929 179.913 936.247 182.278C926.706 195.691 929.494 207.911 940.16 219.333C941.79 221.079 942.586 223.575 943.976 225.58C948.867 232.631 947.835 238.718 941.445 244.301C937.357 247.872 933.419 251.641 929.655 255.552C922.876 262.595 917.79 263.027 909.659 257.391C903.646 253.223 897.718 248.623 891.082 245.781C887.493 244.244 882.347 245.365 878.167 246.377C867.689 248.914 859.858 253.851 859.756 266.591C859.709 272.419 857.451 278.299 855.718 284.01C854.968 286.48 853.485 289.945 851.52 290.632C838.121 295.321 831.701 307.919 821.622 316.305C815.594 321.321 810.792 327.809 804.767 332.828C795.671 340.403 791.676 350.803 787.945 361.279C786.823 363.9 786.541 366.805 787.138 369.594C787.735 372.382 789.182 374.917 791.279 376.849C799.529 385.375 797.444 407.84 788.606 415.909C785.137 419.076 783.997 422.152 784.55 427.286C785.544 436.498 787.697 446.041 781.315 454.889C775.104 463.503 767.109 467.433 756.892 466.874C749.139 466.45 745.081 467.721 743.381 477.174C738.506 504.272 708.724 519.477 684.28 506.016C672.812 499.701 662.9 490.529 662.502 475.586C662.296 467.837 657.209 466.772 651.32 467.028C642.211 467.421 634.784 465.359 627.725 458.481C618.417 449.409 619.537 439.163 620.327 428.217C620.572 424.835 620.294 420.267 618.272 418.06C606.682 405.411 603.981 391.91 614.016 377.28C621.864 365.838 616.282 356.468 611.774 347.692C607.128 338.813 600.697 330.99 592.885 324.715C558.939 297.686 536.143 263.25 527.742 221.131C519.598 180.297 523.014 139.793 542.66 101.717C557.903 71.4406 581.391 46.0872 610.417 28.5789C633.697 14.5488 659.183 4.93129 686.691 4.40337C705.738 4.11751 724.776 5.37311 743.621 8.15786C762.321 10.854 779.198 19.5959 795.317 29.4437C798.243 31.2301 801.441 32.5706 805.43 34.5785ZM786.35 50.7605C786.542 49.427 786.733 48.0931 786.925 46.7589C782.16 43.879 777.719 40.0369 772.568 38.3003C757.467 33.2069 742.345 27.3166 726.738 24.8249C711.058 22.3216 694.427 21.2221 678.853 23.6341C653.503 27.5604 630.126 37.8815 608.87 53.0005C588.104 67.534 571.41 87.1484 560.382 109.971C553.613 124.01 548.037 139.321 545.73 154.634C542.764 172.872 542.404 191.439 544.66 209.778C546.844 225.54 553.763 240.971 560.451 255.703C570.004 276.743 584.902 293.99 603.291 308.131C619.521 320.613 630.866 336.614 635.675 356.554C637.076 362.362 639.355 364.343 644.821 364.334C683.335 364.272 721.848 364.269 760.362 364.327C766.241 364.335 769.651 361.682 770.462 355.877C772.488 341.379 780.452 330.254 790.511 320.287C799.573 311.31 808.607 302.304 816.235 294.719C813.653 287.035 811.108 280.896 809.549 274.516C806.5 262.036 805.124 249.357 788.79 245.585C782.265 244.078 777.639 243.758 772.273 247.491C766.085 251.795 759.354 255.318 753.145 259.596C747.765 263.301 742.922 261.403 738.842 258.208C717.06 241.151 716.237 235.576 731.246 212.324C732.115 210.978 733.999 209.976 734.254 208.6C735.135 203.84 736.78 198.714 735.826 194.216C733.088 181.312 725.723 172.919 711.218 172.926C707.412 172.705 703.649 172.004 700.019 170.84C693.042 169.011 688.3 165.307 688.789 157.117C689.098 151.946 688.833 146.741 688.843 141.551C688.87 128.699 689.291 127.971 701.577 124.585C707.598 122.925 713.748 121.699 719.884 120.505C725.562 119.401 730.252 117.542 731.665 110.991C732.427 107.803 733.676 104.751 735.369 101.944C738.564 96.4352 737.449 91.6329 734.043 86.7352C730.324 81.3861 726.595 76.0054 723.4 70.3401C719.386 63.2229 719.663 56.3238 725.974 50.3307C730.124 46.3904 734.28 42.4488 738.264 38.3446C743.138 33.3246 748 32.2829 754.157 36.5576C761.496 41.6849 769.139 46.3611 777.046 50.5601C779.501 51.8522 783.214 50.7603 786.35 50.7603V50.7605ZM886.836 221.41C889.349 222.316 891.795 223.401 894.154 224.656C899.89 228.21 905.189 232.59 911.21 235.515C914.281 237.007 918.528 236.079 922.244 236.245C922.137 232.809 923.006 228.935 921.705 226.035C919.417 221.107 916.44 216.531 912.861 212.443C906.975 205.593 907.608 198.73 911.012 191.178C914.399 184.083 917.325 176.777 919.771 169.306C921.391 163.952 924.174 160.857 929.449 159.697C936.61 158.121 943.936 157.026 950.842 154.69C953.729 153.712 956.46 150.398 957.727 147.48C958.198 146.395 954.658 142.323 952.29 141.496C946.124 139.417 939.792 137.869 933.364 136.869C926.211 135.68 921.637 132.531 919.485 125.146C917.382 118.408 914.651 111.881 911.328 105.653C907.492 98.1429 907.289 91.2079 912.056 84.0747C915.943 78.5477 919.434 72.7534 922.505 66.7348C923.437 64.7945 922.332 60.9115 920.784 59.0819C919.731 57.8382 915.887 57.7772 913.987 58.6694C909.572 60.7883 905.393 63.3656 901.517 66.3587C892.72 73.0541 884.173 75.0307 873.92 68.6724C868.061 65.0387 860.513 64.2252 854.301 61.0244C850.643 59.0588 847.771 55.8972 846.164 52.0681C843.368 44.4534 842.313 36.2124 839.739 28.4966C838.942 26.1059 835.074 22.6842 833.446 23.089C831.921 23.5989 830.525 24.4333 829.353 25.5348C828.182 26.6363 827.263 27.9787 826.66 29.4695C824.532 36.7648 822.787 44.1663 821.432 51.6438C820.206 57.3732 816.72 59.9669 811.069 61.622C803.23 63.6876 795.712 66.8206 788.725 70.9329C782.836 74.6497 778.242 74.4936 772.969 71.0721C766.586 66.9312 760.359 62.5265 753.785 58.7171C751.654 57.4821 746.622 56.9086 746.375 57.4926C745.072 60.5801 743.425 64.7659 744.576 67.3997C747.405 73.888 751.079 79.974 755.502 85.4998C760.252 91.3894 759.618 96.6286 756.763 102.856C752.816 111.463 749.812 120.511 745.698 129.03C744.066 131.974 741.412 134.219 738.238 135.34C730.508 137.858 722.363 139.094 714.616 141.568C711.922 142.428 709.909 145.42 707.585 147.438C710.264 149.938 712.543 153.637 715.704 154.694C722.62 157.004 730.263 157.234 737.054 159.787C740.718 161.164 744.16 165.092 746.089 168.726C750.397 176.841 753.418 185.629 757.494 193.88C760.454 199.874 759.063 204.812 755.657 209.887C751.559 215.589 747.826 221.543 744.479 227.715C744.013 229.114 743.881 230.603 744.092 232.062C744.303 233.521 744.852 234.911 745.695 236.12C746.827 237.516 751.287 237.646 753.355 236.581C759.366 233.482 764.651 228.929 770.743 226.051C775.13 223.979 780.939 221.725 785.086 222.972C795.131 226.242 804.859 230.415 814.152 235.44C817.515 237.419 820.067 240.527 821.354 244.211C823.918 251.912 824.909 260.133 827.419 267.857C828.137 270.067 831.752 272.337 834.253 272.608C835.872 272.783 838.895 269.681 839.532 267.528C842.078 258.932 843.719 250.07 846.197 241.45C846.995 238.992 848.716 236.94 850.997 235.725C860.659 231.389 870.545 227.55 880.372 223.585C882.362 222.782 884.442 222.208 886.836 221.41V221.41ZM704.256 382.881C683.53 382.881 662.803 382.803 642.077 382.916C632.453 382.969 628.03 386.876 627.934 394.832C627.832 403.226 632.312 407.316 642.322 407.336C682.957 407.415 723.592 407.418 764.227 407.345C772.675 407.334 777.489 402.887 777.604 395.418C777.725 387.548 772.823 382.929 763.982 382.899C744.073 382.83 724.165 382.877 704.256 382.881ZM703.359 448.818C720.277 448.818 737.197 448.956 754.111 448.699C757.452 448.648 761.841 448.068 763.821 445.94C766.163 443.424 768.115 438.461 767.225 435.449C765.313 428.978 759.923 425.806 752.721 425.831C719.159 425.947 685.596 425.834 652.033 425.92C643.674 425.941 638.114 430.926 638.34 437.668C638.558 444.162 643.871 448.722 651.787 448.771C668.977 448.877 686.168 448.804 703.359 448.818ZM703.691 469.149V469.073C699.349 469.073 694.976 468.756 690.676 469.182C687.706 469.476 682.39 470.723 682.361 471.674C682.445 475.349 683.364 478.958 685.049 482.225C686.333 484.3 688.091 486.039 690.179 487.302C701.291 495.411 719.714 491.681 724.286 475.971C725.506 471.779 724.068 469.072 719.159 469.134C714.004 469.201 708.847 469.149 703.691 469.149Z" fill="#363636" stroke="#5ED700" stroke-width="4" mask="url(#path-1-inside-1)"/>
<path d="M933.332 469.706L933.332 469.808L933.352 469.909C935.319 479.413 930.01 489.63 921.765 497.455C913.524 505.275 902.668 510.394 894.079 509.931C871.55 508.717 853.788 491.749 853.647 469.353C853.519 449.095 871.766 428.495 894.232 429.56C905.711 430.103 915.479 434.325 922.371 441.286C929.26 448.242 933.334 457.992 933.332 469.706ZM894.246 492.258C907.273 492.25 917.852 482.245 917.935 469.676C918.016 457.249 907.216 446.873 894.338 446.824C880.503 446.771 870.108 456.701 870.298 469.999C870.483 482.88 880.697 492.267 894.246 492.258Z" fill="#363636" stroke="#5ED700" stroke-width="2"/>
<path d="M510.326 438.292C510.326 438.289 510.326 438.286 510.326 438.283C510.292 434.41 511.491 431.055 513.65 428.674C515.819 426.283 518.899 424.941 522.47 425.02L510.326 438.292ZM510.326 438.292V438.292C510.362 442.163 511.365 445.313 513.401 447.518C515.448 449.734 518.406 450.855 522.054 450.923C525.805 450.992 528.921 449.806 531.08 447.479C533.229 445.162 534.318 441.837 534.275 437.836C534.198 430.563 529.365 425.172 522.47 425.02L510.326 438.292ZM522.716 408.383L522.716 408.383C531.263 408.409 538.446 411.463 543.493 416.644C548.541 421.827 551.511 429.201 551.512 437.972C551.513 454.045 539.532 465.946 523.303 465.958C514.322 465.965 506.75 462.979 501.432 457.925C496.118 452.874 492.995 445.701 493 437.208C493.012 420.408 505.414 408.33 522.716 408.383Z" fill="#363636" stroke="#5ED700" stroke-width="2"/>
<path d="M1048.33 323.909C1048.33 323.906 1048.33 323.903 1048.33 323.9C1048.29 320.027 1049.49 316.672 1051.65 314.291C1053.82 311.9 1056.9 310.558 1060.47 310.637L1048.33 323.909ZM1048.33 323.909V323.909C1048.36 327.78 1049.37 330.93 1051.4 333.135C1053.45 335.351 1056.41 336.472 1060.05 336.54C1063.81 336.609 1066.92 335.423 1069.08 333.096C1071.23 330.779 1072.32 327.454 1072.28 323.453C1072.2 316.18 1067.37 310.789 1060.47 310.637L1048.33 323.909ZM1060.72 294L1060.72 294C1069.26 294.026 1076.45 297.08 1081.49 302.261C1086.54 307.444 1089.51 314.818 1089.51 323.589C1089.51 339.662 1077.53 351.563 1061.3 351.575C1052.32 351.581 1044.75 348.596 1039.43 343.542C1034.12 338.491 1030.99 331.318 1031 322.825C1031.01 306.025 1043.41 293.947 1060.72 294Z" fill="#363636" stroke="#5ED700" stroke-width="2"/>
<path d="M585.804 483.926L585.691 483.91C583.052 483.522 581.098 483.968 579.856 484.982C578.639 485.976 577.893 487.692 578.038 490.338L585.804 483.926ZM585.804 483.926L585.918 483.917M585.804 483.926L585.918 483.917M585.918 483.917C588.871 483.675 590.904 484.15 592.195 485.23C593.463 486.291 594.242 488.13 594.237 491.168V491.168M585.918 483.917L594.237 491.168M594.237 491.168C594.233 493.984 593.505 495.705 592.329 496.743M594.237 491.168L592.329 496.743M592.329 496.743C591.129 497.802 589.262 498.333 586.584 498.305M592.329 496.743L586.584 498.305M586.584 498.305C583.788 498.276 581.746 497.467 580.372 496.144M586.584 498.305L580.372 496.144M580.372 496.144C578.997 494.819 578.176 492.869 578.038 490.338L580.372 496.144Z" fill="#363636" stroke="#5ED700" stroke-width="2"/>
<path d="M509.321 106.518C508.749 106.013 508.196 105.469 507.66 104.93C507.492 104.762 507.327 104.594 507.163 104.428C506.657 103.916 506.166 103.419 505.665 102.946C504.323 101.681 503.092 100.777 501.819 100.502L509.321 106.518ZM509.321 106.518C508.66 109.993 507.892 112.476 506.659 114.087C505.444 115.675 503.687 116.521 500.657 116.387C498.32 116.284 496.468 115.787 495.195 114.782C493.968 113.813 493.134 112.254 493.062 109.669M509.321 106.518L501.819 100.502C499.559 100.016 497.368 100.933 495.705 102.717C494.036 104.507 492.991 107.087 493.062 109.669M493.062 109.669L492.063 109.697L493.062 109.669Z" fill="#363636" stroke="#5ED700" stroke-width="2"/>
<path d="M567.324 362.888L567.324 362.888C566.943 361.741 566.933 360.806 567.144 360.046C567.356 359.287 567.811 358.624 568.49 358.059C569.878 356.904 572.151 356.204 574.775 356.075L574.775 356.075C577.677 355.933 579.528 356.64 580.847 358.137C582.164 359.631 583.074 362.042 583.732 365.665C583.256 366.073 582.746 366.561 582.236 367.056C582.122 367.166 582.008 367.278 581.893 367.39C581.302 367.965 580.702 368.549 580.104 369.084C579.385 369.727 578.719 370.251 578.138 370.576C577.522 370.921 577.209 370.925 577.089 370.888C575.167 370.303 572.985 369.149 571.137 367.686C569.274 366.211 567.863 364.511 567.324 362.888Z" fill="#363636" stroke="#5ED700" stroke-width="2"/>
<path d="M935.261 323.607L935.261 323.607C937.378 323.359 939.511 323.813 941.067 325.001C942.586 326.161 943.672 328.109 943.582 331.127L943.582 331.127C943.506 333.716 942.961 335.663 941.881 336.967C940.836 338.228 939.155 339.047 936.416 339.1C933.768 338.995 931.762 338.214 930.558 336.985C929.388 335.792 928.835 334.031 929.37 331.604C929.71 330.061 930.663 328.07 931.864 326.426C932.461 325.609 933.095 324.911 933.71 324.409C934.339 323.896 934.868 323.653 935.261 323.607ZM935.145 322.614L935.145 322.613L935.145 322.614Z" fill="#363636" stroke="#5ED700" stroke-width="2"/>
<path d="M518.731 320.853L518.733 320.809C518.85 318.123 518.27 316.344 517.178 315.215C516.082 314.081 514.281 313.407 511.518 313.36M518.731 320.853L504.218 320.852C504.252 318.214 504.821 316.362 505.907 315.178C506.971 314.017 508.707 313.312 511.518 313.36M518.731 320.853L518.733 320.897M518.731 320.853L518.733 320.897M511.518 313.36L511.535 312.36M511.518 313.36L511.535 312.36M511.535 312.36C517.326 312.459 519.977 315.19 519.732 320.852L511.535 312.36ZM518.733 320.897C518.861 323.768 518.086 325.417 516.875 326.394M518.733 320.897L516.875 326.394M516.875 326.394C515.607 327.417 513.648 327.881 511.039 327.882M516.875 326.394L511.039 327.882M511.039 327.882C508.498 327.882 506.835 327.238 505.802 326.157M511.039 327.882L511.039 328.882L505.802 326.157M505.802 326.157C504.763 325.071 504.186 323.361 504.218 320.852L505.802 326.157Z" fill="#363636" stroke="#5ED700" stroke-width="2"/>
<path d="M579.733 187.862L579.739 187.792L579.736 187.722C577.922 150.584 592.606 122.083 617.077 98.7509C629.823 86.5986 645.435 77.223 663.387 73.8088C673.667 71.8535 684.082 70.4855 694.509 69.2379C697.552 68.8738 699.936 69.2738 701.534 70.4531C703.088 71.5996 704.12 73.6514 704.099 77.1285C704.079 80.4272 703.06 82.1448 701.574 83.1252C699.988 84.1715 697.668 84.5261 694.724 84.5815C652.141 85.3812 613.158 113.909 600.515 154.473C589.814 188.807 594.602 221.296 616.765 250.227C620.418 254.996 625.195 258.968 629.84 262.83C631.2 263.961 632.549 265.082 633.855 266.212C635.635 267.751 636.891 270.348 637.278 273.101C637.666 275.856 637.159 278.567 635.679 280.382L635.679 280.382C634 282.442 632.066 283.383 630.237 283.469C628.406 283.555 626.542 282.789 624.988 281.164C623.496 279.605 621.996 278.051 620.496 276.497C611.648 267.331 602.809 258.173 595.614 247.907C583.398 230.394 577.773 209.124 579.733 187.862Z" fill="#363636" stroke="#5ED700" stroke-width="2"/>
<path d="M659.69 291.961C662.281 291.978 664.292 292.44 665.646 293.47C666.945 294.458 667.81 296.101 667.831 298.911C667.851 301.607 667.143 303.372 665.742 304.533C664.288 305.738 661.902 306.453 658.203 306.581L658.172 306.582L658.141 306.585C656.591 306.734 655.47 306.125 654.658 304.936C653.804 303.686 653.284 301.768 653.189 299.394C653.092 296.989 653.521 295.144 654.49 293.918C655.426 292.735 657.016 291.943 659.69 291.961ZM659.69 291.961L659.696 290.961M659.69 291.961L659.696 290.961M659.696 290.961C665.041 290.996 668.786 292.846 668.831 298.904C668.873 304.659 665.785 307.32 658.237 307.58C654.354 307.954 652.389 304.375 652.189 299.434C651.987 294.406 653.934 290.923 659.696 290.961Z" fill="#363636" stroke="#5ED700" stroke-width="2"/>
<path d="M385.514 160C388.106 160.017 390.116 160.48 391.471 161.509C392.769 162.497 393.635 164.14 393.656 166.951C393.676 169.647 392.968 171.411 391.567 172.572C390.113 173.777 387.726 174.493 384.027 174.62L383.997 174.621L383.966 174.624C382.416 174.773 381.295 174.164 380.482 172.975C379.628 171.725 379.109 169.807 379.013 167.433C378.916 165.028 379.346 163.183 380.315 161.957C381.251 160.774 382.841 159.983 385.514 160ZM385.514 160L385.521 159M385.514 160L385.521 159M385.521 159C390.866 159.036 394.611 160.886 394.656 166.943C394.698 172.699 391.61 175.36 384.062 175.62C380.179 175.993 378.214 172.414 378.014 167.473C377.812 162.446 379.759 158.962 385.521 159Z" fill="#363636" stroke="#5ED700" stroke-width="2"/>
<path d="M279.514 356C282.106 356.017 284.116 356.48 285.471 357.509C286.769 358.497 287.635 360.14 287.656 362.951C287.676 365.647 286.968 367.411 285.567 368.572C284.113 369.777 281.726 370.493 278.027 370.62L277.997 370.621L277.966 370.624C276.416 370.773 275.295 370.164 274.482 368.975C273.628 367.725 273.109 365.807 273.013 363.433C272.916 361.028 273.346 359.183 274.315 357.957C275.251 356.774 276.841 355.983 279.514 356ZM279.514 356L279.521 355M279.514 356L279.521 355M279.521 355C284.866 355.036 288.611 356.886 288.656 362.943C288.698 368.699 285.61 371.36 278.062 371.62C274.179 371.993 272.214 368.414 272.014 363.473C271.812 358.446 273.759 354.962 279.521 355Z" fill="#363636" stroke="#5ED700" stroke-width="2"/>
<path d="M899.475 146.566L898.71 146.777L898.742 147.571C900.765 196.885 845.665 229.673 802.331 205.6C780.379 193.405 770.488 174.74 767.088 151.339L766.098 151.483L767.088 151.339C766.477 147.14 767.052 144.642 768.38 143.157C769.719 141.66 772.075 140.907 775.756 140.842C779.41 140.779 781.538 141.742 782.763 143.296C784.027 144.899 784.527 147.366 784.358 150.738C783.64 165.044 792.615 179.612 805.754 188.549C818.925 197.507 836.462 200.937 853.019 192.727C876.222 181.222 888.169 158.059 880.874 133.304C876.018 116.821 864.449 105.164 847.405 100.198L847.395 100.195C842.401 98.7955 837.312 97.764 832.167 97.1093C829.626 96.7604 827.963 95.9697 826.964 94.8004C825.973 93.6418 825.485 91.9352 825.679 89.4172C825.865 86.9957 826.525 85.3452 827.631 84.2393C828.739 83.1313 830.439 82.4272 833.007 82.2033L832.92 81.2071L833.007 82.2033C844.38 81.2113 857.032 84.5802 868.007 91.1147C878.98 97.648 888.193 107.295 892.764 118.761L893.693 118.391L892.764 118.761C895.243 124.98 896.843 131.5 898.462 138.097C899.129 140.815 899.799 143.545 900.535 146.273L899.475 146.566Z" fill="#363636" stroke="#5ED700" stroke-width="2"/>
<path d="M833.949 114.954H834.036L834.121 114.939C843.134 113.362 851.607 117.068 857.688 123.442C863.775 129.824 867.378 138.797 866.681 147.563C865.112 167.306 852.619 181.506 834.041 181.789C829.516 181.857 825.023 181.022 820.824 179.334C816.625 177.645 812.805 175.137 809.587 171.955C806.368 168.773 803.817 164.982 802.08 160.803C800.345 156.626 799.459 152.145 799.474 147.622C799.663 137.541 803.033 129.401 808.917 123.779C814.806 118.154 823.312 114.954 833.949 114.954ZM833.074 164.395C837.739 164.401 842.254 162.486 845.626 159.565C848.992 156.649 851.308 152.645 851.403 148.404C851.51 143.647 849.127 138.894 845.639 135.37C842.151 131.846 837.424 129.415 832.668 129.475C828.481 129.528 824.507 131.823 821.6 135.172C818.687 138.527 816.756 143.037 816.715 147.706C816.669 152.98 818.026 157.189 820.857 160.08C823.691 162.972 827.848 164.388 833.074 164.395Z" fill="#363636" stroke="#5ED700" stroke-width="2"/>
<path d="M262.514 74.0003C265.106 74.0174 267.116 74.4797 268.471 75.5095C269.769 76.497 270.635 78.1404 270.656 80.9507C270.676 83.6466 269.968 85.4113 268.567 86.5722C267.113 87.777 264.726 88.4928 261.027 88.6202L260.997 88.6213L260.966 88.6242C259.416 88.7733 258.295 88.1643 257.482 86.975C256.628 85.7253 256.109 83.8069 256.013 81.4331C255.916 79.0281 256.346 77.183 257.315 75.9575C258.251 74.7738 259.841 73.9827 262.514 74.0003ZM262.514 74.0003L262.521 73.0003M262.514 74.0003L262.521 73.0003M262.521 73.0003C267.866 73.0356 271.611 74.8857 271.656 80.9434C271.698 86.6985 268.61 89.3596 261.062 89.6196C257.179 89.993 255.214 86.4139 255.014 81.4734C254.812 76.4456 256.759 72.9624 262.521 73.0003Z" fill="#363636" stroke="#5ED700" stroke-width="2"/>
<path d="M1157.51 233C1160.11 233.017 1162.12 233.48 1163.47 234.509C1164.77 235.497 1165.64 237.14 1165.66 239.951C1165.68 242.647 1164.97 244.411 1163.57 245.572C1162.11 246.777 1159.73 247.493 1156.03 247.62L1156 247.621L1155.97 247.624C1154.42 247.773 1153.3 247.164 1152.48 245.975C1151.63 244.725 1151.11 242.807 1151.01 240.433C1150.92 238.028 1151.35 236.183 1152.32 234.957C1153.25 233.774 1154.84 232.983 1157.51 233ZM1157.51 233L1157.52 232M1157.51 233L1157.52 232M1157.52 232C1162.87 232.036 1166.61 233.886 1166.66 239.943C1166.7 245.699 1163.61 248.36 1156.06 248.62C1152.18 248.993 1150.21 245.414 1150.01 240.473C1149.81 235.446 1151.76 231.962 1157.52 232Z" fill="#363636" stroke="#5ED700" stroke-width="2"/>
<path d="M451.262 370.146C450.691 369.641 450.137 369.097 449.602 368.558C449.434 368.39 449.268 368.222 449.104 368.056C448.598 367.544 448.107 367.046 447.606 366.574C446.264 365.309 445.034 364.405 443.76 364.13L451.262 370.146ZM451.262 370.146C450.601 373.621 449.833 376.104 448.601 377.714C447.385 379.303 445.629 380.149 442.599 380.015C440.261 379.912 438.409 379.415 437.136 378.41C435.909 377.441 435.075 375.882 435.003 373.297M451.262 370.146L443.76 364.13C441.501 363.643 439.309 364.561 437.646 366.345C435.977 368.135 434.932 370.715 435.003 373.297M435.003 373.297L434.004 373.325L435.003 373.297Z" fill="#363636" stroke="#5ED700" stroke-width="2"/>
<path d="M1077.26 97.1461C1076.69 96.6407 1076.14 96.0967 1075.6 95.5584C1075.43 95.3895 1075.27 95.2218 1075.1 95.0556C1074.6 94.5438 1074.11 94.0465 1073.61 93.5741C1072.26 92.3088 1071.03 91.4046 1069.76 91.1302L1077.26 97.1461ZM1077.26 97.1461C1076.6 100.621 1075.83 103.104 1074.6 104.714C1073.39 106.303 1071.63 107.149 1068.6 107.015C1066.26 106.912 1064.41 106.415 1063.14 105.41C1061.91 104.441 1061.07 102.882 1061 100.297M1077.26 97.1461L1069.76 91.1302C1067.5 90.6435 1065.31 91.5611 1063.65 93.3449C1061.98 95.1346 1060.93 97.7148 1061 100.297M1061 100.297L1060 100.325L1061 100.297Z" fill="#363636" stroke="#5ED700" stroke-width="2"/>
<path d="M1149.26 426.146C1148.69 425.641 1148.14 425.097 1147.6 424.558C1147.43 424.39 1147.27 424.222 1147.1 424.056C1146.6 423.544 1146.11 423.046 1145.61 422.574C1144.26 421.309 1143.03 420.405 1141.76 420.13L1149.26 426.146ZM1149.26 426.146C1148.6 429.621 1147.83 432.104 1146.6 433.714C1145.39 435.303 1143.63 436.149 1140.6 436.015C1138.26 435.912 1136.41 435.415 1135.14 434.41C1133.91 433.441 1133.07 431.882 1133 429.297M1149.26 426.146L1141.76 420.13C1139.5 419.643 1137.31 420.561 1135.65 422.345C1133.98 424.135 1132.93 426.715 1133 429.297M1133 429.297L1132 429.325L1133 429.297Z" fill="#363636" stroke="#5ED700" stroke-width="2"/>
<path d="M151.262 405.146C150.691 404.641 150.137 404.097 149.602 403.558C149.434 403.39 149.268 403.222 149.104 403.056C148.598 402.544 148.107 402.046 147.606 401.574C146.264 400.309 145.034 399.405 143.76 399.13L151.262 405.146ZM151.262 405.146C150.601 408.621 149.833 411.104 148.601 412.714C147.385 414.303 145.629 415.149 142.599 415.015C140.261 414.912 138.409 414.415 137.136 413.41C135.909 412.441 135.075 410.882 135.003 408.297M151.262 405.146L143.76 399.13C141.501 398.643 139.309 399.561 137.646 401.345C135.977 403.135 134.932 405.715 135.003 408.297M135.003 408.297L134.004 408.325L135.003 408.297Z" fill="#363636" stroke="#5ED700" stroke-width="2"/>
<path d="M21.2619 157.146C20.6905 156.641 20.1372 156.097 19.6017 155.558C19.4336 155.39 19.268 155.222 19.1038 155.056C18.5981 154.544 18.1068 154.046 17.6058 153.574C16.264 152.309 15.0336 151.405 13.7601 151.13L21.2619 157.146ZM21.2619 157.146C20.6011 160.621 19.833 163.104 18.6007 164.714C17.3853 166.303 15.6285 167.149 12.5985 167.015C10.261 166.912 8.40908 166.415 7.13639 165.41C5.90913 164.441 5.07472 162.882 5.00342 160.297M21.2619 157.146L13.7601 151.13C11.5006 150.643 9.30875 151.561 7.64572 153.345C5.97708 155.135 4.93226 157.715 5.00342 160.297M5.00342 160.297L4.0038 160.325L5.00342 160.297Z" fill="#363636" stroke="#5ED700" stroke-width="2"/>
</g>
<defs>
<filter id="filter0_f" x="0" y="0" width="1170.66" height="515" filterUnits="userSpaceOnUse" color-interpolation-filters="sRGB">
<feFlood flood-opacity="0" result="BackgroundImageFix"/>
<feBlend mode="normal" in="SourceGraphic" in2="BackgroundImageFix" result="shape"/>
<feGaussianBlur stdDeviation="2" result="effect1_foregroundBlur"/>
</filter>
</defs>
</svg>
