<svg width="125" height="55" viewBox="0 0 125 55" fill="none" xmlns="http://www.w3.org/2000/svg">
<g filter="url(#filter0_d)">
<rect x="4" width="121" height="47" fill="#5CCD03"/>
<path d="M56.1816 28.6201H62.2461V30H54.4854V17.2031H56.1816V28.6201ZM63.4854 25.1572C63.4854 24.2256 63.667 23.3877 64.0303 22.6436C64.3994 21.8994 64.9092 21.3252 65.5596 20.9209C66.2158 20.5166 66.9629 20.3145 67.8008 20.3145C69.0957 20.3145 70.1416 20.7627 70.9385 21.6592C71.7412 22.5557 72.1426 23.748 72.1426 25.2363V25.3506C72.1426 26.2764 71.9639 27.1084 71.6064 27.8467C71.2549 28.5791 70.748 29.1504 70.0859 29.5605C69.4297 29.9707 68.6738 30.1758 67.8184 30.1758C66.5293 30.1758 65.4834 29.7275 64.6807 28.8311C63.8838 27.9346 63.4854 26.748 63.4854 25.2715V25.1572ZM65.1201 25.3506C65.1201 26.4053 65.3633 27.252 65.8496 27.8906C66.3418 28.5293 66.998 28.8486 67.8184 28.8486C68.6445 28.8486 69.3008 28.5264 69.7871 27.8818C70.2734 27.2314 70.5166 26.3232 70.5166 25.1572C70.5166 24.1143 70.2676 23.2705 69.7695 22.626C69.2773 21.9756 68.6211 21.6504 67.8008 21.6504C66.998 21.6504 66.3506 21.9697 65.8584 22.6084C65.3662 23.2471 65.1201 24.1611 65.1201 25.3506ZM73.7949 25.166C73.7949 23.6836 74.1377 22.5059 74.8232 21.6328C75.5088 20.7539 76.417 20.3145 77.5479 20.3145C78.708 20.3145 79.6133 20.7246 80.2637 21.5449L80.3428 20.4902H81.8281V29.7715C81.8281 31.002 81.4619 31.9717 80.7295 32.6807C80.0029 33.3896 79.0244 33.7441 77.7939 33.7441C77.1084 33.7441 76.4375 33.5977 75.7812 33.3047C75.125 33.0117 74.624 32.6104 74.2783 32.1006L75.1221 31.125C75.8193 31.9863 76.6719 32.417 77.6797 32.417C78.4707 32.417 79.0859 32.1943 79.5254 31.749C79.9707 31.3037 80.1934 30.6768 80.1934 29.8682V29.0508C79.543 29.8008 78.6553 30.1758 77.5303 30.1758C76.417 30.1758 75.5146 29.7275 74.8232 28.8311C74.1377 27.9346 73.7949 26.7129 73.7949 25.166ZM75.4297 25.3506C75.4297 26.4229 75.6494 27.2666 76.0889 27.8818C76.5283 28.4912 77.1436 28.7959 77.9346 28.7959C78.96 28.7959 79.7129 28.3301 80.1934 27.3984V23.0566C79.6953 22.1484 78.9482 21.6943 77.9521 21.6943C77.1611 21.6943 76.543 22.002 76.0977 22.6172C75.6523 23.2324 75.4297 24.1436 75.4297 25.3506ZM86.0557 30H84.4297V20.4902H86.0557V30ZM84.2979 17.9678C84.2979 17.7041 84.377 17.4814 84.5352 17.2998C84.6992 17.1182 84.9395 17.0273 85.2559 17.0273C85.5723 17.0273 85.8125 17.1182 85.9766 17.2998C86.1406 17.4814 86.2227 17.7041 86.2227 17.9678C86.2227 18.2314 86.1406 18.4512 85.9766 18.627C85.8125 18.8027 85.5723 18.8906 85.2559 18.8906C84.9395 18.8906 84.6992 18.8027 84.5352 18.627C84.377 18.4512 84.2979 18.2314 84.2979 17.9678ZM90.2041 20.4902L90.2568 21.6855C90.9834 20.7715 91.9326 20.3145 93.1045 20.3145C95.1143 20.3145 96.1279 21.4482 96.1455 23.7158V30H94.5195V23.707C94.5137 23.0215 94.3555 22.5146 94.0449 22.1865C93.7402 21.8584 93.2627 21.6943 92.6123 21.6943C92.085 21.6943 91.6221 21.835 91.2236 22.1162C90.8252 22.3975 90.5146 22.7666 90.292 23.2236V30H88.666V20.4902H90.2041Z" fill="white"/>
</g>
<defs>
<filter id="filter0_d" x="0" y="0" width="129" height="55" filterUnits="userSpaceOnUse" color-interpolation-filters="sRGB">
<feFlood flood-opacity="0" result="BackgroundImageFix"/>
<feColorMatrix in="SourceAlpha" type="matrix" values="0 0 0 0 0 0 0 0 0 0 0 0 0 0 0 0 0 0 127 0"/>
<feOffset dy="4"/>
<feGaussianBlur stdDeviation="2"/>
<feColorMatrix type="matrix" values="0 0 0 0 0 0 0 0 0 0 0 0 0 0 0 0 0 0 0.25 0"/>
<feBlend mode="normal" in2="BackgroundImageFix" result="effect1_dropShadow"/>
<feBlend mode="normal" in="SourceGraphic" in2="effect1_dropShadow" result="shape"/>
</filter>
</defs>
</svg>
