<svg width="842" height="903" viewBox="0 0 842 903" fill="none" xmlns="http://www.w3.org/2000/svg">
<g clip-path="url(#clip0)">
<path d="M239.308 754.976C239.23 755.132 239.125 755.236 239.047 755.393C239.673 755.549 240.272 755.758 240.898 755.888L239.308 754.976Z" fill="#5ED700"/>
<path d="M234.923 160.051L234.932 160.051L234.942 160.05C236.514 159.982 237.771 160.356 239.255 160.797C239.75 160.944 240.271 161.099 240.837 161.248C241.824 161.506 242.862 161.706 243.988 161.719C243.237 162.357 242.409 162.974 241.531 163.619C236.977 166.857 232.606 169.943 227.579 171.115C222.653 172.238 217.202 171.007 214.492 167.344C217.18 166.56 218.861 165.168 220.299 163.789C220.536 163.563 220.762 163.342 220.981 163.127C222.387 161.752 223.525 160.638 225.472 159.974C226.937 159.493 227.818 159.295 228.406 159.233C228.938 159.177 229.24 159.23 229.575 159.323C229.656 159.345 229.765 159.379 229.895 159.42C230.263 159.535 230.806 159.705 231.39 159.821C232.255 159.994 233.352 160.1 234.923 160.051Z" stroke="#5ED700" stroke-width="3"/>
<path d="M294.925 539.153L294.926 539.143C295.062 535.872 293.501 533.302 290.786 530.96C288.058 528.607 284.356 526.65 280.475 524.598L280.333 524.523C276.491 522.491 272.462 520.352 269.55 517.691C266.929 515.297 265.087 512.365 265.088 508.622C257.017 507.974 248.905 507.398 240.814 506.823C238.815 506.681 236.817 506.539 234.821 506.396L233.73 506.318L233.471 505.255C232.185 499.986 227.421 496.317 221.886 495.117C216.749 494.003 211.354 495.103 207.956 498.643C207.706 499.029 207.388 499.394 206.992 499.732L204.837 497.666C205.05 497.395 205.269 497.134 205.496 496.883C205.865 496.167 205.796 495.162 205.106 494.007C204.215 492.517 202.632 491.479 201.153 491.514L201.135 491.515H201.117C199.411 491.515 197.804 492.191 196.213 493.33C194.611 494.477 193.126 496.02 191.669 497.62L190.308 499.114L189.272 497.379C187.192 493.895 188.638 489.934 191.024 487.474C192.995 485.443 196.012 484.018 199.001 484.68C199.923 479.525 200.602 474.141 200.291 469.106C199.946 463.512 198.388 458.49 194.72 454.691C190.104 449.945 183.471 448.448 176.167 447.013C175.839 446.949 175.509 446.885 175.178 446.82C168.341 445.486 161 444.053 155.451 439.37C152.863 437.255 150.92 434.606 149.162 431.984C148.747 431.366 148.345 430.753 147.947 430.148C146.621 428.126 145.346 426.184 143.845 424.403C136.192 415.407 123.959 411.82 111.908 408.512C107.977 407.449 104.302 406.604 101.042 407.818L101.035 407.821L101.029 407.823C99.4717 408.386 98.1161 409.406 96.7361 410.695C96.1043 411.286 95.4899 411.91 94.8487 412.562L94.6699 412.744C93.9732 413.451 93.2442 414.186 92.4773 414.878L92.4713 414.883L92.4653 414.888C87.1157 419.61 79.9455 422.111 72.8285 421.769C72.9718 422.398 73.1248 423.014 73.3082 423.638L70.5901 424.845C66.4353 418.063 63.787 410.284 63.4883 402.277C63.4424 401.267 63.4198 400.267 63.3973 399.278C63.3463 397.028 63.2966 394.838 62.979 392.725C62.5328 389.755 61.5914 387.297 59.5898 385.559C59.2266 385.263 58.8225 384.986 58.3716 384.69C58.2526 384.612 58.1274 384.531 57.9986 384.447C57.6554 384.225 57.2865 383.986 56.9402 383.744C55.9725 383.069 54.9172 382.2 54.2275 380.895C53.1079 378.82 53.3928 376.478 53.6743 374.708C54.5652 367.774 55.4707 360.897 56.3795 353.994C56.6506 351.936 56.9219 349.875 57.1932 347.81C56.5178 347.511 55.8813 347.502 55.2621 347.673C54.3496 347.925 53.3457 348.609 52.3465 349.717C50.3465 351.935 48.764 355.409 48.2446 358.407C47.6831 361.89 45.9572 365.921 43.5887 368.643C42.4016 370.007 40.9562 371.153 39.2998 371.641C37.5694 372.15 35.7513 371.896 34.0444 370.703L33.3049 370.186L33.415 369.29C36.3563 345.366 43.5513 322.023 54.4474 300.572L56.8135 295.914L57.2788 301.118C57.373 302.171 58.0365 303.154 59.0496 303.791C59.6103 304.143 60.2287 304.358 60.8408 304.42C60.3013 301.429 61.4301 298.56 63.2573 296.254C65.4482 293.488 68.7765 291.323 72.1075 290.302C74.2821 289.636 76.6185 289.196 78.8518 288.775C79.8449 288.588 80.8176 288.404 81.7466 288.207C84.8655 287.543 87.6869 286.693 90.0667 285.032L90.0758 285.026C93.3676 282.764 95.4534 279.241 97.6493 275.283C97.7734 275.059 97.8979 274.834 98.0231 274.608C100.05 270.942 102.247 266.967 105.684 264.099L105.687 264.096C106.74 263.223 107.911 262.421 109.018 261.664L109.062 261.633C110.175 260.872 111.224 260.155 112.159 259.393C114.055 257.846 115.198 256.341 115.313 254.447C115.338 253.393 115.028 252.334 114.566 251.079C114.49 250.871 114.408 250.655 114.323 250.431C113.926 249.386 113.469 248.183 113.25 246.96C112.636 243.675 113.715 240.587 115.517 238.031C117.317 235.479 119.903 233.355 122.554 231.898L122.57 231.889L122.587 231.881C124.757 230.756 127.056 229.876 129.255 229.034C129.724 228.854 130.189 228.676 130.647 228.498C133.297 227.466 135.773 226.409 137.967 224.91L137.978 224.902L137.99 224.894C141.603 222.522 144.293 219.169 146.687 215.331C147.884 213.412 148.993 211.395 150.108 209.334C150.265 209.045 150.421 208.754 150.578 208.463C151.534 206.693 152.503 204.897 153.524 203.155M294.925 539.153L154.819 203.911M294.925 539.153L294.925 539.164C294.841 542.1 293.245 544.72 291.458 547.654C291.306 547.904 291.152 548.155 290.999 548.409M294.925 539.153L290.999 548.409M153.524 203.155C153.525 203.154 153.525 203.153 153.525 203.153L154.819 203.911M153.524 203.155C153.524 203.155 153.524 203.156 153.523 203.157L154.819 203.911M153.524 203.155C155.891 199.09 159.04 194.964 162.843 191.936C166.655 188.901 171.213 186.904 176.318 187.323L177.654 187.432L177.695 188.772C177.747 190.456 177.818 192.142 177.89 193.838V193.838C177.942 195.072 177.995 196.311 178.039 197.553M154.819 203.911C159.434 195.987 166.967 188.062 176.196 188.818C176.248 190.512 176.32 192.207 176.391 193.902C176.463 195.596 176.535 197.29 176.587 198.984M178.039 197.553C177.593 197.544 177.147 197.523 176.702 197.489L176.587 198.984M178.039 197.553C187.72 197.736 197.342 191.927 201.671 183.322M178.039 197.553C178.056 198.014 178.072 198.476 178.086 198.938L176.587 198.984M176.587 198.984C187.796 199.845 199.188 192.963 203.62 182.692M290.999 548.409C282.506 562.274 277.348 578.329 276.211 594.602C276.072 596.496 275.962 598.423 275.85 600.361C275.503 606.415 275.148 612.584 273.927 618.232C272.326 625.638 269.303 631.762 263.156 635.239C260.418 636.76 257.302 637.587 254.012 638.459C252.952 638.74 251.874 639.026 250.784 639.342C246.47 640.591 242.072 642.306 239.213 646.33C237.546 648.602 236.722 651.406 236.021 653.787C235.977 653.939 235.932 654.09 235.888 654.238L235.884 654.253L235.88 654.267C234.24 660.243 232.593 666.219 230.946 672.196L230.941 672.214L230.921 672.283C229.39 677.841 227.858 683.398 226.332 688.956C222.503 688.611 218.622 688.19 214.813 687.766L214.193 690.687C216.225 691.332 218.046 693.084 219.018 695.235C219.794 696.952 219.965 698.766 219.409 700.336C216.907 699.504 214.232 699.791 211.865 700.768C209.051 701.93 206.543 704.113 205.044 706.833L205.037 706.845L205.03 706.858C202.243 712.146 202.705 718.434 204.152 723.871L204.154 723.879L204.156 723.887C208.437 739.267 221.121 751.786 236.334 756.316C235.273 756.968 233.82 757.184 232.026 756.979C229.244 756.66 226.101 755.338 223.701 753.709L223.699 753.707C187.517 729.241 160.199 691.964 147.733 650.091C146.777 646.882 145.896 643.629 145.008 640.352C144.873 639.851 144.737 639.35 144.601 638.848C143.575 635.071 142.526 631.271 141.341 627.53C138.973 620.052 136.041 612.745 131.587 606.176C127.888 600.654 123.26 595.886 118.742 591.232L118.696 591.185C114.133 586.484 109.684 581.896 106.149 576.621C101.654 569.75 98.8066 561.948 95.901 553.987C95.5971 553.154 95.2927 552.32 94.9856 551.485C91.7697 542.739 88.2762 533.925 82.205 526.602C81.3758 525.583 80.508 524.554 79.6325 523.516C76.9243 520.305 74.1435 517.007 72.2076 513.647C69.6701 509.241 68.9022 505.27 71.3411 501.644L71.3456 501.637L71.3501 501.631C71.8729 500.835 72.561 500.025 73.3334 499.141C73.4175 499.045 73.5027 498.947 73.5887 498.849C74.267 498.075 74.9958 497.244 75.6133 496.403C76.9798 494.542 78.2123 492.074 76.7952 489.37L76.7909 489.362C76.3316 488.499 75.6638 487.857 75.0847 487.354C74.8501 487.15 74.6412 486.977 74.4474 486.816C74.1108 486.538 73.8203 486.297 73.5221 486.001C72.0003 484.355 71.6729 482.183 72.0749 479.528C72.4421 477.103 73.3752 474.543 74.2972 472.014C74.4016 471.727 74.5058 471.441 74.6091 471.156L74.6129 471.146L74.6165 471.135C78.0085 461.309 77.9857 450.878 76.5614 440.591L76.4859 440.046L76.0758 439.679C66.3374 430.966 58.656 420.158 53.8441 408.028C52.3934 404.284 50.6334 399.878 48.1645 396.398C45.8693 393.162 42.8111 390.522 38.6412 390.089C37.7044 387.476 36.7541 384.864 35.8051 382.255L35.8041 382.253C34.7419 379.333 33.6814 376.419 32.6408 373.505L31.2387 369.579L29.818 373.498C29.4874 374.41 28.7602 375.166 27.7867 375.653C34.4413 281.518 72.5652 196.114 131.662 129.788C132.87 129.242 134.048 128.571 135.17 127.932C135.268 127.876 135.365 127.821 135.462 127.766L135.469 127.761L135.477 127.757C142.701 123.542 149.167 118.286 155.487 113.012C156.093 112.506 156.697 112.001 157.3 111.496C163.022 106.709 168.67 101.983 174.805 97.9441L174.812 97.9393C177.631 96.0597 180.431 94.5686 183.339 94.8724L183.354 94.8739L183.368 94.8752C184.622 94.9812 185.911 95.6969 186.752 96.7186C187.585 97.7313 187.832 98.8413 187.464 99.8054L187.457 99.8234L187.451 99.8416C187.139 100.724 186.336 101.541 185.246 102.334L185.199 102.368L185.156 102.405C169.159 116.017 151.632 127.918 132.992 137.771C130.817 138.858 127.958 140.384 126.69 143.184C125.473 145.675 125.951 148.369 127.194 150.523C128.437 152.677 130.534 154.474 132.924 155.302L290.999 548.409ZM31.2282 374.009C31.4575 374.651 31.6879 375.294 31.9189 375.936C32.209 375.506 32.4523 375.034 32.6384 374.52L31.2282 374.009ZM31.2282 374.009C31.0018 374.634 30.6586 375.188 30.228 375.666C30.0902 375.282 29.9527 374.898 29.8155 374.514L31.2282 374.009ZM210.737 118.719C211.227 118.596 211.717 118.472 212.208 118.349C212.215 118.425 212.223 118.501 212.23 118.578L210.737 118.719ZM210.737 118.719C210.689 118.216 210.639 117.713 210.588 117.21C210.515 117.228 210.443 117.246 210.371 117.265L210.737 118.719ZM209.798 161.185L210.456 162.549C210.388 162.571 210.321 162.593 210.254 162.614L209.798 161.185ZM209.798 161.185C210.278 161.032 210.756 160.872 211.232 160.705L211.149 160.534L209.798 161.185ZM211.397 164.977H211.342L211.271 164.984C210.847 165.025 210.42 165.041 209.99 165.037L210.707 166.525C210.943 166.516 211.179 166.5 211.414 166.477C211.701 166.477 211.988 166.373 212.249 166.268L211.595 164.913C211.528 164.939 211.479 164.956 211.438 164.967C211.418 164.973 211.404 164.976 211.397 164.977ZM211.397 164.977C211.393 164.978 211.391 164.978 211.391 164.978C211.391 164.978 211.4 164.977 211.414 164.977H211.397ZM190.028 161.705C190.028 161.705 190.028 161.705 190.028 161.705L190.221 163.192L190.028 161.705ZM190.028 161.705C189.537 161.768 189.011 161.826 188.461 161.886C186.699 162.08 184.702 162.3 182.889 162.815C180.427 163.515 178.027 164.819 176.49 167.52M190.028 161.705L177.786 168.276M177.786 168.276L176.52 167.47C176.51 167.487 176.5 167.503 176.49 167.52M177.786 168.276L176.481 167.536C176.484 167.531 176.487 167.525 176.49 167.52M177.786 168.276C177.539 168.664 176.732 172.402 176.582 174.58C176.457 174.651 176.332 174.723 176.207 174.794C176.283 174.751 176.411 174.693 176.577 174.659C176.559 174.944 176.553 175.2 176.562 175.415C176.562 175.419 176.562 175.423 176.562 175.427C176.586 175.96 176.701 176.242 176.952 176.096M176.49 167.52C176.384 167.699 176.319 167.882 176.289 167.967C176.243 168.097 176.199 168.244 176.156 168.395C176.07 168.7 175.976 169.081 175.881 169.501C175.691 170.344 175.486 171.399 175.329 172.417C175.175 173.414 175.054 174.455 175.058 175.236C175.059 175.576 175.08 176.091 175.262 176.537C175.352 176.757 175.592 177.238 176.162 177.492C176.805 177.778 177.385 177.577 177.697 177.398M177.697 177.398L176.952 176.096M177.697 177.398C181.112 175.443 184.507 173.489 187.865 171.552M177.697 177.398C177.7 177.396 177.703 177.395 177.706 177.393L176.952 176.096M176.952 176.096C177.322 175.885 177.691 175.673 178.061 175.461C178.067 175.481 178.07 175.492 178.071 175.492C178.071 175.491 178.07 175.481 178.067 175.457C181.206 173.659 184.326 171.862 187.416 170.079C187.588 170.562 187.738 171.053 187.865 171.552M187.865 171.552C188.314 171.293 188.763 171.034 189.21 170.776L189.569 179.589M187.865 171.552C188.5 174.031 188.584 176.691 188.094 179.314L187.728 181.277L189.715 181.082C193.772 180.685 197.98 181.425 201.671 183.322M201.671 183.322C201.873 182.92 202.064 182.512 202.243 182.097L203.62 182.692M201.671 183.322C202.069 183.527 202.461 183.745 202.847 183.977L203.62 182.692M203.62 182.692C199.824 180.409 195.425 179.355 191.11 179.49C191.089 179.615 191.067 179.74 191.044 179.865L189.569 179.589M189.569 179.589L189.423 178.097C189.546 178.084 189.67 178.073 189.794 178.063C189.739 178.573 189.664 179.082 189.569 179.589ZM142.263 172.438L141.968 171.481C140.376 166.313 140.85 160.534 143.164 155.662C139.856 156.238 136.268 156.467 132.925 155.303L142.263 172.438ZM142.263 172.438L143.26 172.532M142.263 172.438L143.26 172.532M143.26 172.532C146.098 172.801 147.82 170.897 148.854 168.977C149.707 167.394 150.3 165.429 150.787 163.816C150.882 163.501 150.974 163.198 151.062 162.915C152.134 159.584 154.289 156.675 157.025 153.908C159.168 151.741 161.587 149.736 164.045 147.699C164.747 147.117 165.452 146.533 166.154 145.942C171.731 141.248 177.302 136.023 177.645 128.683C180.746 129.331 183.715 128.07 186.207 126.181C189.29 123.842 191.971 120.324 193.934 117.26L193.94 117.251M143.26 172.532L193.94 117.251M193.94 117.251C195.748 114.38 198.663 111.552 201.593 110.094C203.052 109.369 204.42 109.029 205.603 109.103C206.609 109.165 207.543 109.527 208.376 110.327C208.515 111.852 208.68 113.414 208.845 114.965C208.984 116.281 209.123 117.589 209.243 118.861L209.408 120.6M193.94 117.251L209.408 120.6M209.408 120.6L211.103 120.174M209.408 120.6L211.103 120.174M211.103 120.174C215.25 119.131 219.423 118.068 223.594 117.005L223.598 117.004C226.161 116.352 228.724 115.699 231.28 115.051C228.889 119.084 228.57 124.388 230.789 128.549L230.792 128.554L211.103 120.174ZM245.47 133.859C245.416 134.402 245.288 134.934 245.095 135.458L245.47 133.859ZM245.47 133.859C245.988 133.743 246.499 133.59 246.998 133.396L245.47 133.859ZM232.639 113.159C233.664 112.9 234.688 112.642 235.71 112.385C234.865 112.978 234.119 113.692 233.481 114.494L232.639 113.159Z" stroke="#5ED700" stroke-width="3"/>
<mask id="path-4-inside-1" fill="white">
<path d="M232.217 103.365C228.151 105.372 222.546 103.104 221.034 98.8287C219.496 94.5534 222.389 89.2615 226.821 88.2448C229.61 87.5931 233.495 87.9059 234.355 85.1687C234.616 84.3345 234.459 83.4221 234.459 82.5619C234.355 77.4003 238.969 73.125 243.948 71.8216C248.927 70.5442 254.193 71.5348 259.25 72.5254C261.049 76.2533 261.571 80.5806 260.71 84.6213C257.243 84.7777 253.776 84.908 250.309 85.0644C250.622 90.8256 250.048 98.0727 244.704 100.21C239.908 102.113 233.651 98.568 229.663 101.801"/>
</mask>
<path d="M221.034 98.8287L223.862 97.8284L223.859 97.8208L223.857 97.8131L221.034 98.8287ZM226.821 88.2448L227.492 91.1689L227.504 91.1661L226.821 88.2448ZM234.355 85.1687L237.217 86.0682L237.218 86.0635L234.355 85.1687ZM234.459 82.5619H237.459V82.5316L237.459 82.5013L234.459 82.5619ZM243.948 71.8216L243.203 68.9157L243.196 68.9175L243.188 68.9194L243.948 71.8216ZM259.25 72.5254L261.952 71.2217L261.3 69.8699L259.827 69.5814L259.25 72.5254ZM260.71 84.6213L260.846 87.6182L263.162 87.5137L263.645 85.246L260.71 84.6213ZM250.309 85.0644L250.174 82.0675L247.149 82.2039L247.313 85.2271L250.309 85.0644ZM244.704 100.21L245.811 102.999L245.818 102.996L244.704 100.21ZM230.889 100.674C229.753 101.235 228.243 101.26 226.794 100.672C225.345 100.085 224.283 99.0188 223.862 97.8284L218.206 99.8289C219.297 102.914 221.793 105.119 224.541 106.233C227.289 107.347 230.615 107.501 233.545 106.055L230.889 100.674ZM223.857 97.8131C223.426 96.6169 223.574 95.1194 224.321 93.7541C225.068 92.3888 226.25 91.4539 227.492 91.1689L226.15 85.3208C222.961 86.0524 220.48 88.2718 219.057 90.8755C217.633 93.4791 217.103 96.7652 218.211 99.8442L223.857 97.8131ZM227.504 91.1661C228.036 91.0417 228.651 90.957 229.46 90.8466C230.205 90.7449 231.13 90.6193 232.017 90.4047C233.73 89.9902 236.296 88.9978 237.217 86.0682L231.493 84.2692C231.487 84.2874 231.491 84.2699 231.512 84.2422C231.531 84.2174 231.537 84.2201 231.5 84.2453C231.401 84.3139 231.149 84.4416 230.606 84.573C230.065 84.7038 229.443 84.7932 228.648 84.9017C227.917 85.0015 227.001 85.1221 226.139 85.3235L227.504 91.1661ZM237.218 86.0635C237.488 85.1995 237.513 84.393 237.504 83.8306C237.5 83.5491 237.486 83.2707 237.476 83.0702C237.465 82.8478 237.459 82.6959 237.459 82.5619H231.459C231.459 82.858 231.473 83.1427 231.483 83.3593C231.495 83.598 231.503 83.7611 231.505 83.9195C231.51 84.237 231.482 84.3037 231.491 84.2739L237.218 86.0635ZM237.459 82.5013C237.393 79.2322 240.51 75.8228 244.708 74.7238L243.188 68.9194C237.429 70.4272 231.317 75.5684 231.46 82.6225L237.459 82.5013ZM244.694 74.7275C248.908 73.6462 253.499 74.4559 258.674 75.4695L259.827 69.5814C254.887 68.6138 248.946 67.4422 243.203 68.9157L244.694 74.7275ZM256.549 73.8292C258.058 76.9583 258.498 80.6074 257.776 83.9966L263.645 85.246C264.644 80.5539 264.04 75.5482 261.952 71.2217L256.549 73.8292ZM260.575 81.6243C258.848 81.7022 257.12 81.7737 255.386 81.8454C253.653 81.9171 251.914 81.989 250.174 82.0675L250.444 88.0614C252.171 87.9835 253.899 87.912 255.634 87.8403C257.366 87.7687 259.105 87.6967 260.846 87.6182L260.575 81.6243ZM247.313 85.2271C247.464 87.9979 247.379 90.8669 246.736 93.1983C246.1 95.503 245.061 96.8365 243.59 97.4249L245.818 102.996C249.691 101.447 251.611 98.0877 252.52 94.7941C253.421 91.5273 253.467 87.8921 253.305 84.9018L247.313 85.2271ZM243.598 97.4218C242.9 97.6986 242.042 97.8193 240.924 97.8072C239.76 97.7947 238.606 97.6526 237.155 97.5194C234.6 97.2849 230.827 96.9956 227.774 99.4698L231.551 104.131C232.487 103.373 233.836 103.24 236.606 103.494C237.817 103.605 239.375 103.791 240.859 103.807C242.387 103.823 244.11 103.674 245.81 102.999L243.598 97.4218Z" fill="#5ED700" mask="url(#path-4-inside-1)"/>
<mask id="path-6-inside-2" fill="white">
<path d="M286.205 45.8312C295.668 41.2953 303.671 34.1525 313.004 29.3559C329.062 21.1182 347.805 20.3883 365.845 19.8148C406.903 18.5374 447.961 17.26 489.019 15.9827C479.504 21.1964 469.989 26.4362 460.448 31.6499C452.68 35.9252 443.842 40.3047 435.318 37.8803C435.135 44.7364 441.366 51.0971 448.248 51.045C431.381 61.4724 407.972 50.8104 390.167 59.5694C382.711 63.2451 376.689 70.1793 368.478 71.4828C363.733 72.2388 358.806 70.9614 354.088 72.0041C346.189 73.7247 341.21 81.2064 335.371 86.7851C328.645 93.224 318.765 97.6296 309.98 94.5535C301.195 91.4774 296.607 78.417 303.645 72.317C307.112 69.3191 312.065 68.8238 316.158 66.7122C320.251 64.6267 323.483 59.022 320.407 55.607C319.078 54.1211 316.888 53.5476 315.663 51.9574C314.333 50.2368 314.464 47.7864 313.369 45.9095C309.198 38.5842 297.597 48.4381 289.699 45.4924"/>
</mask>
<path d="M313.004 29.3559L311.635 26.6866L311.632 26.6877L313.004 29.3559ZM365.845 19.8148L365.752 16.8162L365.75 16.8163L365.845 19.8148ZM489.019 15.9827L490.461 18.6136L488.926 12.9841L489.019 15.9827ZM460.448 31.6499L459.009 29.0173L459.002 29.0216L460.448 31.6499ZM435.318 37.8803L436.138 34.9947L432.422 33.9377L432.319 37.8005L435.318 37.8803ZM448.248 51.045L449.825 53.5967L458.936 47.9639L448.225 48.0451L448.248 51.045ZM390.167 59.5694L388.843 56.8775L388.84 56.8786L390.167 59.5694ZM368.478 71.4828L368.008 68.5199L368.006 68.5201L368.478 71.4828ZM354.088 72.0041L354.727 74.9354L354.735 74.9335L354.088 72.0041ZM335.371 86.7851L333.298 84.6159L333.296 84.618L335.371 86.7851ZM303.645 72.317L301.683 70.0477L301.68 70.0499L303.645 72.317ZM316.158 66.7122L314.796 64.0392L314.789 64.0427L314.783 64.0461L316.158 66.7122ZM320.407 55.607L318.172 57.6074L318.178 57.6148L320.407 55.607ZM315.663 51.9574L318.039 50.1264L318.037 50.123L315.663 51.9574ZM313.369 45.9095L310.762 47.3939L310.77 47.4075L310.778 47.4211L313.369 45.9095ZM287.502 48.5365C292.463 46.1585 297.003 43.1159 301.338 40.1736C305.731 37.1921 309.904 34.3221 314.375 32.0241L311.632 26.6877C306.771 29.1863 302.276 32.286 297.969 35.209C293.604 38.1713 289.41 40.9681 284.909 43.126L287.502 48.5365ZM314.373 32.0251C329.733 24.1456 347.782 23.3905 365.94 22.8132L365.75 16.8163C347.829 17.386 328.391 18.0908 311.635 26.6866L314.373 32.0251ZM365.938 22.8133C386.467 22.1746 406.996 21.5359 427.525 20.8973C448.054 20.2586 468.583 19.6199 489.112 18.9812L488.926 12.9841C468.397 13.6228 447.868 14.2615 427.339 14.9002C406.81 15.5388 386.281 16.1775 365.752 16.8162L365.938 22.8133ZM487.578 13.3517C478.053 18.5705 468.55 23.8037 459.009 29.0173L461.887 34.2825C471.428 29.0686 480.955 23.8223 490.461 18.6136L487.578 13.3517ZM459.002 29.0216C455.125 31.155 451.204 33.1857 447.272 34.4139C443.365 35.6343 439.653 35.9944 436.138 34.9947L434.497 40.7659C439.507 42.1907 444.476 41.5731 449.061 40.141C453.621 38.7168 458.002 36.4201 461.894 34.2782L459.002 29.0216ZM432.319 37.8005C432.091 46.3535 439.692 54.1099 448.271 54.0449L448.225 48.0451C443.04 48.0843 438.179 43.1193 438.317 37.9601L432.319 37.8005ZM446.67 48.4933C439.112 53.1658 429.958 53.2046 419.638 52.9339C409.679 52.6726 398.544 52.1051 388.843 56.8775L391.491 62.2613C399.595 58.2747 409.067 58.6586 419.481 58.9318C429.533 59.1955 440.517 59.3516 449.825 53.5967L446.67 48.4933ZM388.84 56.8786C384.862 58.8398 381.144 61.7413 377.919 63.9351C374.526 66.2426 371.426 67.9772 368.008 68.5199L368.948 74.4457C373.741 73.6849 377.758 71.3007 381.293 68.8963C384.995 66.3782 388.016 63.9747 391.494 62.2602L388.84 56.8786ZM368.006 68.5201C365.989 68.8414 363.903 68.7366 361.39 68.6382C358.999 68.5446 356.225 68.4594 353.441 69.0748L354.735 74.9335C356.669 74.5061 358.718 74.5382 361.156 74.6336C363.472 74.7243 366.222 74.8801 368.95 74.4454L368.006 68.5201ZM353.45 69.0729C348.725 70.1019 345.027 72.8266 341.903 75.7614C340.339 77.2305 338.858 78.8131 337.454 80.3175C336.028 81.8467 334.684 83.2925 333.298 84.6159L337.443 88.9542C338.978 87.4883 340.446 85.9068 341.842 84.4105C343.261 82.8893 344.613 81.4479 346.011 80.1342C348.812 77.5033 351.552 75.6269 354.727 74.9354L353.45 69.0729ZM333.296 84.618C326.945 90.6987 318.216 94.2589 310.971 91.7221L308.988 97.385C319.314 101 330.345 95.7493 337.445 88.9521L333.296 84.618ZM310.971 91.7221C307.643 90.5567 304.885 87.3686 303.745 83.6824C302.607 80.0071 303.269 76.6129 305.61 74.584L301.68 70.0499C296.983 74.1211 296.419 80.3071 298.013 85.4561C299.603 90.5941 303.532 95.4743 308.988 97.385L310.971 91.7221ZM305.607 74.5863C306.886 73.4804 308.531 72.7567 310.656 72.0145C312.623 71.3276 315.239 70.5624 317.534 69.3783L314.783 64.0461C312.985 64.9736 311.078 65.5118 308.678 66.35C306.437 67.1327 303.871 68.1557 301.683 70.0477L305.607 74.5863ZM317.52 69.3852C320.174 68.0328 322.493 65.6011 323.709 62.8841C324.935 60.1454 325.245 56.4948 322.636 53.5991L318.178 57.6148C318.646 58.1341 318.877 58.9934 318.233 60.4322C317.579 61.8927 316.235 63.3061 314.796 64.0392L317.52 69.3852ZM322.643 53.6066C321.62 52.4633 320.303 51.7138 319.556 51.2591C318.646 50.7043 318.266 50.4201 318.039 50.1264L313.286 53.7884C314.285 55.0849 315.613 55.8825 316.436 56.3835C317.422 56.9845 317.865 57.2647 318.172 57.6074L322.643 53.6066ZM318.037 50.123C317.795 49.8107 317.612 49.3381 317.335 48.2519C317.108 47.3588 316.77 45.7854 315.96 44.3978L310.778 47.4211C311.063 47.9105 311.207 48.5008 311.521 49.7322C311.785 50.7706 312.201 52.3835 313.289 53.7917L318.037 50.123ZM315.976 44.425C314.379 41.62 311.917 40.4028 309.275 40.1789C306.895 39.9772 304.342 40.5757 302.156 41.1605C299.78 41.7963 297.716 42.4502 295.627 42.8148C293.58 43.1722 291.993 43.1464 290.747 42.6815L288.65 48.3032C291.353 49.3112 294.179 49.1583 296.659 48.7255C299.097 48.2999 301.675 47.5004 303.707 46.9566C305.93 46.3619 307.553 46.0545 308.768 46.1575C309.721 46.2382 310.274 46.5363 310.762 47.3939L315.976 44.425Z" fill="#5ED700" mask="url(#path-6-inside-2)"/>
<mask id="path-8-inside-3" fill="white">
<path d="M410.892 80.4765C416.444 79.1992 421.267 75.9145 426.455 73.5162C431.642 71.1179 437.82 69.7102 442.904 72.2389C444.416 76.0188 440.062 79.4599 436.23 80.8154C428.879 83.3962 420.902 84.1001 413.212 82.8227"/>
</mask>
<path d="M442.904 72.2389L445.689 71.1247L445.264 70.0624L444.24 69.5528L442.904 72.2389ZM436.23 80.8154L437.224 83.6461L437.231 83.6437L436.23 80.8154ZM411.564 83.4002C414.69 82.6812 417.535 81.4149 420.157 80.0973C422.92 78.7088 425.146 77.4264 427.713 76.2393L425.196 70.7931C422.576 72.0043 419.796 73.5635 417.463 74.7362C414.988 75.9798 412.646 76.9945 410.219 77.5529L411.564 83.4002ZM427.713 76.2393C432.68 73.9431 437.751 73.0263 441.568 74.9249L444.24 69.5528C437.89 66.3942 430.604 68.2927 425.196 70.7931L427.713 76.2393ZM440.118 73.353C440.281 73.7583 440.314 74.3687 439.361 75.408C438.391 76.4647 436.804 77.4303 435.23 77.9872L437.231 83.6437C439.489 82.845 441.994 81.4123 443.782 79.4645C445.585 77.4995 447.039 74.4994 445.689 71.1247L440.118 73.353ZM435.237 77.9848C428.359 80.3994 420.893 81.0574 413.703 79.8633L412.72 85.7822C420.911 87.1427 429.399 86.3931 437.224 83.6461L435.237 77.9848Z" fill="#5ED700" mask="url(#path-8-inside-3)"/>
<mask id="path-10-inside-4" fill="white">
<path d="M746.577 121.899C745.065 122.082 743.475 122.004 741.859 121.613C734.794 120.101 729.424 114.652 723.376 110.69C709.43 101.462 690.4 100.262 675.332 107.796C678.903 102.609 680.702 96.1957 680.311 89.8871L678.147 90.6431C653.46 76.3314 624.524 61.4723 597.595 71.0916C591.365 73.3596 585.734 76.7485 579.425 78.9122C572.726 81.2584 565.296 82.2229 559.561 86.3678C553.722 90.5127 550.62 99.6628 555.625 104.642C559.874 108.891 566.652 107.744 572.595 108.318C578.435 108.891 585.134 114.704 581.928 119.71C556.12 131.779 530.234 143.953 504.426 156.127C516.287 159.986 524.134 173.437 521.579 185.689C512.898 187.201 504.53 181.935 495.771 181.362C483.05 180.71 470.902 191.92 470.641 204.641C470.276 217.363 481.955 229.12 494.676 228.937C504.191 228.833 513.524 223.098 522.752 225.522C523.117 216.841 529.061 209.49 535.161 203.286C547.022 191.398 563.967 180.658 579.816 186.497C585.004 188.374 589.436 191.868 593.763 195.335C603.278 202.868 612.793 210.481 622.334 218.119C625.358 215.016 628.356 211.888 631.38 208.89C636.568 214.365 641.755 219.813 647.021 225.366C649.654 223.567 652.392 221.872 655.024 220.074C656.901 224.975 658.883 229.771 660.786 234.672C661.542 229.302 662.193 224.036 662.845 218.744C669.075 218.927 675.671 219.109 681.302 216.294C686.958 213.557 691.103 206.779 688.731 200.939C687.506 197.837 684.586 195.387 684.013 192.076C682.788 185.481 692.198 180.971 698.324 183.969C704.346 186.888 707.37 193.771 709.925 200.079C711.333 193.666 712.636 187.358 714.07 180.945C719.961 196.43 728.46 210.924 739.018 223.645C719.701 219.969 699.341 222.081 681.276 229.511C687.037 237.618 696.917 242.415 706.823 242.024C711.254 241.919 716.155 240.903 719.544 243.718C722.099 245.882 722.751 249.375 723.22 252.581C724.732 261.627 726.244 270.569 727.652 279.51C717.459 271.142 702.782 272.081 689.487 271.82C676.192 271.455 660.655 267.779 655.754 255.449C650.489 261.393 648.142 269.865 649.654 277.79C635.89 274.505 620.066 269.239 616.104 255.657C605.364 259.62 591.99 252.764 589.071 241.737C588.028 237.879 587.741 233.16 584.352 231.101C582.293 229.876 579.634 230.058 577.184 230.345C556.746 232.717 536.386 234.985 516.053 237.357C504.947 238.687 493.451 240.016 483.649 245.465C473.847 250.835 466.053 261.393 467.174 272.524C448.431 283.655 432.529 299.766 421.788 318.717C418.4 324.557 415.48 331.256 416.809 337.852C417.748 342.935 421.137 347.263 422.179 352.268C423.978 360.844 419.077 369.134 417.018 377.606C411.179 401.72 429.479 424.426 446.449 442.674C454.452 451.146 463.707 460.374 475.386 460.844C482.633 461.13 489.515 457.924 496.293 455.265C515.688 447.627 536.803 444.134 557.606 444.968C552.888 448.643 557.788 456.646 563.654 457.872C569.493 459.097 575.802 457.194 581.459 459.175C594.363 463.789 592.59 482.715 586.751 495.072C589.67 494.498 592.694 493.925 595.692 493.377C594.102 497.522 592.486 501.667 590.896 505.708C608.596 507.949 615.296 531.229 611.177 548.643C607.136 566.083 596.787 582.089 596.5 599.998C596.422 609.8 599.42 619.315 602.444 628.621C610.004 652.265 617.538 675.91 625.098 699.632C646.213 702.161 658.335 675.31 677.939 666.916C685.29 663.709 693.945 663.058 699.706 657.583C705.259 652.318 703.46 639.961 696.317 639.961C706.015 638.918 714.305 630.055 714.591 620.253C714.696 617.516 714.305 614.779 714.669 612.068C715.321 608.209 717.772 604.82 720.118 601.51C735.081 580.029 744.779 555.42 754.476 531.125C757.005 524.607 759.56 518.221 762.088 511.703C771.682 487.486 781.197 463.372 790.79 439.154C794.544 429.639 798.324 420.229 802.078 410.687C796.89 419.264 783.334 418.143 775.592 411.73C767.771 405.343 763.705 395.62 757.578 387.617C752.391 380.735 745.404 374.635 742.954 366.241C741.546 361.444 741.807 356.256 740.973 351.251C739.07 340.407 731.927 331.387 727.026 321.585C722.125 311.783 719.57 299.088 726.452 290.485C746.265 325.052 764.278 360.636 780.571 397.106C782.37 391.449 786.515 386.548 791.78 383.811C795.639 381.725 799.966 380.891 804.033 379.197C814.773 374.478 822.203 363.086 822.203 351.407C822.098 339.729 814.669 328.337 803.824 323.723C798.454 321.455 792.328 320.725 787.245 317.596C782.161 314.599 778.485 307.716 781.692 302.711C784.69 297.993 791.963 298.097 796.942 300.73C801.947 303.467 805.623 308.081 810.315 311.184C813.704 313.452 817.667 314.937 821.342 317.023C841.233 328.415 846.134 354.327 850.305 376.929C852.572 389.077 855.127 401.146 858.151 413.008C858.255 410.453 858.229 407.82 858.229 405.291C858.125 295.751 815.764 196.195 746.577 121.899ZM784.716 258.76C781.979 258.577 779.45 256.778 777.26 255.084C773.689 252.269 770.091 248.958 769.049 244.526C767.823 239.26 770.352 233.212 767.537 228.52C766.207 226.252 763.861 224.844 761.88 223.254C756.692 219.109 752.912 213.166 751.504 206.779C750.279 201.122 752.052 193.588 757.813 192.65C760.55 192.18 763.548 193.692 764.773 196.221L760.915 198.306C767.406 199.062 770.43 208.864 765.451 213.087C764.799 213.739 763.939 214.313 763.939 215.251C763.939 215.825 764.304 216.372 764.799 216.763C768.84 221.195 774.888 222.785 780.154 225.6C785.42 228.338 790.607 233.421 789.773 239.26C788.079 239.912 786.488 240.486 784.794 241.137C782.995 242.936 784.429 246.142 786.306 247.915C788.183 249.688 790.633 251.486 790.738 254.119C790.738 256.961 787.531 258.942 784.716 258.76Z"/>
</mask>
<path d="M746.577 121.899C745.065 122.082 743.475 122.004 741.859 121.613C734.794 120.101 729.424 114.652 723.376 110.69C709.43 101.462 690.4 100.262 675.332 107.796C678.903 102.609 680.702 96.1957 680.311 89.8871L678.147 90.6431C653.46 76.3314 624.524 61.4723 597.595 71.0916C591.365 73.3596 585.734 76.7485 579.425 78.9122C572.726 81.2584 565.296 82.2229 559.561 86.3678C553.722 90.5127 550.62 99.6628 555.625 104.642C559.874 108.891 566.652 107.744 572.595 108.318C578.435 108.891 585.134 114.704 581.928 119.71C556.12 131.779 530.234 143.953 504.426 156.127C516.287 159.986 524.134 173.437 521.579 185.689C512.898 187.201 504.53 181.935 495.771 181.362C483.05 180.71 470.902 191.92 470.641 204.641C470.276 217.363 481.955 229.12 494.676 228.937C504.191 228.833 513.524 223.098 522.752 225.522C523.117 216.841 529.061 209.49 535.161 203.286C547.022 191.398 563.967 180.658 579.816 186.497C585.004 188.374 589.436 191.868 593.763 195.335C603.278 202.868 612.793 210.481 622.334 218.119C625.358 215.016 628.356 211.888 631.38 208.89C636.568 214.365 641.755 219.813 647.021 225.366C649.654 223.567 652.392 221.872 655.024 220.074C656.901 224.975 658.883 229.771 660.786 234.672C661.542 229.302 662.193 224.036 662.845 218.744C669.075 218.927 675.671 219.109 681.302 216.294C686.958 213.557 691.103 206.779 688.731 200.939C687.506 197.837 684.586 195.387 684.013 192.076C682.788 185.481 692.198 180.971 698.324 183.969C704.346 186.888 707.37 193.771 709.925 200.079C711.333 193.666 712.636 187.358 714.07 180.945C719.961 196.43 728.46 210.924 739.018 223.645C719.701 219.969 699.341 222.081 681.276 229.511C687.037 237.618 696.917 242.415 706.823 242.024C711.254 241.919 716.155 240.903 719.544 243.718C722.099 245.882 722.751 249.375 723.22 252.581C724.732 261.627 726.244 270.569 727.652 279.51C717.459 271.142 702.782 272.081 689.487 271.82C676.192 271.455 660.655 267.779 655.754 255.449C650.489 261.393 648.142 269.865 649.654 277.79C635.89 274.505 620.066 269.239 616.104 255.657C605.364 259.62 591.99 252.764 589.071 241.737C588.028 237.879 587.741 233.16 584.352 231.101C582.293 229.876 579.634 230.058 577.184 230.345C556.746 232.717 536.386 234.985 516.053 237.357C504.947 238.687 493.451 240.016 483.649 245.465C473.847 250.835 466.053 261.393 467.174 272.524C448.431 283.655 432.529 299.766 421.788 318.717C418.4 324.557 415.48 331.256 416.809 337.852C417.748 342.935 421.137 347.263 422.179 352.268C423.978 360.844 419.077 369.134 417.018 377.606C411.179 401.72 429.479 424.426 446.449 442.674C454.452 451.146 463.707 460.374 475.386 460.844C482.633 461.13 489.515 457.924 496.293 455.265C515.688 447.627 536.803 444.134 557.606 444.968C552.888 448.643 557.788 456.646 563.654 457.872C569.493 459.097 575.802 457.194 581.459 459.175C594.363 463.789 592.59 482.715 586.751 495.072C589.67 494.498 592.694 493.925 595.692 493.377C594.102 497.522 592.486 501.667 590.896 505.708C608.596 507.949 615.296 531.229 611.177 548.643C607.136 566.083 596.787 582.089 596.5 599.998C596.422 609.8 599.42 619.315 602.444 628.621C610.004 652.265 617.538 675.91 625.098 699.632C646.213 702.161 658.335 675.31 677.939 666.916C685.29 663.709 693.945 663.058 699.706 657.583C705.259 652.318 703.46 639.961 696.317 639.961C706.015 638.918 714.305 630.055 714.591 620.253C714.696 617.516 714.305 614.779 714.669 612.068C715.321 608.209 717.772 604.82 720.118 601.51C735.081 580.029 744.779 555.42 754.476 531.125C757.005 524.607 759.56 518.221 762.088 511.703C771.682 487.486 781.197 463.372 790.79 439.154C794.544 429.639 798.324 420.229 802.078 410.687C796.89 419.264 783.334 418.143 775.592 411.73C767.771 405.343 763.705 395.62 757.578 387.617C752.391 380.735 745.404 374.635 742.954 366.241C741.546 361.444 741.807 356.256 740.973 351.251C739.07 340.407 731.927 331.387 727.026 321.585C722.125 311.783 719.57 299.088 726.452 290.485C746.265 325.052 764.278 360.636 780.571 397.106C782.37 391.449 786.515 386.548 791.78 383.811C795.639 381.725 799.966 380.891 804.033 379.197C814.773 374.478 822.203 363.086 822.203 351.407C822.098 339.729 814.669 328.337 803.824 323.723C798.454 321.455 792.328 320.725 787.245 317.596C782.161 314.599 778.485 307.716 781.692 302.711C784.69 297.993 791.963 298.097 796.942 300.73C801.947 303.467 805.623 308.081 810.315 311.184C813.704 313.452 817.667 314.937 821.342 317.023C841.233 328.415 846.134 354.327 850.305 376.929C852.572 389.077 855.127 401.146 858.151 413.008C858.255 410.453 858.229 407.82 858.229 405.291C858.125 295.751 815.764 196.195 746.577 121.899ZM784.716 258.76C781.979 258.577 779.45 256.778 777.26 255.084C773.689 252.269 770.091 248.958 769.049 244.526C767.823 239.26 770.352 233.212 767.537 228.52C766.207 226.252 763.861 224.844 761.88 223.254C756.692 219.109 752.912 213.166 751.504 206.779C750.279 201.122 752.052 193.588 757.813 192.65C760.55 192.18 763.548 193.692 764.773 196.221L760.915 198.306C767.406 199.062 770.43 208.864 765.451 213.087C764.799 213.739 763.939 214.313 763.939 215.251C763.939 215.825 764.304 216.372 764.799 216.763C768.84 221.195 774.888 222.785 780.154 225.6C785.42 228.338 790.607 233.421 789.773 239.26C788.079 239.912 786.488 240.486 784.794 241.137C782.995 242.936 784.429 246.142 786.306 247.915C788.183 249.688 790.633 251.486 790.738 254.119C790.738 256.961 787.531 258.942 784.716 258.76Z" stroke="#5ED700" stroke-width="6" mask="url(#path-10-inside-4)"/>
<path d="M762.408 592.788L762.408 592.782C762.238 591.108 761.64 589.407 761.121 587.932C760.976 587.519 760.837 587.124 760.715 586.752C760.112 584.909 759.841 583.448 760.282 582.085C760.802 580.511 762.099 579.472 764.081 578.587C765.067 578.147 766.152 577.776 767.304 577.394C767.429 577.353 767.555 577.312 767.682 577.27C768.698 576.934 769.763 576.583 770.759 576.18C779.194 572.767 784.252 562.871 782.327 554.044L785.614 551.715C785.741 552.649 786.026 553.551 786.397 554.408C787.181 556.221 788.421 557.988 789.546 559.592C789.596 559.663 789.646 559.734 789.695 559.804C790.908 561.535 791.963 563.076 792.544 564.565C793.1 565.993 793.157 567.21 792.553 568.404L792.549 568.413L792.544 568.422C792.144 569.242 791.452 569.913 790.488 570.606C790.022 570.941 789.526 571.258 788.989 571.602L788.934 571.637C788.389 571.985 787.802 572.362 787.243 572.772L787.237 572.777C783.235 575.747 781.255 579.911 780.248 584.462C779.263 588.915 779.181 593.887 779.103 598.664L779.1 598.843C779.02 603.749 778.931 608.445 777.991 612.561C777.061 616.633 775.33 619.985 772.061 622.317L772.061 622.317C767.457 625.606 761.147 625.515 754.842 624.963C753.293 624.827 752.062 624.704 751.039 624.183L751.032 624.179L751.026 624.176C748.941 623.139 748.14 620.974 748.493 618.114C748.847 615.246 750.357 612.094 752.329 609.921C752.987 609.196 753.721 608.435 754.48 607.647C756.065 606.002 757.763 604.241 759.121 602.443C761.182 599.714 762.774 596.536 762.408 592.788Z" stroke="#5ED700" stroke-width="3"/>
<path d="M856.677 405.502C856.677 634.685 670.888 820.474 441.705 820.474C212.522 820.474 26.7324 634.685 26.7324 405.502C26.7324 176.319 212.522 -9.47046 441.705 -9.47046C670.888 -9.47046 856.677 176.319 856.677 405.502Z" stroke="#5ED700" stroke-width="3"/>
</g>
<defs>
<clipPath id="clip0">
<rect width="841.768" height="903" fill="white" transform="translate(0.232422)"/>
</clipPath>
</defs>
</svg>
