<svg width="1366" height="200" viewBox="0 0 1366 200" fill="none" xmlns="http://www.w3.org/2000/svg">
<g filter="url(#filter0_b)">
<path fill-rule="evenodd" clip-rule="evenodd" d="M0 0L56.5609 3.75723C114.189 7.51445 227.311 15.0289 341.5 27.7457C455.689 40.7514 568.811 59.2486 683 63.0058C797.189 66.763 910.311 55.4913 1024.5 52.0231C1138.69 48.2659 1251.81 52.0231 1309.44 53.7572L1366 55.4913V100H1309.44C1251.81 100 1138.69 100 1024.5 100C910.311 100 797.189 100 683 100C568.811 100 455.689 100 341.5 100C227.311 100 114.189 100 56.5609 100H0V0Z" fill="#555555" fill-opacity="0.8"/>
<path fill-rule="evenodd" clip-rule="evenodd" d="M0 40L45.5333 48C91.0667 56 182.133 72 273.2 68C364.267 64 455.333 40 546.4 24C637.467 8 728.533 0 819.6 0C910.667 0 1001.73 8 1092.8 22C1183.87 36 1274.93 56 1320.47 66L1366 76V100H1320.47C1274.93 100 1183.87 100 1092.8 100C1001.73 100 910.667 100 819.6 100C728.533 100 637.467 100 546.4 100C455.333 100 364.267 100 273.2 100C182.133 100 91.0667 100 45.5333 100H0V40Z" fill="#939393" fill-opacity="0.8"/>
<path fill-rule="evenodd" clip-rule="evenodd" d="M1366 200L1309.44 196.243C1251.81 192.486 1138.69 184.971 1024.5 172.254C910.311 159.249 797.189 140.751 683 136.994C568.811 133.237 455.689 144.509 341.5 147.977C227.311 151.734 114.189 147.977 56.5609 146.243L5.38484e-06 144.509L9.70393e-06 99.9999L56.5609 99.9999C114.189 99.9999 227.311 99.9999 341.5 99.9999C455.689 99.9999 568.811 99.9999 683 99.9999C797.189 100 910.311 100 1024.5 100C1138.69 100 1251.81 100 1309.44 100L1366 100L1366 200Z" fill="#555555" fill-opacity="0.8"/>
<path fill-rule="evenodd" clip-rule="evenodd" d="M1366 160L1320.47 152C1274.93 144 1183.87 128 1092.8 132C1001.73 136 910.667 160 819.6 176C728.533 192 637.467 200 546.4 200C455.333 200 364.267 192 273.2 178C182.133 164 91.0667 144 45.5333 134L7.37499e-06 124L9.70393e-06 99.9999L45.5333 99.9999C91.0667 99.9999 182.133 99.9999 273.2 99.9999C364.267 99.9999 455.333 99.9999 546.4 99.9999C637.467 99.9999 728.533 99.9999 819.6 100C910.667 100 1001.73 100 1092.8 100C1183.87 100 1274.93 100 1320.47 100L1366 100L1366 160Z" fill="#939393" fill-opacity="0.8"/>
</g>
<defs>
<filter id="filter0_b" x="-4" y="-4" width="1374" height="208" filterUnits="userSpaceOnUse" color-interpolation-filters="sRGB">
<feFlood flood-opacity="0" result="BackgroundImageFix"/>
<feGaussianBlur in="BackgroundImage" stdDeviation="2"/>
<feComposite in2="SourceAlpha" operator="in" result="effect1_backgroundBlur"/>
<feBlend mode="normal" in="SourceGraphic" in2="effect1_backgroundBlur" result="shape"/>
</filter>
</defs>
</svg>
