<svg width="406" height="306" viewBox="0 0 406 306" fill="none" xmlns="http://www.w3.org/2000/svg">
<path d="M197.194 296.257L14.7784 188.454C8.97262 185.185 3.98897 179.836 9.65267 176.345L192.728 70.7848C195.479 69.0796 199.65 67.9631 202.442 69.5871L393.932 180.75C399.737 184.12 400.783 193.539 394.947 196.919L221.27 296.115C217.616 298.232 213.474 299.359 209.251 299.383C205.028 299.408 200.872 298.331 197.194 296.257Z" fill="#2B9399"/>
<path d="M255.496 173.3L250.705 173.787L222.285 191.407C210.521 200.888 221.96 202.258 228.01 206.186C231.542 208.48 287.428 245.365 290.94 247.628L336.99 223.177C328.759 218.386 263.687 178.192 255.496 173.3Z" fill="url(#paint0_linear)"/>
<path d="M329.672 225.552C334.005 225.552 337.518 223.902 337.518 221.868C337.518 219.833 334.005 218.183 329.672 218.183C325.339 218.183 321.826 219.833 321.826 221.868C321.826 223.902 325.339 225.552 329.672 225.552Z" fill="#484887"/>
<path d="M337.518 217.188V221.868H321.826V217.188" fill="#484887"/>
<path d="M329.672 220.873C334.005 220.873 337.518 219.223 337.518 217.188C337.518 215.153 334.005 213.504 329.672 213.504C325.339 213.504 321.826 215.153 321.826 217.188C321.826 219.223 325.339 220.873 329.672 220.873Z" fill="#6969BC"/>
<path d="M331.712 149.366V215.534C331.712 215.534 329.977 218.518 327.652 215.534V147.133C327.652 147.133 327.997 145.195 331.712 149.366Z" fill="#484887"/>
<path d="M252.745 185.064C257.078 185.064 260.591 183.414 260.591 181.379C260.591 179.344 257.078 177.695 252.745 177.695C248.412 177.695 244.899 179.344 244.899 181.379C244.899 183.414 248.412 185.064 252.745 185.064Z" fill="#484887"/>
<path d="M260.601 176.69V181.379H244.899V176.69" fill="#484887"/>
<path d="M252.745 180.375C257.078 180.375 260.591 178.725 260.591 176.69C260.591 174.655 257.078 173.006 252.745 173.006C248.412 173.006 244.899 174.655 244.899 176.69C244.899 178.725 248.412 180.375 252.745 180.375Z" fill="#6969BC"/>
<path d="M254.765 108.878V175.046C254.765 175.046 253.029 178.03 250.705 175.046V106.645C250.705 106.645 251.07 104.707 254.765 108.878Z" fill="#484887"/>
<path d="M341.71 93.6126L247.203 40.1322C246.445 39.7024 245.586 39.4793 244.714 39.485C243.842 39.4907 242.987 39.7251 242.234 40.1648C241.481 40.6045 240.856 41.2341 240.423 41.9907C239.989 42.7473 239.762 43.6044 239.763 44.4764V102.555C239.762 103.438 239.995 104.305 240.439 105.069C240.883 105.832 241.522 106.464 242.291 106.899L336.797 160.379C337.556 160.809 338.414 161.032 339.286 161.027C340.158 161.021 341.014 160.786 341.767 160.347C342.52 159.907 343.144 159.277 343.578 158.521C344.011 157.764 344.239 156.907 344.237 156.035V97.9466C344.237 97.0653 344.003 96.1998 343.559 95.4384C343.115 94.677 342.477 94.047 341.71 93.6126Z" fill="#68E1FD"/>
<path d="M252.735 100.22C252.735 100.22 259.718 73.5459 272.02 80.519C284.322 87.492 278.506 115.374 287.164 114.897C295.822 114.42 305.677 96.627 313.127 100.251C320.578 103.874 320.344 136.202 329.713 141.277" fill="white"/>
<path d="M253.537 65.0908L263.575 95.9671L282.018 83.6653L289.884 110.319L303.993 103.092L315.462 125.382L332.128 124.915" stroke="#42210B" stroke-width="0.76125" stroke-miterlimit="10"/>
<path d="M332.537 128.261C333.705 128.117 334.468 126.508 334.241 124.666C334.015 122.824 332.884 121.448 331.715 121.592C330.547 121.736 329.784 123.345 330.01 125.187C330.237 127.029 331.368 128.405 332.537 128.261Z" fill="#89562C"/>
<path d="M253.942 68.4318C255.11 68.2879 255.874 66.6784 255.647 64.8368C255.42 62.9952 254.289 61.619 253.121 61.7628C251.953 61.9067 251.189 63.5162 251.416 65.3578C251.643 67.1994 252.774 68.5756 253.942 68.4318Z" fill="#89562C"/>
<path d="M77.5967 118.622C77.6678 118.774 78.0535 120.216 78.358 119.911C78.6625 119.607 80.256 120.297 80.256 120.297L84.7017 114.643L84.113 112.796H80.1038" fill="#68E1FD"/>
<path d="M99.064 94.2719L99.47 92.8002L104.139 90.2525V82.2949C104.139 82.1427 99.6223 84.9542 99.6223 84.9542L99.47 84.5076C99.2172 83.2896 98.7535 82.1251 98.0998 81.0668L101.388 74.9768L97.166 71.7998L94.0398 78.0624C92.9019 77.7987 91.7166 77.8196 90.5888 78.1233V72.1348L84.5901 75.4538V81.7468C83.4171 82.8711 82.3503 84.1011 81.403 85.4211L77.7998 83.1171L73.7398 90.8615L76.9675 93.4295L76.6934 94.7287C76.2709 96.1008 75.9319 97.4973 75.6784 98.9105L70.8876 101.549V109.477L75.4551 106.756C75.6524 108.199 76.1541 109.583 76.9269 110.816L73.5063 116.622L77.8404 119.901L80.8854 113.922H84.6713V119.901L90.335 116.46V110.583C91.6438 109.301 92.7985 107.87 93.7759 106.32L97.2066 108.665L101.348 100.758L97.9475 98.1898L98.2825 97.0023C98.587 96.0786 98.8509 95.1448 99.064 94.2719Z" fill="#68E1FD"/>
<path d="M109.904 85.604L104.616 82.4067L103.297 84.3657L105.347 88.6388" fill="#68E1FD"/>
<path d="M102.992 111.953L99.0742 110.329V107.964" fill="#68E1FD"/>
<path d="M90.4062 123.22L84.6613 119.911L86.1229 115.567L91.2892 117.079L90.4062 123.22Z" fill="#68E1FD"/>
<path d="M97.166 71.8101L102.911 75.119L99.7542 81.4018L96.3134 81.4627L95.5115 75.119L97.166 71.8101Z" fill="#68E1FD"/>
<path d="M96.0514 100.161C96.9514 97.8703 96.6024 95.5897 95.2719 95.067C93.9415 94.5443 92.1334 95.9773 91.2335 98.2677C90.3336 100.558 90.6826 102.839 92.013 103.362C93.3435 103.884 95.1515 102.451 96.0514 100.161Z" fill="#68E1FD"/>
<path d="M84.5901 75.4538L90.335 78.7627L96.3133 75.4437L90.5583 72.1348L84.5901 75.4538Z" fill="#68E1FD"/>
<path d="M83.5345 86.426L77.7896 83.1069L73.7195 90.8615L79.4644 94.1704L83.5345 86.426Z" fill="#68E1FD"/>
<path d="M73.4962 116.632L79.2411 119.941L83.5751 123.22L77.8302 119.911L73.4962 116.632Z" fill="#68E1FD"/>
<path opacity="0.44" d="M77.5967 118.622C77.6678 118.774 78.0535 120.216 78.358 119.911C78.6625 119.607 80.256 120.297 80.256 120.297L84.7017 114.643L84.113 112.796H80.1038" fill="#053855"/>
<path d="M99.064 94.2719L99.47 92.8002L104.139 90.2525V82.2949C104.139 82.1427 99.6223 84.9542 99.6223 84.9542L99.47 84.5076C99.2172 83.2896 98.7535 82.1251 98.0998 81.0668L101.388 74.9768L97.166 71.7998L94.0398 78.0624C92.9019 77.7987 91.7166 77.8196 90.5888 78.1233V72.1348L84.5901 75.4538V81.7468C83.4171 82.8711 82.3503 84.1011 81.403 85.4211L77.7998 83.1171L73.7398 90.8615L76.9675 93.4295L76.6934 94.7287C76.2709 96.1008 75.9319 97.4973 75.6784 98.9105L70.8876 101.549V109.477L75.4551 106.756C75.6524 108.199 76.1541 109.583 76.9269 110.816L73.5063 116.622L77.8404 119.901L80.8854 113.922H84.6713V119.901L90.335 116.46V110.583C91.6438 109.301 92.7985 107.87 93.7759 106.32L97.2066 108.665L101.348 100.758L97.9475 98.1898L98.2825 97.0023C98.587 96.0786 98.8509 95.1448 99.064 94.2719Z" fill="#68E1FD"/>
<path opacity="0.44" d="M109.904 85.604L104.616 82.4067L103.297 84.3657L105.347 88.6388" fill="#053855"/>
<path d="M102.992 111.953L99.0742 110.329V107.964" fill="#68E1FD"/>
<path d="M90.4062 123.22L84.6613 119.911L86.1229 115.567L91.2892 117.079L90.4062 123.22Z" fill="#68E1FD"/>
<path d="M97.166 71.8101L102.911 75.119L99.7542 81.4018L96.3134 81.4627L95.5115 75.119L97.166 71.8101Z" fill="#68E1FD"/>
<path d="M96.0514 100.161C96.9514 97.8703 96.6024 95.5897 95.2719 95.067C93.9415 94.5443 92.1334 95.9773 91.2335 98.2677C90.3336 100.558 90.6826 102.839 92.013 103.362C93.3435 103.884 95.1515 102.451 96.0514 100.161Z" fill="#68E1FD"/>
<path d="M83.5345 86.426L77.7896 83.1069L73.7195 90.8615L79.4644 94.1704L83.5345 86.426Z" fill="#68E1FD"/>
<path d="M73.4962 116.632L79.2411 119.941L83.5751 123.22L77.8302 119.911L73.4962 116.632Z" fill="#68E1FD"/>
<path opacity="0.44" d="M99.064 94.2719L99.47 92.8002L104.139 90.2525V82.2949C104.139 82.1427 99.6223 84.9542 99.6223 84.9542L99.47 84.5076C99.2172 83.2896 98.7535 82.1251 98.0998 81.0668L101.388 74.9768L97.166 71.7998L94.0398 78.0624C92.9019 77.7987 91.7166 77.8196 90.5888 78.1233V72.1348L84.5901 75.4538V81.7468C83.4171 82.8711 82.3503 84.1011 81.403 85.4211L77.7998 83.1171L73.7398 90.8615L76.9675 93.4295L76.6934 94.7287C76.2709 96.1008 75.9319 97.4973 75.6784 98.9105L70.8876 101.549V109.477L75.4551 106.756C75.6524 108.199 76.1541 109.583 76.9269 110.816L73.5063 116.622L77.8404 119.901L80.8854 113.922H84.6713V119.901L90.335 116.46V110.583C91.6438 109.301 92.7985 107.87 93.7759 106.32L97.2066 108.665L101.348 100.758L97.9475 98.1898L98.2825 97.0023C98.587 96.0786 98.8509 95.1448 99.064 94.2719Z" fill="#053855"/>
<path opacity="0.1" d="M102.992 111.953L99.0742 110.329V107.964" fill="#053855"/>
<path opacity="0.1" d="M90.4062 123.22L84.6613 119.911L86.1229 115.567L91.2892 117.079L90.4062 123.22Z" fill="#053855"/>
<path opacity="0.1" d="M96.0514 100.161C96.9514 97.8703 96.6024 95.5897 95.2719 95.067C93.9415 94.5443 92.1334 95.9773 91.2335 98.2677C90.3336 100.558 90.6826 102.839 92.013 103.362C93.3435 103.884 95.1515 102.451 96.0514 100.161Z" fill="#053855"/>
<path opacity="0.1" d="M83.5345 86.426L77.7896 83.1069L73.7195 90.8615L79.4644 94.1704L83.5345 86.426Z" fill="#053855"/>
<path opacity="0.1" d="M73.4962 116.632L79.2411 119.941L83.5751 123.22L77.8302 119.911L73.4962 116.632Z" fill="#053855"/>
<path opacity="0.1" d="M102.992 111.953L99.0742 110.329V107.964" fill="#053855"/>
<path opacity="0.44" d="M90.4062 123.22L84.6613 119.911L86.1229 115.567L91.2892 117.079L90.4062 123.22Z" fill="#053855"/>
<path d="M104.809 97.581L105.225 96.1092L109.894 93.5616V85.604C109.894 85.4517 105.377 88.2633 105.377 88.2633L105.164 87.8167C104.911 86.5987 104.448 85.4342 103.794 84.3758L107.082 78.2858L102.901 75.1089L99.7745 81.3714C98.6366 81.1078 97.4513 81.1287 96.3235 81.4323V75.4438L90.335 78.7629V85.0559C89.162 86.1802 88.0952 87.4101 87.1479 88.7302L83.5345 86.4261L79.4745 94.1706L82.7022 96.7385L82.4281 98.0377C82.0056 99.4099 81.6667 100.806 81.4131 102.22L76.6223 104.859V112.786L81.2 110.065C81.3973 111.508 81.899 112.892 82.6717 114.125L79.2512 119.931L83.5852 123.21L86.6302 117.231H90.4162V123.21L96.1205 119.728V113.851C97.4293 112.569 98.584 111.138 99.5613 109.588L102.992 111.933L107.133 104.026L103.692 101.489L104.027 100.301C104.332 99.3978 104.596 98.4843 104.809 97.581Z" fill="#68E1FD"/>
<path opacity="0.44" d="M96.0514 100.161C96.9514 97.8703 96.6024 95.5897 95.2719 95.067C93.9415 94.5443 92.1334 95.9773 91.2335 98.2677C90.3336 100.558 90.6826 102.839 92.013 103.362C93.3435 103.884 95.1515 102.451 96.0514 100.161Z" fill="#053855"/>
<path opacity="0.44" d="M73.4962 116.632L79.2411 119.941L83.5751 123.22L77.8302 119.911L73.4962 116.632Z" fill="#053855"/>
<path d="M84.5901 75.4538L90.335 78.7627L96.3133 75.4437L90.5583 72.1348L84.5901 75.4538Z" fill="#68E1FD"/>
<path opacity="0.44" d="M84.5901 75.4335L90.3147 78.7627L96.3133 75.4741L90.5786 72.1348L84.5901 75.4335Z" fill="#053855"/>
<path d="M70.8774 101.55L76.6223 104.869V112.796L70.8774 109.477V101.55Z" fill="#68E1FD"/>
<path opacity="0.44" d="M70.8774 101.55L76.6223 104.869V112.796L70.8774 109.477V101.55Z" fill="#053855"/>
<path d="M184.314 13.9452L183.573 105.661C183.565 106.632 183.812 107.588 184.289 108.434C184.767 109.28 185.458 109.986 186.293 110.482L227.37 134.842C227.879 135.148 228.46 135.313 229.054 135.32C229.648 135.328 230.233 135.177 230.75 134.884C231.266 134.59 231.696 134.165 231.993 133.651C232.291 133.137 232.447 132.553 232.445 131.959V39.3913C232.446 38.3985 232.185 37.423 231.69 36.5626C231.195 35.7022 230.482 34.987 229.623 34.4888L189.358 11.1438C188.856 10.8488 188.285 10.6899 187.703 10.6829C187.12 10.6758 186.545 10.821 186.036 11.1038C185.527 11.3867 185.1 11.7976 184.798 12.296C184.496 12.7943 184.329 13.3627 184.314 13.9452Z" fill="#68E1FD"/>
<path d="M222.417 76.408V111.669L215.109 107.396L215.038 72.145L222.417 76.408Z" fill="#5FAD00"/>
<path d="M210.135 63.3857L210.267 104.828L202.604 100.382V59.1328L210.135 63.3857Z" fill="#F8997C"/>
<path d="M197.763 52.1799L197.884 97.9057L191.064 93.9472V48.0996L197.763 52.1799Z" fill="white"/>
<path d="M221.777 115.993C221.783 116.292 221.708 116.587 221.561 116.848C221.414 117.109 221.201 117.326 220.943 117.477C220.684 117.628 220.39 117.707 220.091 117.707C219.792 117.706 219.498 117.626 219.24 117.475L187.846 99.5601C187.588 99.4133 187.373 99.2008 187.223 98.9441C187.073 98.6874 186.994 98.3957 186.993 98.0985C186.994 97.804 187.072 97.5148 187.219 97.2598C187.366 97.0047 187.578 96.7927 187.832 96.6448C188.087 96.4969 188.376 96.4184 188.67 96.417C188.965 96.4156 189.255 96.4914 189.511 96.6369L220.925 114.531C221.183 114.678 221.398 114.891 221.548 115.147C221.698 115.404 221.777 115.696 221.777 115.993Z" fill="#FFE427"/>
<path d="M228.619 47.1657V59.8837C228.618 60.1969 228.535 60.5044 228.378 60.7754C228.221 61.0464 227.995 61.2713 227.724 61.4276C227.452 61.5839 227.144 61.666 226.831 61.6658C226.518 61.6656 226.21 61.5831 225.939 61.4265L191.378 41.4614C191.107 41.305 190.882 41.0802 190.725 40.8094C190.569 40.5387 190.486 40.2315 190.485 39.9186V27.2108C190.486 26.8976 190.569 26.5901 190.726 26.3191C190.883 26.0482 191.109 25.8233 191.38 25.667C191.652 25.5107 191.959 25.4285 192.273 25.4287C192.586 25.4289 192.893 25.5114 193.165 25.668L227.736 45.6229C228.005 45.7806 228.228 46.006 228.383 46.2767C228.538 46.5474 228.619 46.8539 228.619 47.1657Z" fill="#FFE427"/>
<path d="M222.588 55.7135C224.961 54.9605 226.121 51.9462 225.18 48.9808C224.238 46.0155 221.552 44.222 219.18 44.975C216.808 45.728 215.647 48.7423 216.589 51.7076C217.53 54.673 220.216 56.4665 222.588 55.7135Z" fill="white"/>
<path d="M215.424 42.497L195.205 31.2001C194.352 30.723 193.581 32.0324 194.433 32.5196L214.642 43.8368C215.495 44.3139 216.266 43.0045 215.413 42.5173L215.424 42.497Z" fill="#7F47DD"/>
<path d="M214.662 47.4401L202.107 40.4061C201.254 39.9291 200.483 41.2384 201.335 41.7256L213.891 48.7596C214.744 49.2366 215.515 47.9273 214.662 47.4401Z" fill="#7F47DD"/>
<path d="M109.001 71.0996C109.062 71.2214 109.366 72.3582 109.6 72.1146C109.833 71.871 111.102 72.4191 111.102 72.4191L114.634 67.9328L114.167 66.4712H110.99" fill="#68E1FD"/>
<path d="M126.053 51.754L126.388 50.5867L130.103 48.5567V42.2434C130.103 42.1216 126.51 44.3546 126.51 44.3546L126.337 43.9994C126.137 43.033 125.769 42.109 125.251 41.269L127.89 36.4478L124.571 33.9204L122.084 38.8939C121.185 38.6692 120.243 38.6692 119.344 38.8939V34.1742L114.594 36.803V41.7968C113.66 42.691 112.81 43.6696 112.056 44.72L109.194 42.893L105.956 49.0439L108.514 51.0739L108.29 52.0889C107.959 53.1816 107.695 54.2934 107.499 55.4181L103.662 57.5902V63.8832L107.296 61.6502C107.45 62.797 107.848 63.8975 108.463 64.8779L105.743 69.4962L109.184 72.1047L111.65 67.3748H114.695V72.125L119.222 69.3642V64.6952C120.261 63.6752 121.177 62.5375 121.952 61.3051L124.683 63.1727L127.89 56.8899L125.16 54.8599L125.434 53.9159C125.677 53.1953 125.86 52.5152 126.053 51.754Z" fill="#68E1FD"/>
<path d="M134.66 44.872L130.468 42.3345L129.413 43.8874L131.037 47.2877" fill="#68E1FD"/>
<path d="M129.169 65.8016L126.063 64.5125V62.6348" fill="#68E1FD"/>
<path d="M119.181 74.7537L114.614 72.1248L115.771 68.6738L119.882 69.8817L119.181 74.7537Z" fill="#68E1FD"/>
<path d="M124.551 33.9204L129.108 36.5493L126.601 41.5431L123.871 41.5837L123.231 36.5493L124.551 33.9204Z" fill="#68E1FD"/>
<path d="M123.662 56.438C124.378 54.6171 124.099 52.8037 123.04 52.3875C121.981 51.9714 120.542 53.1102 119.827 54.931C119.111 56.7519 119.39 58.5654 120.449 58.9815C121.508 59.3977 122.947 58.2589 123.662 56.438Z" fill="#68E1FD"/>
<path d="M114.553 36.8128L119.12 39.4417L123.871 36.8128L119.303 34.1738L114.553 36.8128Z" fill="#68E1FD"/>
<path d="M113.721 45.5316L109.163 42.8926L105.925 49.0536L110.493 51.6825L113.721 45.5316Z" fill="#68E1FD"/>
<path d="M105.743 69.5161L110.31 72.145L113.751 74.7535L109.194 72.1247L105.743 69.5161Z" fill="#68E1FD"/>
<path opacity="0.44" d="M109.001 71.0996C109.062 71.2214 109.366 72.3582 109.6 72.1146C109.833 71.871 111.102 72.4191 111.102 72.4191L114.634 67.9328L114.167 66.4712H110.99" fill="#053855"/>
<path d="M126.053 51.754L126.388 50.5867L130.103 48.5567V42.2434C130.103 42.1216 126.51 44.3546 126.51 44.3546L126.337 43.9994C126.137 43.033 125.769 42.109 125.251 41.269L127.89 36.4478L124.571 33.9204L122.084 38.8939C121.185 38.6692 120.243 38.6692 119.344 38.8939V34.1742L114.594 36.803V41.7968C113.66 42.691 112.81 43.6696 112.056 44.72L109.194 42.893L105.956 49.0439L108.514 51.0739L108.29 52.0889C107.959 53.1816 107.695 54.2934 107.499 55.4181L103.662 57.5902V63.8832L107.296 61.6502C107.45 62.797 107.848 63.8975 108.463 64.8779L105.743 69.4962L109.184 72.1047L111.65 67.3748H114.695V72.125L119.222 69.3642V64.6952C120.261 63.6752 121.177 62.5375 121.952 61.3051L124.683 63.1727L127.89 56.8899L125.16 54.8599L125.434 53.9159C125.677 53.1953 125.86 52.5152 126.053 51.754Z" fill="#68E1FD"/>
<path opacity="0.44" d="M134.66 44.872L130.468 42.3345L129.413 43.8874L131.037 47.2877" fill="#053855"/>
<path d="M129.169 65.8016L126.063 64.5125V62.6348" fill="#68E1FD"/>
<path d="M119.181 74.7537L114.614 72.1248L115.771 68.6738L119.882 69.8817L119.181 74.7537Z" fill="#68E1FD"/>
<path d="M124.551 33.9204L129.108 36.5493L126.601 41.5431L123.871 41.5837L123.231 36.5493L124.551 33.9204Z" fill="#68E1FD"/>
<path d="M123.662 56.438C124.378 54.6171 124.099 52.8037 123.04 52.3875C121.981 51.9714 120.542 53.1102 119.827 54.931C119.111 56.7519 119.39 58.5654 120.449 58.9815C121.508 59.3977 122.947 58.2589 123.662 56.438Z" fill="#68E1FD"/>
<path d="M113.721 45.5316L109.163 42.8926L105.925 49.0536L110.493 51.6825L113.721 45.5316Z" fill="#68E1FD"/>
<path d="M105.743 69.5161L110.31 72.145L113.751 74.7535L109.194 72.1247L105.743 69.5161Z" fill="#68E1FD"/>
<path opacity="0.44" d="M126.053 51.754L126.388 50.5867L130.103 48.5567V42.2434C130.103 42.1216 126.51 44.3546 126.51 44.3546L126.337 43.9994C126.137 43.033 125.769 42.109 125.251 41.269L127.89 36.4478L124.571 33.9204L122.084 38.8939C121.185 38.6692 120.243 38.6692 119.344 38.8939V34.1742L114.594 36.803V41.7968C113.66 42.691 112.81 43.6696 112.056 44.72L109.194 42.893L105.956 49.0439L108.514 51.0739L108.29 52.0889C107.959 53.1816 107.695 54.2934 107.499 55.4181L103.662 57.5902V63.8832L107.296 61.6502C107.45 62.797 107.848 63.8975 108.463 64.8779L105.743 69.4962L109.184 72.1047L111.65 67.3748H114.695V72.125L119.222 69.3642V64.6952C120.261 63.6752 121.177 62.5375 121.952 61.3051L124.683 63.1727L127.89 56.8899L125.16 54.8599L125.434 53.9159C125.677 53.1953 125.86 52.5152 126.053 51.754Z" fill="#053855"/>
<path opacity="0.1" d="M129.169 65.8016L126.063 64.5125V62.6348" fill="#053855"/>
<path opacity="0.1" d="M119.181 74.7537L114.614 72.1248L115.771 68.6738L119.882 69.8817L119.181 74.7537Z" fill="#053855"/>
<path opacity="0.1" d="M123.662 56.438C124.378 54.6171 124.099 52.8037 123.04 52.3875C121.981 51.9714 120.542 53.1102 119.827 54.931C119.111 56.7519 119.39 58.5654 120.449 58.9815C121.508 59.3977 122.947 58.2589 123.662 56.438Z" fill="#053855"/>
<path opacity="0.1" d="M113.721 45.5316L109.163 42.8926L105.925 49.0536L110.493 51.6825L113.721 45.5316Z" fill="#053855"/>
<path opacity="0.1" d="M105.743 69.5161L110.31 72.145L113.751 74.7535L109.194 72.1247L105.743 69.5161Z" fill="#053855"/>
<path opacity="0.1" d="M129.169 65.8016L126.063 64.5125V62.6348" fill="#053855"/>
<path opacity="0.44" d="M119.181 74.7537L114.614 72.1248L115.771 68.6738L119.882 69.8817L119.181 74.7537Z" fill="#053855"/>
<path d="M130.62 54.3824L130.935 53.2253L134.65 51.1953V44.8718C134.65 44.75 131.057 46.983 131.057 46.983L130.884 46.6278C130.684 45.6614 130.316 44.7375 129.798 43.8974L132.417 39.0762L129.098 36.5488L126.611 41.5223C125.711 41.2976 124.77 41.2976 123.871 41.5223V36.8127L119.12 39.4416V44.3948C118.186 45.289 117.337 46.2676 116.583 47.318L113.68 45.5316L110.442 51.6825L113 53.7125L112.777 54.7275C112.446 55.8202 112.181 56.9319 111.985 58.0567L108.179 60.1577V66.4507L111.802 64.2888C111.957 65.4356 112.355 66.536 112.97 67.5165L110.249 72.1347L113.69 74.7433L116.106 69.9931H119.151V74.7433L123.678 71.9825V67.3135C124.717 66.2935 125.633 65.1558 126.408 63.9234L129.138 65.791L132.427 59.5081L129.697 57.4781L129.971 56.5342C130.245 55.8237 130.448 55.103 130.62 54.3824Z" fill="#68E1FD"/>
<path opacity="0.44" d="M123.662 56.438C124.378 54.6171 124.099 52.8037 123.04 52.3875C121.981 51.9714 120.542 53.1102 119.827 54.931C119.111 56.7519 119.39 58.5654 120.449 58.9815C121.508 59.3977 122.947 58.2589 123.662 56.438Z" fill="#053855"/>
<path opacity="0.44" d="M105.743 69.5161L110.31 72.145L113.751 74.7535L109.194 72.1247L105.743 69.5161Z" fill="#053855"/>
<path d="M114.553 36.8128L119.12 39.4417L123.871 36.8128L119.303 34.1738L114.553 36.8128Z" fill="#68E1FD"/>
<path opacity="0.44" d="M114.553 36.7926L119.11 39.4418L123.871 36.8231L119.313 34.1841L114.553 36.7926Z" fill="#053855"/>
<path d="M103.672 57.5391L108.229 60.1679V66.4711L103.672 63.8422V57.5391Z" fill="#68E1FD"/>
<path opacity="0.44" d="M103.672 57.5391L108.229 60.1679V66.4711L103.672 63.8422V57.5391Z" fill="#053855"/>
<path d="M164.075 211.241C149.124 219.96 138.436 225.816 115.436 238.95C132.843 249.527 146.333 259.25 148.291 260.407L199.955 230.069C195.966 227.958 182.7 220.447 164.075 211.241Z" fill="url(#paint1_linear)"/>
<path d="M176.427 176.893C172.053 173.848 166.907 172.163 161.344 173.392C155.417 174.691 150.291 178.467 144.252 179.329C143.298 179.471 139.491 179.228 138.903 179.776C122.105 195.671 169.058 193.986 169.058 193.986C173.616 190.251 177.909 186.576 182.426 182.821C181.066 179.735 178.772 178.527 176.427 176.893Z" fill="#F8997C"/>
<path d="M154.28 199.933L152.615 247.892C152.554 249.709 155.376 249.709 155.437 247.892L157.102 199.933C157.213 198.117 154.392 198.117 154.28 199.933Z" fill="#F8997C"/>
<path d="M189.531 225.593C180.978 217.222 172.807 208.49 165.019 199.395C163.831 198.015 161.842 200.015 162.989 201.425C170.77 210.513 178.941 219.245 187.501 227.623C188.79 228.871 190.82 226.871 189.531 225.593Z" fill="#F8997C"/>
<path d="M144.526 195.498C137.888 208.03 131.635 220.751 125.769 233.662C125.018 235.306 127.454 236.707 128.205 235.093C134.071 222.182 140.324 209.461 146.962 196.929C147.814 195.315 145.378 193.884 144.526 195.498Z" fill="#F8997C"/>
<path d="M186.679 165.556C186.679 165.556 192.769 166.804 194.159 168.174C195.55 169.545 197.773 175.279 197.154 177.015C196.534 178.751 194.789 176 194.038 174.904C193.15 173.739 192.194 172.627 191.175 171.575C189.169 171.884 187.115 171.612 185.258 170.793" fill="#FCBF81"/>
<path d="M188.719 217.483C189.602 216.579 190.17 215.585 189.866 214.6C189.328 212.834 186.933 212.124 185.298 212.215C183.664 212.306 181.959 213.139 180.305 213.636C178.57 214.258 176.719 214.487 174.885 214.306C174.588 214.266 174.317 214.118 174.123 213.89C173.614 213.768 173.145 213.518 172.761 213.162C172.377 212.806 172.091 212.358 171.931 211.86L166.46 209.931C166.46 209.931 165.069 221.411 165.12 222.213C165.526 228.404 174.773 224.872 174.773 224.872C174.773 224.872 175.098 222.071 175.189 221.695C175.28 221.319 178.823 222.416 180.264 222.192C180.941 222.004 181.582 221.706 182.162 221.309C183.258 220.71 184.324 220.061 185.39 219.411C186.455 218.762 187.623 218.143 188.719 217.483Z" fill="#E55600"/>
<path d="M168.49 175.127C166.46 175.33 164.43 175.594 162.4 175.878C163.246 188.911 164.183 201.933 165.212 214.946C170.49 217.108 172.631 216.103 175.91 212.753C176.529 200.33 177.625 187.317 177.584 174.772C174.509 174.904 171.535 175.036 168.49 175.127Z" fill="#34323D"/>
<path d="M146.495 171.544C146.495 171.544 145.622 185.805 152.788 188.992C159.954 192.179 174.661 190.586 181.888 186.343C185.628 184.065 189.553 182.106 193.621 180.486C193.621 180.486 195.479 174.244 190.972 171.544C186.466 168.844 176.498 165.515 167.627 171.544" fill="#34323D"/>
<path d="M177.94 132.375C178.164 131.838 178.429 131.319 178.731 130.822C178.74 130.854 178.757 130.882 178.782 130.903C178.79 130.944 178.81 130.981 178.84 131.01C178.87 131.039 178.908 131.058 178.949 131.064C178.99 131.071 179.031 131.065 179.069 131.047C179.106 131.029 179.137 131 179.158 130.964L179.736 130.091C179.716 130.206 179.716 130.322 179.736 130.437C179.783 130.65 179.907 130.838 180.086 130.964C180.265 131.09 180.484 131.144 180.7 131.117C180.827 131.108 180.951 131.07 181.062 131.008C181.173 130.946 181.269 130.859 181.342 130.756C181.416 130.652 181.466 130.533 181.488 130.408C181.511 130.282 181.505 130.153 181.472 130.031L181.736 129.726C181.722 129.813 181.722 129.902 181.736 129.99C181.776 130.112 181.846 130.222 181.94 130.31C182.034 130.398 182.149 130.46 182.273 130.491C182.398 130.523 182.528 130.522 182.653 130.49C182.777 130.457 182.891 130.393 182.984 130.305C183.086 130.223 183.177 130.122 183.268 130.031C183.349 130.065 183.435 130.083 183.522 130.083C183.609 130.083 183.696 130.065 183.776 130.031C184.521 129.777 185.249 129.479 185.958 129.137C185.909 129.116 185.865 129.083 185.831 129.041C185.797 129 185.773 128.95 185.762 128.897C185.751 128.845 185.753 128.79 185.768 128.738C185.782 128.686 185.809 128.639 185.846 128.599C186.683 127.923 187.569 127.308 188.496 126.762C188.528 126.735 188.566 126.714 188.607 126.701L188.658 126.61C188.875 125.906 188.825 125.147 188.516 124.478C188.74 124.206 188.899 123.886 188.982 123.544C189.064 123.201 189.068 122.844 188.993 122.499C188.918 122.494 188.847 122.466 188.79 122.418C188.658 122.305 188.545 122.171 188.455 122.022C188.292 121.819 188.165 121.589 188.079 121.342C188.059 121.28 188.058 121.213 188.078 121.151C188.098 121.089 188.138 121.035 188.191 120.997C187.846 120.54 187.44 120.104 187.085 119.698C187.954 118.216 188.368 116.511 188.272 114.795C188.264 114.635 188.205 114.482 188.104 114.357C188.002 114.233 187.864 114.145 187.708 114.105C187.553 114.065 187.389 114.076 187.24 114.137C187.091 114.197 186.966 114.303 186.882 114.44C186.54 114.979 186.232 115.538 185.958 116.115C185.868 116.173 185.795 116.254 185.745 116.348C184.278 119.361 182.648 122.292 180.863 125.128C180.558 125.605 176.803 130.721 177.27 130.843C177.239 131.086 174.194 138.1 177.94 132.375ZM180.132 130.213C180.132 130.213 180.132 130.213 180.132 130.162C180.151 130.184 180.175 130.201 180.201 130.213C180.227 130.225 180.255 130.231 180.284 130.231C180.313 130.231 180.342 130.225 180.368 130.213C180.394 130.201 180.417 130.184 180.437 130.162C180.528 130.228 180.632 130.273 180.743 130.294C180.853 130.315 180.967 130.312 181.076 130.284C181.068 130.419 181.007 130.545 180.906 130.634C180.805 130.724 180.673 130.769 180.538 130.761C180.403 130.753 180.278 130.692 180.188 130.591C180.099 130.49 180.053 130.358 180.061 130.223L180.132 130.213Z" fill="#FCBF81"/>
<path d="M178.346 130.751C179.16 130.128 179.849 129.357 180.376 128.478C180.475 128.293 180.611 128.131 180.774 128C180.938 127.869 181.126 127.772 181.328 127.715C181.529 127.658 181.74 127.643 181.948 127.669C182.156 127.695 182.356 127.763 182.538 127.869C182.596 127.459 182.627 127.045 182.629 126.63C182.629 124.519 185.948 124.489 185.907 126.63C185.982 128.287 185.539 129.927 184.639 131.32C183.645 132.577 182.435 133.646 181.066 134.476C180.824 134.612 180.553 134.686 180.276 134.691C179.999 134.697 179.725 134.634 179.479 134.509C179.232 134.383 179.02 134.199 178.861 133.972C178.702 133.745 178.602 133.483 178.569 133.208L178.427 133.096C178.267 132.948 178.138 132.769 178.048 132.571C177.957 132.373 177.906 132.158 177.899 131.941C177.891 131.723 177.927 131.505 178.004 131.301C178.08 131.097 178.196 130.91 178.346 130.751Z" fill="#FCBF81"/>
<path d="M160.167 138.617C160.167 138.617 169.738 139.074 172.235 136.78C174.732 134.486 178.325 127.27 178.325 127.27C178.325 127.27 184.923 131.512 185.248 133.948C185.572 136.384 178.356 148.158 175.148 148.98" fill="#BA3E00"/>
<path d="M205.274 226.425C206.157 225.522 206.725 224.527 206.421 223.542C205.883 221.776 203.487 221.066 201.853 221.157C200.219 221.248 198.514 222.081 196.859 222.578C195.125 223.201 193.273 223.429 191.439 223.248C191.143 223.208 190.871 223.06 190.678 222.832C190.169 222.71 189.7 222.46 189.316 222.104C188.932 221.749 188.646 221.3 188.485 220.802L183.055 218.853C183.055 218.853 181.685 230.343 181.685 231.155C182.091 237.346 191.338 233.814 191.338 233.814C191.338 233.814 191.662 231.013 191.754 230.637C191.845 230.262 195.387 231.358 196.829 231.135C197.506 230.946 198.147 230.648 198.727 230.251C199.823 229.653 200.889 229.003 201.955 228.353C203.02 227.704 204.177 227.095 205.274 226.425Z" fill="#E55600"/>
<path d="M184.375 171.899C182.507 171.016 180.548 171.108 178.285 171.118C178.599 175.706 178.427 177.36 178.711 181.948L178.792 183.166C179.655 196.746 180.67 210.317 181.685 223.877C186.963 226.039 189.105 225.035 192.383 221.685C193.114 207.231 194.474 191.966 193.946 177.583C190.932 174.559 188.222 173.706 184.375 171.899Z" fill="#34323D"/>
<path d="M146.363 168.59C146.363 168.945 146.434 170.123 146.485 171.544C149.449 175.452 153.082 177.746 158.776 177.573C163.385 177.441 167.231 175.421 170.845 172.934C170.398 164.581 169.048 150.32 166.937 140.373C166.754 139.531 164.572 138.973 163.892 138.617C162.39 137.795 163.273 136.384 161.801 135.501C159.667 134.261 157.445 133.179 155.153 132.263H155.092C151.418 132.213 145.094 135.034 144.719 139.947C144.14 147.509 144.972 152.056 145.561 159.597C145.845 162.642 146.109 165.647 146.363 168.59Z" fill="#E55600"/>
<path d="M159.152 117.972C159.639 118.094 163.709 127.473 162.116 133.197C160.522 138.922 150.849 133.035 148.413 128.701C145.977 124.367 149.997 115.597 159.152 117.972Z" fill="#FCBF81"/>
<path d="M159.02 119.282C159.02 119.282 159.02 122.377 156.32 123.342C153.62 124.306 151.367 125.016 151.509 126.265C151.651 127.513 156.401 126.092 156.422 128.954C156.425 130.885 156.165 132.808 155.65 134.669C155.356 136.07 147.226 131.766 144.546 124.428C141.867 117.089 148.606 115.14 148.9 115.09C149.195 115.039 149.834 113.06 153.123 112.329C156.412 111.598 157.335 112.887 157.335 112.887C158.082 112.437 158.956 112.243 159.823 112.337C160.69 112.43 161.502 112.805 162.136 113.405C165.181 115.81 164.4 120.205 160.969 121.992L159.02 119.282Z" fill="#34323D"/>
<path d="M160.695 148.351C160.695 148.351 170.753 166.723 176.316 168.306C180.306 169.349 184.383 170.028 188.496 170.336C188.496 170.336 189.186 165.261 188.496 163.049C188.496 163.049 179.594 159.039 178.721 156.634C177.848 154.228 170.347 137.349 161.832 135.562" fill="#E55600"/>
<path d="M169.952 162.632C169.332 161.841 162.359 153.944 162.359 153.944L170.743 171.118L169.952 162.632Z" fill="#34323D"/>
<path d="M181.786 182.435C179.167 186.084 175.456 188.806 171.19 190.21C165.212 192.027 156.513 191.174 153.377 184.922C147.662 173.544 153.032 159.313 146.992 148.25C146.296 146.852 145.312 145.616 144.105 144.624C142.898 143.633 141.496 142.907 139.989 142.495C136.071 141.642 133.391 144.575 131.97 148.037C129.423 154.238 129.514 161.973 129.646 168.57C129.651 173.909 130.038 179.242 130.803 184.526C130.803 184.526 134.457 206.693 162.979 200.766C167.915 199.87 172.656 198.114 176.986 195.579C179.21 194.286 181.153 192.56 182.7 190.504C184.446 188.058 183.289 185.044 181.786 182.435Z" fill="#68E1FD"/>
<path d="M38.2655 199.396L63.6405 181.42C56.2208 177.878 55.1348 174.315 49.3087 168.57C39.6763 174.61 26.5727 181.207 14.89 187.185C22.8273 191.042 30.7849 194.798 38.2655 199.396Z" fill="url(#paint2_linear)"/>
<path d="M52.0695 164.104C47.6035 163.718 42.9345 162.368 39.6154 159.313V172.508C39.6154 176.148 41.0612 179.638 43.6348 182.212C46.2083 184.785 49.6987 186.231 53.3382 186.231C56.9778 186.231 60.4682 184.785 63.0417 182.212C65.6153 179.638 67.061 176.148 67.061 172.508V159.09C62.3819 161.008 57.0633 164.54 52.0695 164.104Z" fill="#68E1FD"/>
<path d="M53.3382 166.51C60.9171 166.51 67.061 163.251 67.061 159.232C67.061 155.213 60.9171 151.955 53.3382 151.955C45.7594 151.955 39.6154 155.213 39.6154 159.232C39.6154 163.251 45.7594 166.51 53.3382 166.51Z" fill="#5ED18D"/>
<path d="M53.3383 160.471C53.3383 160.471 44.0003 159.1 41.5338 143.997C41.5338 143.997 49.4914 148.392 53.3383 160.471Z" fill="#5ED18D"/>
<path d="M54.7085 158.542C54.7085 158.542 44.0003 139.328 54.7085 126.417C57.9805 136.875 57.9805 148.083 54.7085 158.542Z" fill="#5ED18D"/>
<path d="M53.3383 146.463C53.3383 146.463 44.0003 145.093 41.5338 129.99C41.5338 129.99 49.4914 134.385 53.3383 146.463Z" fill="#5ED18D"/>
<path d="M54.4751 152.625C54.4751 152.625 52.1406 143.49 65.1123 135.37C65.1123 135.37 64.1277 144.413 54.4751 152.625Z" fill="#5ED18D"/>
<path d="M53.3382 166.51C60.9171 166.51 67.061 163.251 67.061 159.232C67.061 155.213 60.9171 151.955 53.3382 151.955C45.7594 151.955 39.6154 155.213 39.6154 159.232C39.6154 163.251 45.7594 166.51 53.3382 166.51Z" fill="#146666"/>
<path d="M53.3383 160.471C53.3383 160.471 44.0003 159.1 41.5338 143.997C41.5338 143.997 49.4914 148.392 53.3383 160.471Z" fill="#5ED18D"/>
<path d="M54.7085 158.542C54.7085 158.542 44.0003 139.328 54.7085 126.417C57.9805 136.875 57.9805 148.083 54.7085 158.542Z" fill="#5ED18D"/>
<path d="M53.3383 146.463C53.3383 146.463 44.0003 145.093 41.5338 129.99C41.5338 129.99 49.4914 134.385 53.3383 146.463Z" fill="#5ED18D"/>
<path d="M54.4751 152.625C54.4751 152.625 52.1406 143.49 65.1123 135.37C65.1123 135.37 64.1277 144.413 54.4751 152.625Z" fill="#5ED18D"/>
<defs>
<linearGradient id="paint0_linear" x1="270.163" y1="221.878" x2="292.756" y2="183.764" gradientUnits="userSpaceOnUse">
<stop stop-color="#66A6B4"/>
<stop offset="1" stop-color="#7DCCD5"/>
</linearGradient>
<linearGradient id="paint1_linear" x1="11702.2" y1="12355.9" x2="13641.4" y2="9310.62" gradientUnits="userSpaceOnUse">
<stop stop-color="#67A4B2"/>
<stop offset="1" stop-color="#97D8DD"/>
</linearGradient>
<linearGradient id="paint2_linear" x1="1549.07" y1="5902.74" x2="2149.06" y2="5242.03" gradientUnits="userSpaceOnUse">
<stop stop-color="#68A2AF"/>
<stop offset="1" stop-color="#97D8DD"/>
</linearGradient>
</defs>
</svg>
