<svg width="406" height="306" viewBox="0 0 406 306" fill="none" xmlns="http://www.w3.org/2000/svg">
<path d="M197.194 292.766L14.7784 184.952C8.97262 181.694 3.98897 176.345 9.65267 172.823L192.728 67.263C195.479 65.5578 199.65 64.4413 202.442 66.0653L393.932 177.248C399.737 180.618 400.783 190.037 394.947 193.417L221.27 292.593C217.619 294.715 213.478 295.847 209.255 295.877C205.032 295.907 200.875 294.835 197.194 292.766Z" fill="#2B9399"/>
<path style="mix-blend-mode:multiply" opacity="0.63" d="M185.207 240.544L226.061 263.27L205.456 279.428L179.929 263.95C183.147 261.879 181.969 242.564 185.207 240.544Z" fill="url(#paint0_linear)"/>
<path d="M99.1553 91.085L130.133 72.8455V173.848L99.1553 192.412V91.085Z" fill="#68A2AF"/>
<path opacity="0.47" d="M99.1553 91.085L130.133 72.8455V173.848L99.1553 192.412V91.085Z" fill="#42210B"/>
<path d="M217.646 59.813C219.048 58.3693 220.161 56.6708 220.925 54.8091C221.321 53.1952 222.052 46.5673 222.955 46.2425C225.503 45.3391 223.097 50.5359 224.071 50.3634C225.046 50.1908 229.146 45.5421 230.364 45.2275C231.582 44.9128 233.562 47.9883 233.054 49.8254C232.246 51.7596 231.129 53.5492 229.745 55.1237L219.879 64.1978" fill="#F67770"/>
<path d="M186.049 172.579C185.922 173.234 185.939 173.909 186.1 174.556C186.262 175.203 186.563 175.807 186.983 176.325C188.394 177.847 193.804 182.638 194.312 183.673C194.819 184.709 195.54 187.541 194.312 188.525C193.083 189.51 190.688 189.611 187.745 188.525C184.801 187.439 177.726 182.861 176.417 181.42C175.108 179.979 176.417 165.414 176.417 165.414C176.417 165.414 183.999 163.566 186.567 165.414L186.049 172.579Z" fill="#42210B"/>
<path d="M166.084 182.313C165.957 182.968 165.974 183.643 166.135 184.29C166.297 184.937 166.598 185.541 167.018 186.059C168.429 187.581 173.839 192.372 174.347 193.407C174.854 194.443 175.575 197.274 174.347 198.259C173.118 199.244 170.723 199.345 167.779 198.259C164.836 197.173 157.761 192.595 156.452 191.154C155.143 189.713 156.452 175.147 156.452 175.147C156.452 175.147 164.034 173.3 166.602 175.147L166.084 182.313Z" fill="#42210B"/>
<path d="M186.973 78.2859C186.973 78.2859 190.84 95.4495 191.094 111.497C191.348 127.544 189.45 170.651 189.45 170.651C189.45 170.651 185.004 174.924 175.24 173.422V113.598C175.24 113.598 171.829 114.866 171.829 117.404C171.829 119.941 168.713 181.126 168.713 181.126C168.713 181.126 166.967 184.364 154.189 179.41C154.189 179.41 149.824 98.3118 159.203 82.5895" fill="#E6E6E6"/>
<path d="M163.953 80.4783C165.983 81.3614 171.058 85.462 175.027 86.9946C178.836 88.592 182.839 89.6807 186.933 90.2325C187.399 89.6133 187.866 88.9637 188.343 88.2025C200.249 69.5874 206.116 55.3469 205.74 51.3377C205.365 47.3284 195.235 39.5129 189.429 38.5284C183.624 37.5438 173.098 39.8783 173.098 39.8783C173.098 39.8783 167.282 57.7119 165.445 71.4448C164.897 75.2917 164.897 75.2917 163.953 80.4783Z" fill="#42210B"/>
<path d="M196.727 44.2733C198.361 45.5116 201.051 40.6599 200.503 39.8276C199.955 38.9953 191.5 34.9658 189.917 34.9252C186.455 34.844 187.318 40.4366 187.318 40.4366" fill="#42210B"/>
<path d="M195.712 18.1979C197.478 18.675 198.757 15.9345 202.33 16.1172C205.903 16.2999 208.674 19.7712 209.567 21.3647C210.46 22.9583 212.338 21.4561 213.079 23.6282C213.82 25.8003 211.82 27.6882 212.277 28.896C212.296 28.9489 212.32 28.9999 212.348 29.0483C212.426 29.8383 212.3 30.635 211.984 31.3632C211.668 32.0914 211.172 32.7269 210.541 33.2098C209.453 33.7858 208.293 34.2125 207.09 34.4785L190.14 35.1687C189.044 33.2301 191.033 20.8268 191.865 19.5479C192.246 18.9074 192.841 18.4212 193.544 18.1745C194.247 17.9277 195.015 17.936 195.712 18.1979Z" fill="#200904"/>
<path d="M208.684 29.3934C208.988 30.3475 200.777 42.5173 196.555 41.1065C192.332 39.6956 190.12 32.2049 190.465 30.4287C190.81 28.6524 194.992 20.37 196.981 20.3396C198.97 20.3091 206.837 23.5977 208.684 29.3934Z" fill="#F67770"/>
<path d="M208.603 24.7243C208.603 24.7243 207.953 28.1449 202.909 26.4701C197.864 24.7954 197.042 25.719 195.682 27.1197C193.144 29.7587 188.069 31.8395 191.368 21.862C191.53 21.3748 198.006 16.5333 201.944 17.802C205.883 19.0708 208.603 24.7243 208.603 24.7243Z" fill="#200904"/>
<path d="M194.474 28.6015C194.474 28.6015 194.19 25.3129 192.444 25.993C190.698 26.673 190.191 29.9515 191.338 31.5856" fill="#F67770"/>
<path d="M205.73 51.3579C206.157 56.5547 206.014 61.7826 205.304 66.9483C205.304 66.9483 218.601 54.9003 219.717 55.6818C220.834 56.4634 223.777 61.0207 223.3 62.9188C222.823 64.8168 205.436 84.8022 196.453 83.1173C187.47 81.4324 191.378 61.5181 191.378 61.5181" fill="#42210B"/>
<path d="M243.316 130.183V26.1453L116.908 100.585V205.942L243.316 130.183Z" fill="#68A2AF"/>
<path d="M238.251 63.7002L269.229 45.4607V146.463L238.251 165.028V63.7002Z" fill="#4DC8E3"/>
<path d="M262.885 99.2051C262.885 99.2051 254.765 99.8851 253.029 99.2051C251.294 98.525 245.924 96.5559 245.539 98.1292C245.153 99.7024 248.249 100.494 248.249 100.494C248.249 100.494 242.737 101.875 241.205 102.331C239.672 102.788 240.535 104.219 241.773 104.006C241.773 104.006 238.576 105.447 239.672 106.178C240.022 106.389 240.411 106.528 240.815 106.585C241.22 106.643 241.632 106.618 242.027 106.513C242.027 106.513 240.575 107.701 242.23 108.431C243.768 108.3 245.281 107.958 246.726 107.416C246.726 107.416 244.869 109 245.468 109.446C246.066 109.893 245.894 110.309 251.436 107.416C251.436 107.416 263.007 104.838 265.585 104.371" fill="#F04900"/>
<path opacity="0.41" d="M303.566 179.502C310.275 182.273 327.581 190.941 338.076 196.757C334.467 198.913 330.709 200.809 326.83 202.431C322.963 204.217 319.583 206.734 315.949 208.927C310.174 212.408 303.647 214.763 298.451 219.077C291.102 212.855 278.881 203.557 272.243 198.3C272.01 198.3 269.736 196.067 269.909 194.696C277.217 191.255 302.094 180.659 303.566 179.502Z" fill="url(#paint1_linear)"/>
<path d="M311.92 189.418L313.523 188.403V170.346L305.596 170.062C305.596 170.062 305.444 177.766 303.566 179.522C301.688 181.278 297.06 180.019 296.603 180.172C296.147 180.324 293.031 179.421 291.63 180.862C290.229 182.303 296.38 186.465 299.648 187.226C301.887 187.678 304.183 187.763 306.449 187.48C306.449 187.48 307.159 182.861 308.296 183.318C309.433 183.775 309.514 188.657 309.514 188.657L311.92 189.418Z" fill="#68A2AF"/>
<path d="M319.725 119.566C319.613 107.63 318.71 96.6067 309.149 88.2837L308.56 90.4659C308.56 90.3847 308.56 90.3035 308.56 90.2223C308.469 89.2073 306.733 88.7404 306.53 89.9483C306.535 90.0396 306.535 90.1311 306.53 90.2223V90.2832C306.53 90.6791 306.439 91.0851 306.418 91.4809C306.319 91.3726 306.198 91.2869 306.063 91.2299C305.928 91.1729 305.782 91.1459 305.635 91.1507C305.489 91.1555 305.345 91.1921 305.214 91.2579C305.082 91.3236 304.967 91.4171 304.876 91.5317C303.008 92.1305 302.257 94.8304 302.247 96.5153C302.247 96.7845 302.354 97.0427 302.544 97.2331C302.734 97.4234 302.992 97.5303 303.262 97.5303C303.531 97.5303 303.789 97.4234 303.979 97.2331C304.17 97.0427 304.277 96.7845 304.277 96.5153C304.212 95.7481 304.393 94.9802 304.794 94.3229L304.977 93.8053V93.8662V93.988C304.902 94.4919 304.926 95.0056 305.048 95.5003C305.088 95.628 305.152 95.7466 305.237 95.8493C305.322 95.9521 305.427 96.037 305.545 96.0992C305.637 96.4849 305.738 96.8706 305.84 97.2563L303.099 98.0378L299.181 123.25C299.181 123.25 299.709 178.182 301.374 178.659C312.833 181.988 317.553 176.467 317.553 176.467C318.304 157.588 319.877 138.496 319.725 119.566Z" fill="#42210B"/>
<path d="M290.199 203.344L291.802 202.329V184.272L283.875 183.988C283.875 183.988 283.723 191.692 281.845 193.448C279.967 195.204 275.339 193.945 274.882 194.097C274.426 194.25 271.31 193.346 269.909 194.788C268.508 196.229 274.659 200.39 277.927 201.152C280.166 201.603 282.462 201.689 284.728 201.405C284.728 201.405 285.438 196.787 286.575 197.244C287.712 197.701 287.793 202.583 287.793 202.583L290.199 203.344Z" fill="#68A2AF"/>
<path d="M293.051 96.4442C293.051 96.4442 285.743 123.423 282.769 147.57C282.058 153.365 276.06 187.936 276.06 187.936C276.06 187.936 285.946 191.55 294.736 188.718C294.736 188.718 305.19 144.606 305.637 143.743C306.083 142.88 313.138 114.308 313.95 93.8052" fill="#42210B"/>
<path d="M292.188 60.5438L287.793 61.2949C286.91 61.9039 280.292 69.4149 279.764 76.9868C280.235 78.9928 280.856 80.9607 281.622 82.8738C282.515 85.4823 283.479 88.0807 284.586 90.608C285.753 93.38 287.127 96.0604 288.696 98.6265C289.377 99.7126 289.711 100.261 290.503 101.296C291.142 101.463 291.805 101.518 292.462 101.458C305.921 99.7735 311.169 89.1465 311.057 88.0401C310.945 86.9338 304.967 73.4139 301.323 65.3954C300.551 63.6907 299.236 62.2899 297.583 61.4121C295.93 60.5343 294.033 60.2289 292.188 60.5438Z" fill="#68A2AF"/>
<path d="M275.298 51.896C275.298 51.896 279.125 66.106 284.606 65.1925C290.087 64.279 293.041 56.0575 292.127 53.1648C291.214 50.272 279.876 44.2632 275.298 51.896Z" fill="#F04900"/>
<path d="M295.365 35.2601C294.053 34.3797 292.468 33.9981 290.899 34.1843C289.33 34.3704 287.879 35.1121 286.809 36.2751C284.779 38.5385 284.555 41.5429 285.225 44.3443C281.845 43.6947 277.948 44.6691 274.486 48.4043C274.486 48.4043 271.381 52.6064 273.685 54.7988C275.989 56.9912 279.135 55.1642 282.058 54.1086C284.982 53.053 284.22 56.636 285.875 59.1836C287.529 61.7313 288.92 61.4471 290.178 61.0309C291.437 60.6148 295.751 56.6258 293.01 50.343C292.843 49.9613 292.65 49.5916 292.432 49.2366C293.156 48.9063 293.855 48.523 294.523 48.0897C296.103 47.23 297.385 45.9095 298.197 44.3037C298.802 42.6965 298.852 40.933 298.339 39.2942C297.825 37.6553 296.779 36.2352 295.365 35.2601Z" fill="#FC9C54"/>
<path d="M310.874 113.659C310.225 126.559 306.418 138.922 303.191 151.346C299.963 163.769 297.212 176.142 294.857 188.677L295.954 188.373C298.342 175.712 301.164 163.143 304.419 150.665C307.616 138.485 311.25 126.305 311.889 113.659C311.93 113.009 310.915 113.009 310.874 113.659Z" fill="#653200"/>
<path d="M279.764 76.9868C279.764 76.9868 275.978 88.5781 272.791 91.6333C270.558 93.7749 260.885 97.0737 255.293 98.8601C255.513 102.447 256.8 105.886 258.987 108.736C267.199 106.838 280.526 102.057 283.794 98.18C288.585 92.5062 290.767 84.2136 290.767 84.2136L279.764 76.9868Z" fill="#68A2AF"/>
<path d="M165.932 76.0427L169.424 79.4531C169.424 79.4531 172.53 82.3052 172.276 83.4319C172.022 84.5585 168.135 81.6049 167.272 81.0771C166.409 80.5493 169.099 87.634 168.703 88.4257C168.307 89.2174 167.455 88.9535 166.998 88.4257C166.541 87.8979 167.15 90.1613 165.851 89.9685C164.552 89.7756 164.288 88.2633 164.288 88.2633C164.288 88.2633 163.415 89.8365 162.4 89.055C161.385 88.2734 158.979 80.0824 159.487 77.8189C159.994 75.5555 164.146 74.2969 165.932 76.0427Z" fill="#F67770"/>
<path d="M159.193 78.3366C159.193 78.3366 158.228 85.4416 159.426 85.8679C160.624 86.2942 162.146 83.8379 162.146 83.8379C162.146 83.8379 161.192 77.7479 160.583 76.9664C159.974 76.1848 159.193 78.3366 159.193 78.3366Z" fill="#F67770"/>
<path d="M173.098 39.8987C173.098 39.8987 153.387 49.1453 149.509 53.926C145.632 58.7066 156.777 79.9201 156.777 79.9201L166.216 76.1951C166.216 76.1951 160.015 60.2799 162.4 59.4171C164.785 58.5544 177.148 54.5451 177.148 54.5451" fill="#42210B"/>
<path d="M152.855 127.58C154.816 114.219 150.781 102.562 143.842 101.544C136.904 100.526 129.69 110.531 127.728 123.892C125.767 137.253 129.802 148.91 136.741 149.928C143.679 150.947 150.894 140.941 152.855 127.58Z" fill="white"/>
<path d="M165.557 122.479C165.557 122.479 157.061 121.565 156.077 120.956C155.092 120.347 152.443 109.791 151.56 109.923C150.677 110.055 149.743 112.968 149.743 114.065C149.743 115.161 151.144 119.85 150.535 119.779C149.926 119.708 148.505 117.343 147.581 117.861C146.657 118.378 149.784 124.062 151.042 124.489C152.23 124.833 153.436 125.107 154.656 125.311L165.821 129.909" fill="#FFC9B5"/>
<path d="M196.778 118.094C196.778 118.094 181.411 123.484 177.99 123.575C174.57 123.667 160.035 121.444 160.035 121.444C160.035 121.444 157.203 126.519 159.02 128.63C159.02 128.63 173.281 133.329 178.305 133.583C183.329 133.837 198.849 131.847 200.879 129.817C202.909 127.787 196.778 118.094 196.778 118.094Z" fill="#688C03"/>
<path d="M184.436 245.365C184.436 245.365 180.812 242.32 176.752 243.467C172.692 244.614 173.535 247.7 176.092 249.608C178.65 251.516 188.506 258.144 191.541 258.083C194.575 258.022 195.235 255.576 195.296 253.911C195.127 251.333 194.829 248.766 194.403 246.218" fill="#2C1D1A"/>
<path d="M186.689 245.152C186.674 245.265 186.634 245.374 186.572 245.47C186.51 245.566 186.428 245.647 186.331 245.707C186.233 245.767 186.124 245.805 186.011 245.818C185.897 245.831 185.782 245.818 185.674 245.781C184.571 245.432 183.49 245.019 182.436 244.543C182.436 244.543 178.934 244.543 181.066 248.045C183.197 251.546 190.526 252.572 192.789 251.262C195.053 249.953 193.54 246.258 193.54 246.258" fill="#2C1D1A"/>
<path d="M175.92 252.186C175.92 252.186 172.296 249.141 168.236 250.288C164.176 251.435 165.019 254.52 167.576 256.429C170.134 258.337 179.99 264.965 183.025 264.904C186.06 264.843 186.719 262.397 186.78 260.732C186.611 258.154 186.313 255.586 185.887 253.038" fill="#2C1D1A"/>
<path d="M178.173 251.973C178.158 252.086 178.118 252.195 178.056 252.291C177.994 252.387 177.912 252.468 177.815 252.528C177.718 252.588 177.608 252.626 177.495 252.639C177.381 252.652 177.266 252.639 177.158 252.602C176.056 252.253 174.974 251.839 173.92 251.364C173.92 251.364 170.418 251.364 172.55 254.866C174.681 258.367 182.01 259.392 184.273 258.083C186.537 256.774 185.024 253.079 185.024 253.079" fill="#FFC9B5"/>
<path d="M174.377 156.847C173.2 159.516 172.56 197.721 173.007 207.546C173.453 217.371 178.173 251.973 178.173 251.973C178.173 251.973 180.863 256.033 185.38 255.759C189.896 255.485 189.023 251.831 189.023 251.831C189.023 251.831 194.799 254.51 197.326 248.623C198.26 246.441 202.655 185.541 202.655 178.588C202.502 170.302 200.223 162.193 196.037 155.04" fill="#C13D3D"/>
<path d="M189.013 251.821C189.013 251.821 191.754 174.609 191.409 172.346C191.064 170.083 192.16 189.276 192.089 194.524C192.038 198.269 189.805 246.563 189.013 251.821Z" fill="#6D5854"/>
<path d="M174.377 156.847C174.377 156.847 170.378 129.513 176.062 124.367C181.746 119.221 197.519 115.547 200.422 118.115C203.325 120.683 198.95 149.681 196.007 155.061C193.063 160.44 176.478 158.948 174.377 156.847Z" fill="#8CCC00"/>
<path d="M181.563 104.28C181.431 104.666 178.63 115.354 183.512 116.856C188.394 118.358 189.379 112.562 189.866 112.238C190.353 111.913 191.896 111.385 191.805 110.208C191.713 109.03 189.866 109.01 189.866 109.01C189.866 109.01 189.155 105.965 186.953 104.635C184.75 103.306 181.563 104.28 181.563 104.28Z" fill="#FFC9B5"/>
<path d="M186.121 107.244C186.121 107.244 182.061 107.315 180.284 105.559C179.948 105.218 179.687 104.81 179.518 104.363C179.349 103.915 179.275 103.436 179.302 102.958C179.329 102.48 179.455 102.013 179.673 101.587C179.891 101.161 180.196 100.785 180.568 100.484C180.568 100.484 178.955 97.2562 181.989 96.4239C181.989 96.4239 182.274 93.4601 188.333 94.8202C194.393 96.1803 199.935 100.464 200.016 105.985C200.097 111.507 200.503 112.167 202.472 113.445C204.441 114.724 203.893 119.535 198.646 119.769C193.398 120.002 186.242 119.505 185.572 116.917C184.903 114.328 188.881 114.044 189.379 111.456C189.5 110.466 189.225 109.469 188.615 108.68C188.005 107.892 187.109 107.375 186.121 107.244Z" fill="#2C1D1A"/>
<path d="M151.539 138.881C151.539 138.881 146.201 139.176 145.145 138.749C143.465 138.167 141.741 137.722 139.989 137.42C139.741 137.363 139.49 137.319 139.238 137.288C138.72 137.227 137.695 137.014 137.401 137.633C136.761 138.942 139.684 139.43 140.73 139.582C140.73 139.582 140.73 139.582 140.73 139.643C140.334 140.018 134.518 140.932 133.625 141.074C132.732 141.216 132.244 143.946 132.244 143.946C133.391 146.118 136.954 146.26 139.278 146.281C141.603 146.301 144.739 144.251 145.5 144.251C146.261 144.251 152.047 145.367 153.001 144.88C153.955 144.393 151.539 138.881 151.539 138.881Z" fill="#FFC9B5"/>
<path d="M176.529 124.499C174.022 125.514 172.235 127.463 170.084 128.975C168.531 130.071 166.907 131.218 165.303 132.294C163.769 133.471 162.055 134.393 160.228 135.024C157.335 135.816 154.351 136.039 151.408 136.567C150.69 136.61 149.994 136.826 149.378 137.196C148.088 138.303 146.333 143.286 150.991 146.9C154.811 147.218 158.649 147.235 162.471 146.951C167.546 146.443 178.914 139.074 181.756 135.684C183.664 133.38 184.801 129.858 183.644 126.955C183.234 126.02 182.544 125.236 181.67 124.709C180.796 124.182 179.78 123.938 178.762 124.012C177.995 124.044 177.239 124.209 176.529 124.499Z" fill="#8CCC00"/>
<defs>
<linearGradient id="paint0_linear" x1="212.764" y1="279.367" x2="191.135" y2="244.441" gradientUnits="userSpaceOnUse">
<stop stop-color="white" stop-opacity="0"/>
<stop offset="0.99" stop-color="#754C24"/>
</linearGradient>
<linearGradient id="paint1_linear" x1="317.431" y1="210.632" x2="295.538" y2="187.348" gradientUnits="userSpaceOnUse">
<stop stop-color="#FF734D" stop-opacity="0"/>
<stop offset="1" stop-color="#42210B"/>
</linearGradient>
</defs>
</svg>
