<svg width="406" height="306" viewBox="0 0 406 306" fill="none" xmlns="http://www.w3.org/2000/svg">
<path d="M197.194 294.593L14.7784 186.79C8.97262 183.531 3.98897 178.172 9.65267 174.67L192.728 69.1104C195.479 67.4052 199.65 66.2888 202.442 67.9128L393.932 179.086C399.737 182.456 400.783 191.875 394.947 195.255L221.27 294.43C217.618 296.55 213.476 297.681 209.254 297.709C205.031 297.738 200.874 296.663 197.194 294.593Z" fill="#2B9399"/>
<path opacity="0.32" d="M146.282 261.696C167.516 250.866 199.224 235.174 212.511 227.795L195.256 219.675L123.962 248.511C131.168 253.272 138.761 257.433 146.282 261.696Z" fill="url(#paint0_linear)"/>
<path opacity="0.32" d="M123.962 248.511C144.039 239.853 164.501 233.164 173.961 227.917L158.736 220.71L110.97 240.056C117.172 244.35 117.598 244.35 123.962 248.511Z" fill="url(#paint1_linear)"/>
<path d="M205.751 79.6358L206.634 74.1446C206.634 74.1446 206.695 66.9381 207.649 67.0396C208.603 67.1411 209.019 68.755 208.938 70.4703C208.857 72.1857 208.938 79.6053 208.938 79.6053" fill="#E56461"/>
<path d="M207.76 86.4768C207.76 86.4768 212.785 83.2998 213.251 79.6357C213.718 75.9715 208.704 73.3325 208.704 73.3325L207.334 78.306" fill="#E56461"/>
<path d="M203.071 84.66C203.071 84.66 204.086 79.6763 204.086 79.3008C204.086 78.9252 205.466 74.6825 206.857 74.5912C208.248 74.4998 211.191 74.6825 211.567 75.5148C211.942 76.3471 209.537 77.1287 207.963 77.149C207.963 77.149 210.46 79.9402 209.537 83.239C208.818 85.3849 207.385 87.2192 205.477 88.4358" fill="#F67770"/>
<path d="M203 213.23C202.979 213.851 203.095 214.469 203.338 215.041C203.582 215.613 203.948 216.124 204.411 216.539C205.944 217.737 211.628 221.34 212.247 222.223C212.866 223.106 213.952 225.603 212.967 226.689C211.983 227.775 209.79 228.232 206.877 227.704C202.859 226.59 199 224.963 195.398 222.862C193.987 221.756 193.023 208.124 193.023 208.124C193.023 208.124 199.732 205.293 202.35 206.622L203 213.23Z" fill="#42210B"/>
<path d="M165.638 218.346C165.404 218.922 165.299 219.542 165.331 220.163C165.362 220.783 165.529 221.39 165.821 221.939C166.836 223.593 170.896 228.942 171.21 229.988C171.525 231.033 171.647 233.753 170.337 234.423C169.028 235.093 166.825 234.768 164.328 233.246C160.929 230.813 157.859 227.951 155.193 224.73C154.25 223.197 158.076 210.084 158.076 210.084C158.076 210.084 165.343 209.749 167.343 211.911L165.638 218.346Z" fill="#42210B"/>
<path d="M188.607 122.459C188.607 122.459 190.384 126.976 194.941 141.226C200.899 159.841 204.776 208.754 204.776 208.754C204.776 208.754 202.208 211.292 193.083 209.891L179.574 143.622C178.396 145.652 166.592 217.788 166.592 217.788C166.592 217.788 163.324 220.62 151.367 215.991C151.367 215.991 155.051 139.927 162.217 122.449" fill="#E6E6E6"/>
<path d="M165.587 126.356C167.688 126.275 173.535 127.747 177.523 127.452C181.372 127.276 185.181 126.593 188.851 125.422C189.003 124.722 189.135 123.981 189.237 123.169C191.886 102.727 191.175 88.3849 189.237 85.147C187.298 81.9092 175.676 79.3412 170.388 80.813C165.1 82.2847 157.142 88.4458 157.142 88.4458C157.142 88.4458 159.325 105.792 163.232 118.124C164.329 121.606 164.328 121.606 165.587 126.356Z" fill="#42210B"/>
<path d="M178.853 82.7825C180.721 83.1784 181.066 78.012 180.274 77.535C179.482 77.0579 170.743 77.0072 169.393 77.606C166.44 78.9154 169.393 83.29 169.393 83.29" fill="#42210B"/>
<path d="M167.637 61.1831C169.322 60.8887 169.272 58.0873 172.388 56.7983C175.504 55.5092 179.198 57.3565 180.579 58.3512C181.959 59.3459 182.954 57.3362 184.446 58.8689C185.938 60.4015 184.994 62.7868 185.867 63.6292L185.989 63.7307C186.367 64.3676 186.577 65.0906 186.599 65.8312C186.62 66.5719 186.452 67.3057 186.11 67.9633C185.424 68.8753 184.618 69.6911 183.715 70.3891L169.688 77.7073C168.003 76.5096 164.745 65.2431 164.938 63.8424C165.006 63.1536 165.314 62.5106 165.807 62.0249C166.3 61.5391 166.948 61.2413 167.637 61.1831Z" fill="#200904"/>
<path d="M183.035 65.4768C183.674 66.167 181.573 79.6868 177.452 80.174C173.332 80.6612 168.48 75.2208 168.054 73.5968C167.627 71.9728 167.881 63.3148 169.505 62.4927C171.129 61.6705 179.178 61.3254 183.035 65.4768Z" fill="#F67770"/>
<path d="M181.117 61.5689C181.117 61.5689 181.929 64.7154 177.006 65.3041C172.083 65.8928 171.748 66.9992 171.17 68.7247C170.073 71.9625 166.622 75.7383 165.435 66.0045C165.374 65.5376 168.916 58.8995 172.733 58.3514C176.549 57.8033 181.117 61.5689 181.117 61.5689Z" fill="#200904"/>
<path d="M170.733 70.4499C170.733 70.4499 169.19 67.7906 167.993 69.0593C166.795 70.3281 167.658 73.2919 169.282 74.2257" fill="#F67770"/>
<path d="M189.267 85.1778C191.693 89.3941 193.65 93.863 195.103 98.5047C195.103 98.5047 201.538 83.0564 202.787 83.2797C204.035 83.503 208.329 86.1725 208.684 87.969C209.039 89.7656 202.31 113.537 194.058 115.679C185.806 117.82 181.157 99.4385 181.157 99.4385" fill="#42210B"/>
<path opacity="0.32" d="M230.283 268.152C245.508 259.961 284.88 235.875 299.973 227.501L259.373 220.71L199.864 241.751C215.769 250.064 208.278 254.5 230.283 268.152Z" fill="url(#paint2_linear)"/>
<path d="M266.813 216.762C266.152 216.765 265.495 216.665 264.864 216.468L264.57 217.838L296.248 218.406V216.762H266.813Z" fill="#BA4D02"/>
<path d="M264.854 216.519L264.57 217.838L282.058 224.872V223.167C276.161 221.177 270.477 218.884 264.854 216.519Z" fill="#BA4D02"/>
<path d="M281.287 121.474H281.074C280.632 121.43 280.19 121.553 279.833 121.817C279.477 122.082 279.231 122.47 279.145 122.905L259.667 227.531C259.592 227.936 259.661 228.354 259.861 228.713C260.061 229.073 260.38 229.351 260.764 229.5L261.149 229.653C261.391 229.745 261.649 229.783 261.907 229.764C262.164 229.746 262.414 229.671 262.64 229.545C262.865 229.419 263.061 229.246 263.212 229.036C263.363 228.827 263.466 228.587 263.514 228.333L283.002 123.565L281.287 121.474Z" fill="#BA4D02"/>
<path d="M300.207 227.988L287.306 122.753C287.257 122.373 287.074 122.024 286.788 121.768C286.503 121.513 286.136 121.369 285.753 121.362H284.941C284.719 121.366 284.501 121.417 284.3 121.511C284.099 121.605 283.92 121.74 283.774 121.907C283.629 122.075 283.52 122.271 283.455 122.483C283.391 122.695 283.371 122.918 283.398 123.139L296.329 228.607C296.355 228.831 296.429 229.046 296.545 229.238C296.662 229.431 296.818 229.596 297.004 229.723C297.189 229.85 297.4 229.936 297.622 229.974C297.843 230.013 298.071 230.004 298.288 229.947L299.049 229.764C299.429 229.666 299.758 229.429 299.972 229.1C300.186 228.772 300.27 228.375 300.207 227.988Z" fill="#BA4D02"/>
<path d="M281.997 237.823C282.273 237.861 282.552 237.839 282.819 237.76C283.085 237.681 283.331 237.547 283.541 237.365C283.752 237.184 283.921 236.96 284.038 236.708C284.155 236.456 284.217 236.183 284.22 235.905L285.52 121.362H284.931C284.119 121.362 283.307 121.362 282.515 121.474C282.197 121.492 281.879 121.492 281.561 121.474L280.262 235.834C280.257 236.312 280.427 236.775 280.738 237.138C281.05 237.5 281.483 237.737 281.957 237.803L281.997 237.823Z" fill="#BA4D02"/>
<path d="M270.305 108.117C268.011 108.056 263.2 102.291 261.708 100.565C259.07 97.6505 256.881 94.3597 255.212 90.8009C245.934 70.7141 258.358 43.7557 281.49 42.1621C283.129 42.0677 284.773 42.0677 286.413 42.1621C301.638 42.8625 313.168 57.9961 314.569 72.2772C315.164 79.482 313.902 86.7191 310.905 93.2978C309.459 96.4225 307.515 99.2917 305.15 101.793C303.505 103.539 298.562 108.898 296.015 108.817L270.305 108.117Z" fill="#68A2AF"/>
<path d="M277.643 109.619L274.7 69.4754C274.7 69.4754 269.3 59.6198 265.565 66.5928C261.829 73.5659 269.625 78.1232 285.611 77.4432C301.597 76.7631 304.49 69.2115 301.008 66.2782C297.527 63.3448 291.711 67.3947 291.427 69.445C291.143 71.4953 287.824 109.588 287.824 109.588" stroke="#F2F2F2" stroke-width="2.03" stroke-miterlimit="10"/>
<path d="M298.39 107.477H268.488C265.937 107.477 263.87 109.542 263.87 112.09C263.87 114.638 265.937 116.703 268.488 116.703H298.39C300.94 116.703 303.008 114.638 303.008 112.09C303.008 109.542 300.94 107.477 298.39 107.477Z" fill="#CCCCCC"/>
<path d="M298.39 116.714H268.488C265.937 116.714 263.87 118.779 263.87 121.327C263.87 123.875 265.937 125.94 268.488 125.94H298.39C300.94 125.94 303.008 123.875 303.008 121.327C303.008 118.779 300.94 116.714 298.39 116.714Z" fill="#CCCCCC"/>
<path d="M272.538 116.622C271.194 115.843 270.199 114.579 269.757 113.09C269.492 112.15 269.426 111.165 269.564 110.199C269.702 109.232 270.041 108.305 270.558 107.477H268.528C267.342 107.533 266.223 108.043 265.404 108.902C264.584 109.761 264.127 110.903 264.127 112.09C264.127 113.278 264.584 114.419 265.404 115.278C266.223 116.137 267.342 116.648 268.528 116.703H272.446L272.538 116.622Z" fill="#B5B4B4"/>
<path d="M269.564 122.246C269.449 121.147 269.656 120.039 270.161 119.057C270.666 118.074 271.446 117.26 272.406 116.714H268.488C267.302 116.77 266.183 117.28 265.363 118.139C264.543 118.998 264.086 120.14 264.086 121.327C264.086 122.514 264.543 123.656 265.363 124.515C266.183 125.374 267.302 125.885 268.488 125.94H271.381C270.32 124.99 269.669 123.666 269.564 122.246Z" fill="#B5B4B4"/>
<path d="M273.999 34.9455L269.939 30.8855C269.622 30.5127 269.231 30.2095 268.791 29.995C268.351 29.7804 267.871 29.6592 267.382 29.6388C266.893 29.6184 266.405 29.6994 265.948 29.8766C265.492 30.0538 265.077 30.3235 264.73 30.6686C264.383 31.0138 264.11 31.427 263.93 31.8823C263.75 32.3376 263.666 32.8252 263.684 33.3145C263.701 33.8037 263.82 34.2842 264.031 34.7255C264.243 35.1669 264.544 35.5597 264.915 35.8793L268.589 39.5536L269.005 39.9698C269.335 40.2997 269.727 40.5614 270.158 40.7399C270.589 40.9185 271.051 41.0104 271.518 41.0104C271.984 41.0104 272.446 40.9185 272.877 40.7399C273.308 40.5614 273.7 40.2997 274.03 39.9698C274.36 39.6399 274.621 39.2483 274.8 38.8172C274.978 38.3862 275.07 37.9242 275.07 37.4577C275.07 36.9911 274.978 36.5291 274.8 36.0981C274.621 35.6671 274.36 35.2754 274.03 34.9455H273.999Z" fill="#68A2AF"/>
<path d="M280.668 21.72V30.3576C280.668 34.9251 287.773 34.9353 287.773 30.3576V21.72C287.773 17.1525 280.668 17.1423 280.668 21.72Z" fill="#68A2AF"/>
<path d="M303.993 30.7329C303.317 30.0835 302.417 29.7207 301.48 29.7207C300.544 29.7207 299.643 30.0835 298.968 30.7329L294.462 35.0771C293.795 35.7433 293.421 36.647 293.421 37.5892C293.421 38.5314 293.795 39.4351 294.462 40.1013C295.128 40.7676 296.032 41.1419 296.974 41.1419C297.916 41.1419 298.82 40.7676 299.486 40.1013L303.993 35.7571C304.651 35.087 305.021 34.1848 305.021 33.245C305.021 32.3052 304.651 31.403 303.993 30.7329Z" fill="#68A2AF"/>
<path d="M187.856 135.623L173.413 127.127L199.133 110.339L212.785 115.749" fill="#3129A3"/>
<path d="M187.856 134.172C187.623 133.086 194.839 112.776 194.839 112.776L224.569 95.876L215.434 119.018L187.805 135.613L187.856 134.172Z" fill="#68A2AF"/>
<path d="M207.761 119.302C208.592 117.55 208.548 115.788 207.662 115.368C206.775 114.947 205.383 116.027 204.552 117.779C203.72 119.532 203.765 121.293 204.651 121.713C205.537 122.134 206.93 121.054 207.761 119.302Z" fill="#3129A3"/>
<path d="M178.254 132.7L182.527 131.127C182.527 131.127 186.171 129.655 187.024 130.325C187.876 130.995 183.827 133.075 183.035 133.593C182.243 134.111 189.287 134.679 189.795 135.329C190.302 135.978 189.734 136.587 189.135 136.78C188.536 136.973 190.658 137.348 189.978 138.363C189.735 138.652 189.415 138.864 189.055 138.976C188.695 139.087 188.311 139.093 187.948 138.993C187.948 138.993 188.902 140.333 187.846 140.901C186.79 141.469 178.914 140.18 177.219 138.871C175.524 137.562 176.062 133.532 178.254 132.7Z" fill="#F67770"/>
<path d="M177.473 139.318C177.473 139.318 183.055 142.962 183.908 142.139C184.76 141.317 183.309 139.094 183.309 139.094C183.309 139.094 177.757 137.44 176.894 137.663C176.031 137.887 177.473 139.318 177.473 139.318Z" fill="#F67770"/>
<path d="M157.173 88.4766C157.173 88.4766 150.22 102.616 154.99 113.618C159.761 124.621 174.072 137.603 174.072 137.603L178.082 130.498L167.475 108.249" fill="#42210B"/>
<path d="M136.883 76.0327V78.692L69.3042 117.8L46.9235 104.503V102.067" fill="#739BE0"/>
<path d="M136.883 76.0326L114.634 63.335L46.9235 102.067L69.5377 115.12L136.883 76.0326Z" fill="#A4C0FF"/>
<path d="M103.956 62.6649C105.184 61.457 105.083 61.0409 105.235 59.4473C106.88 58.8586 109.417 57.4884 111.873 57.6609C113.629 57.7827 115.933 58.9906 117.334 59.4473C118.085 61.9341 118.572 63.2028 120.958 64.4614C121.507 64.7391 122.073 64.9831 122.653 65.1922C123.338 65.444 123.915 65.9255 124.285 66.5547C124.655 67.1839 124.795 67.922 124.683 68.6432C123.972 73.2107 121.313 80.9958 111.488 80.9958C100.759 80.9958 99.0742 71.9521 98.8712 67.6384C98.8511 67.2229 98.9444 66.8098 99.1411 66.4433C99.3378 66.0768 99.6304 65.7706 99.9877 65.5576C101.419 64.7515 102.751 63.7806 103.956 62.6649Z" fill="#68A2AF"/>
<path d="M111.285 61.6905C114.626 61.6905 117.334 60.6771 117.334 59.427C117.334 58.177 114.626 57.1636 111.285 57.1636C107.944 57.1636 105.235 58.177 105.235 59.427C105.235 60.6771 107.944 61.6905 111.285 61.6905Z" fill="#200904"/>
<path d="M117.74 52.5152C117.03 55.2354 116.532 58.0267 116.106 60.7875C115.916 60.8957 115.724 60.9972 115.527 61.0919L114.654 61.366L114.269 61.4574C114.724 58.2775 115.344 55.1234 116.126 52.0077C116.126 51.8453 116.055 51.6829 116.015 51.5205C115.223 50.6374 114.066 49.1048 115.274 48.374C116.004 47.9375 116.563 48.374 116.969 49.1048C118.095 45.3942 119.894 41.9226 122.277 38.8634C121.638 37.686 121.8 35.8185 121.942 34.5802C122.084 33.3419 122.48 31.6772 123.678 31.1697C123.84 31.0865 124.025 31.0545 124.206 31.0781C124.387 31.1017 124.557 31.1796 124.693 31.3017C125.373 31.9412 125.292 33.1084 125.292 33.961C125.292 34.5599 125.292 35.1587 125.292 35.7474C125.718 35.382 126.144 35.0064 126.611 34.6613C126.999 33.0402 127.939 31.6047 129.27 30.6013C130.214 29.9517 131.98 29.2108 132.924 30.2461C135.147 32.6719 129.504 35.4226 127.931 36.0316C127.821 36.0768 127.704 36.0976 127.586 36.0925C126.985 36.5634 126.409 37.0648 125.86 37.5947C126.824 37.3267 127.83 37.2474 128.824 37.3612C129.971 37.5033 131.808 38.0514 132.041 39.3912C132.589 42.6494 125.048 41.137 123.576 40.731C123.428 40.6917 123.294 40.6107 123.191 40.4976C122.28 41.6944 121.475 42.9679 120.785 44.3038C121.688 43.8292 122.68 43.5492 123.698 43.4817C124.764 43.4208 126.743 43.4817 127.311 44.5779C127.961 45.8974 126.378 46.6891 125.393 47.0139C123.638 47.483 121.811 47.6275 120.003 47.4402C119.793 47.4345 119.593 47.3472 119.445 47.1966C119.049 48.2116 118.714 49.2266 118.43 50.2416C120.166 49.0134 123.272 48.5059 124.52 50.2416C124.597 50.3724 124.637 50.5213 124.637 50.673C124.637 50.8246 124.597 50.9735 124.52 51.1043C124.145 51.8859 122.927 52.0077 122.186 52.2107C120.999 52.5242 119.796 52.7749 118.582 52.9618C118.414 52.9758 118.245 52.9411 118.096 52.862C117.946 52.7828 117.823 52.6625 117.74 52.5152Z" fill="#3129A3"/>
<path d="M119.912 40.1423C120.775 39.4419 121.942 38.1123 121.12 36.9755C120.298 35.8387 118.664 36.742 117.781 37.2698C117.181 37.6327 116.649 38.0962 116.207 38.6401C116.725 36.8029 117.222 34.9759 117.892 33.1692C118.303 33.2932 118.736 33.3323 119.162 33.284C119.589 33.2358 120.002 33.1012 120.375 32.8885C120.748 32.6759 121.074 32.3895 121.333 32.0469C121.592 31.7043 121.778 31.3126 121.881 30.8956C122.358 28.9468 121.881 26.4905 119.719 25.8206C118.844 25.5371 117.897 25.5756 117.048 25.9291C116.199 26.2826 115.504 26.9279 115.089 27.7485C114.674 28.5691 114.565 29.5111 114.783 30.4046C115.002 31.298 115.532 32.0841 116.278 32.6211C115.923 33.6361 115.608 34.6511 115.263 35.6661C115.013 34.6718 114.594 33.7277 114.025 32.8749C113.193 31.6569 111.995 30.3374 110.412 30.8449C110.299 30.8795 110.194 30.9375 110.105 31.0152C110.016 31.0928 109.944 31.1884 109.894 31.2956C109.845 31.4028 109.818 31.5193 109.816 31.6375C109.814 31.7557 109.837 31.873 109.884 31.9817C110.158 34.9556 111.914 37.1683 113.944 39.2288C114.011 39.2969 114.09 39.352 114.177 39.3912C113.883 40.4975 113.65 41.6242 113.396 42.7305C112.969 40.1727 111.995 37.2089 109.671 38.2645C106.413 39.7363 110.686 44.862 111.914 46.283C112 46.3707 112.105 46.4374 112.222 46.4779C112.338 46.5183 112.462 46.5315 112.584 46.5165C111.627 51.5402 111.06 56.6304 110.889 61.7415C111.183 61.7415 111.477 61.7415 111.772 61.7415C112.066 61.7415 112.33 61.7415 112.604 61.7415C112.755 57.5265 113.179 53.3258 113.873 49.1656H113.924C114.974 48.6655 115.951 48.0235 116.826 47.2574C117.466 46.5469 118.308 45.4101 117.841 44.4154C117.703 44.2018 117.522 44.0185 117.31 43.8765C117.099 43.7346 116.86 43.637 116.61 43.5896C116.36 43.5422 116.102 43.5459 115.853 43.6006C115.605 43.6553 115.369 43.7599 115.162 43.9079C115.071 43.9587 114.989 44.0297 114.908 44.0906C115.04 43.5019 115.142 42.9132 115.284 42.3347C115.348 42.3421 115.412 42.3421 115.477 42.3347C117.109 41.9674 118.629 41.2158 119.912 40.1423ZM118.897 27.3533C120.308 27.5969 120.521 29.2818 120.227 30.3983C119.932 31.5148 118.785 31.6975 117.74 31.3118C117.636 31.2912 117.529 31.2912 117.425 31.3118C115.659 30.0227 116.542 26.9371 118.907 27.3533H118.897Z" fill="#3129A3"/>
<path d="M85.8487 34.0219C86.8087 33.8292 87.8043 33.9271 88.7083 34.3032C89.6123 34.6793 90.3837 35.3164 90.9237 36.1331C91.0325 36.1579 91.1337 36.2087 91.2185 36.2812C91.3034 36.3537 91.3694 36.4456 91.4109 36.5492C91.8372 36.7624 92.2229 37.006 92.6188 37.2293C92.2167 36.4944 91.9664 35.6863 91.8827 34.8529C91.799 34.0194 91.8836 33.1777 92.1316 32.3776C92.1857 32.2225 92.2835 32.0864 92.4131 31.9855C92.5427 31.8847 92.6987 31.8235 92.8624 31.8092C92.963 31.7876 93.0669 31.7863 93.168 31.8055C93.2691 31.8247 93.3653 31.8639 93.4511 31.9208L93.5627 31.9919C94.3641 32.8125 94.9516 33.8173 95.2737 34.9181C95.5958 36.019 95.6426 37.182 95.41 38.3052C95.3837 38.5028 95.2906 38.6855 95.1461 38.8228C102.525 44.1211 106.392 52.7283 108.544 61.5893C107.89 61.4549 107.253 61.2472 106.646 60.9701C104.535 52.8501 100.901 45.1158 94.1413 40.2337C93.1263 42.3246 90.8222 43.0249 88.6298 43.1975C88.5138 43.2134 88.3956 43.2005 88.2859 43.1597C88.1761 43.119 88.078 43.0518 88.0005 42.964C87.7798 42.8643 87.6078 42.6811 87.5221 42.4546C87.4365 42.2282 87.4443 41.9769 87.5438 41.7562C88.1288 40.8658 88.9565 40.1614 89.929 39.7262C90.588 39.3248 91.3079 39.0334 92.0605 38.8634C91.4447 38.5048 90.8087 38.1665 90.1523 37.8484C89.2052 37.8168 88.2782 37.5667 87.4436 37.1177C86.6091 36.6688 85.8896 36.0331 85.3412 35.2602C85.2799 35.1476 85.2445 35.0228 85.2374 34.8949C85.2304 34.7669 85.252 34.639 85.3006 34.5204C85.3492 34.4018 85.4236 34.2955 85.5184 34.2093C85.6132 34.1231 85.7261 34.059 85.8487 34.0219Z" fill="#3129A3"/>
<path d="M98.8611 35.9198C98.9519 35.8181 99.0672 35.7412 99.1961 35.6965C99.3873 35.585 99.614 35.5513 99.8293 35.6023C100.045 35.6533 100.232 35.7852 100.353 35.9705C101.612 37.8483 101.368 41.2891 100.211 43.1466C100.123 43.2762 100.003 43.3802 99.8623 43.4481C99.7214 43.516 99.5651 43.5452 99.4092 43.5328C99.2533 43.5204 99.1035 43.4668 98.9751 43.3776C98.8467 43.2883 98.7443 43.1666 98.6784 43.0248C98.5341 42.9314 98.421 42.7971 98.3536 42.6391C97.4401 40.4162 97.1356 37.8077 98.8611 35.9198Z" fill="#3129A3"/>
<path d="M103.591 41.411C103.682 41.3093 103.797 41.2324 103.926 41.1877C104.117 41.0762 104.344 41.0425 104.559 41.0935C104.775 41.1445 104.962 41.2764 105.083 41.4617C106.342 43.3395 106.098 46.7803 104.941 48.6378C104.853 48.7674 104.733 48.8715 104.592 48.9393C104.451 49.0072 104.295 49.0364 104.139 49.024C103.983 49.0116 103.833 48.9581 103.705 48.8688C103.577 48.7795 103.474 48.6578 103.408 48.516C103.264 48.4226 103.151 48.2883 103.083 48.1303C102.19 45.9176 101.865 43.309 103.591 41.411Z" fill="#3129A3"/>
<path d="M91.9996 45.7347C91.8823 45.6656 91.7845 45.5678 91.7154 45.4505C91.5633 45.2902 91.4786 45.0777 91.4786 44.8567C91.4786 44.6358 91.5633 44.4232 91.7154 44.263C93.3191 42.6694 96.7397 42.233 98.8204 43.0348C98.9632 43.0964 99.0871 43.1947 99.1797 43.3196C99.2723 43.4444 99.3303 43.5916 99.3478 43.7461C99.3653 43.9005 99.3417 44.0569 99.2794 44.1994C99.2171 44.3418 99.1183 44.4653 98.993 44.5573C98.9283 44.714 98.8188 44.8481 98.6783 44.943C96.6889 46.2524 94.192 47.0745 91.9996 45.7347Z" fill="#3129A3"/>
<path d="M95.6739 49.4698C95.5825 49.3658 95.5195 49.24 95.4912 49.1044C95.4037 48.9005 95.3981 48.6707 95.4756 48.4628C95.5531 48.2549 95.7077 48.0848 95.9073 47.9879C97.9373 46.9729 101.317 47.6225 103.012 49.0029C103.129 49.1055 103.217 49.2371 103.267 49.3845C103.317 49.5319 103.327 49.6898 103.296 49.8423C103.265 49.9948 103.194 50.1364 103.091 50.2528C102.988 50.3691 102.856 50.4562 102.708 50.5051C102.596 50.6371 102.448 50.7326 102.282 50.7792C99.9572 51.4186 97.3283 51.4085 95.6739 49.4698Z" fill="#3129A3"/>
<path d="M99.6323 65.7812C101.754 67.3749 104.19 67.8722 106.961 68.2579C108.534 68.4812 111.731 69.7196 111.021 71.4552C110.858 71.8409 110.087 72.1454 109.813 72.4702C109.337 72.8918 108.986 73.436 108.798 74.0434C108.443 75.7994 110.077 77.0884 111.609 77.4437C112.975 77.5911 114.356 77.4599 115.669 77.058C116.492 76.9159 118.816 76.1648 119.537 76.7434C119.894 77.0125 120.186 77.3596 120.389 77.7584C119.182 78.8522 117.771 79.6961 116.236 80.2414C114.701 80.7867 113.073 81.0225 111.447 80.9353C100.718 80.9353 99.0334 71.8916 98.8304 67.5779C98.8218 67.2376 98.8893 66.8997 99.028 66.5889C99.1667 66.278 99.3732 66.002 99.6323 65.7812Z" fill="#3129A3"/>
<path d="M75.9829 60.2596L79.7181 58.1484L98.861 69.2728L98.2926 93.4603L94.8112 95.6527" fill="#F2F2F2"/>
<path d="M94.8112 71.4852V95.6523L75.9829 85.3907V60.2593L94.8112 71.4852Z" fill="#68A2AF"/>
<path d="M70.0756 64.0048L73.8209 61.8936L92.9537 73.0179L92.3954 97.2054L88.9038 99.3877" fill="#F2F2F2"/>
<path d="M88.9038 75.2308V99.3878L70.0756 89.1363V64.0049L88.9038 75.2308Z" fill="#68A2AF"/>
<defs>
<linearGradient id="paint0_linear" x1="159.385" y1="264.711" x2="180.173" y2="202.329" gradientUnits="userSpaceOnUse">
<stop stop-color="#FFC49E"/>
<stop offset="1" stop-color="#F15A24"/>
</linearGradient>
<linearGradient id="paint1_linear" x1="8287.82" y1="7487.3" x2="8548.31" y2="5716.96" gradientUnits="userSpaceOnUse">
<stop stop-color="#FFC49E"/>
<stop offset="1" stop-color="#F15A24"/>
</linearGradient>
<linearGradient id="paint2_linear" x1="24028.9" y1="12317.7" x2="24480" y2="9461.86" gradientUnits="userSpaceOnUse">
<stop stop-color="#62ABBC"/>
<stop offset="1" stop-color="#97D8DD"/>
</linearGradient>
</defs>
</svg>
