<svg width="121" height="47" viewBox="0 0 121 47" fill="none" xmlns="http://www.w3.org/2000/svg">
<rect width="121" height="47" fill="#65B1EF" fill-opacity="0.31"/>
<path d="M52.1816 28.6201H58.2461V30H50.4854V17.2031H52.1816V28.6201ZM59.4854 25.1572C59.4854 24.2256 59.667 23.3877 60.0303 22.6436C60.3994 21.8994 60.9092 21.3252 61.5596 20.9209C62.2158 20.5166 62.9629 20.3145 63.8008 20.3145C65.0957 20.3145 66.1416 20.7627 66.9385 21.6592C67.7412 22.5557 68.1426 23.748 68.1426 25.2363V25.3506C68.1426 26.2764 67.9639 27.1084 67.6064 27.8467C67.2549 28.5791 66.748 29.1504 66.0859 29.5605C65.4297 29.9707 64.6738 30.1758 63.8184 30.1758C62.5293 30.1758 61.4834 29.7275 60.6807 28.8311C59.8838 27.9346 59.4854 26.748 59.4854 25.2715V25.1572ZM61.1201 25.3506C61.1201 26.4053 61.3633 27.252 61.8496 27.8906C62.3418 28.5293 62.998 28.8486 63.8184 28.8486C64.6445 28.8486 65.3008 28.5264 65.7871 27.8818C66.2734 27.2314 66.5166 26.3232 66.5166 25.1572C66.5166 24.1143 66.2676 23.2705 65.7695 22.626C65.2773 21.9756 64.6211 21.6504 63.8008 21.6504C62.998 21.6504 62.3506 21.9697 61.8584 22.6084C61.3662 23.2471 61.1201 24.1611 61.1201 25.3506ZM69.7949 25.166C69.7949 23.6836 70.1377 22.5059 70.8232 21.6328C71.5088 20.7539 72.417 20.3145 73.5479 20.3145C74.708 20.3145 75.6133 20.7246 76.2637 21.5449L76.3428 20.4902H77.8281V29.7715C77.8281 31.002 77.4619 31.9717 76.7295 32.6807C76.0029 33.3896 75.0244 33.7441 73.7939 33.7441C73.1084 33.7441 72.4375 33.5977 71.7812 33.3047C71.125 33.0117 70.624 32.6104 70.2783 32.1006L71.1221 31.125C71.8193 31.9863 72.6719 32.417 73.6797 32.417C74.4707 32.417 75.0859 32.1943 75.5254 31.749C75.9707 31.3037 76.1934 30.6768 76.1934 29.8682V29.0508C75.543 29.8008 74.6553 30.1758 73.5303 30.1758C72.417 30.1758 71.5146 29.7275 70.8232 28.8311C70.1377 27.9346 69.7949 26.7129 69.7949 25.166ZM71.4297 25.3506C71.4297 26.4229 71.6494 27.2666 72.0889 27.8818C72.5283 28.4912 73.1436 28.7959 73.9346 28.7959C74.96 28.7959 75.7129 28.3301 76.1934 27.3984V23.0566C75.6953 22.1484 74.9482 21.6943 73.9521 21.6943C73.1611 21.6943 72.543 22.002 72.0977 22.6172C71.6523 23.2324 71.4297 24.1436 71.4297 25.3506ZM82.0557 30H80.4297V20.4902H82.0557V30ZM80.2979 17.9678C80.2979 17.7041 80.377 17.4814 80.5352 17.2998C80.6992 17.1182 80.9395 17.0273 81.2559 17.0273C81.5723 17.0273 81.8125 17.1182 81.9766 17.2998C82.1406 17.4814 82.2227 17.7041 82.2227 17.9678C82.2227 18.2314 82.1406 18.4512 81.9766 18.627C81.8125 18.8027 81.5723 18.8906 81.2559 18.8906C80.9395 18.8906 80.6992 18.8027 80.5352 18.627C80.377 18.4512 80.2979 18.2314 80.2979 17.9678ZM86.2041 20.4902L86.2568 21.6855C86.9834 20.7715 87.9326 20.3145 89.1045 20.3145C91.1143 20.3145 92.1279 21.4482 92.1455 23.7158V30H90.5195V23.707C90.5137 23.0215 90.3555 22.5146 90.0449 22.1865C89.7402 21.8584 89.2627 21.6943 88.6123 21.6943C88.085 21.6943 87.6221 21.835 87.2236 22.1162C86.8252 22.3975 86.5146 22.7666 86.292 23.2236V30H84.666V20.4902H86.2041Z" fill="white"/>
</svg>
