<svg width="580" height="580" viewBox="0 0 580 580" fill="none" xmlns="http://www.w3.org/2000/svg">
<path d="M579.461 290.001C579.461 449.877 449.856 579.482 289.981 579.482C130.105 579.482 0.5 449.877 0.5 290.001C0.5 130.125 130.105 0.520386 289.981 0.520386C449.856 0.520386 579.461 130.125 579.461 290.001Z" stroke="#EBFF00"/>
<path d="M149.056 533.333C149.002 533.441 148.929 533.514 148.875 533.623C149.31 533.732 149.728 533.877 150.163 533.968L149.056 533.333Z" fill="#EBFF00"/>
<path d="M145.986 118.555L145.986 118.555L145.992 118.555C147.186 118.503 148.173 118.797 149.231 119.112C149.564 119.211 149.903 119.313 150.259 119.406C151.34 119.689 152.485 119.862 153.828 119.554C153.017 120.473 151.996 121.236 150.923 122.025C147.768 124.268 144.637 126.489 141.012 127.333C137.402 128.157 133.274 127.259 131.246 124.371L130.975 123.819C133.122 123.356 134.364 122.344 135.444 121.309C135.602 121.158 135.756 121.007 135.907 120.859C136.885 119.9 137.768 119.034 139.25 118.53C140.285 118.189 140.941 118.038 141.408 117.989C141.856 117.941 142.135 117.988 142.425 118.068C142.507 118.09 142.6 118.12 142.704 118.152C142.957 118.231 143.275 118.331 143.649 118.405C144.204 118.516 144.925 118.588 145.986 118.555Z" stroke="#EBFF00"/>
<path d="M188.325 383.082L188.325 383.076C188.43 380.573 187.218 378.637 185.255 376.943C183.308 375.264 180.684 373.877 178.009 372.462L177.875 372.392C175.184 370.969 172.447 369.511 170.48 367.714C168.612 366.009 167.392 363.953 167.567 361.301C161.776 360.832 155.952 360.418 150.147 360.006C148.754 359.907 147.362 359.808 145.971 359.709L145.607 359.683L145.521 359.328C144.563 355.401 141.035 352.732 137.041 351.866C133.312 351.058 129.313 351.849 126.788 354.525C126.638 354.765 126.444 354.991 126.202 355.198L125.484 354.509C125.639 354.31 125.801 354.12 125.968 353.937C126.374 353.221 126.261 352.27 125.709 351.346C125.018 350.191 123.755 349.315 122.477 349.345L122.465 349.346C121.125 349.346 119.896 349.879 118.733 350.711C117.566 351.546 116.499 352.659 115.483 353.775L115.03 354.273L114.684 353.694C113.409 351.559 114.265 349.067 115.828 347.456C117.245 345.995 119.406 345.09 121.419 345.823C122.117 342.043 122.666 338.021 122.433 334.254C122.188 330.283 121.078 326.644 118.403 323.873C115.052 320.427 110.258 319.365 105.198 318.371C104.983 318.328 104.767 318.286 104.552 318.244C99.7513 317.306 94.7693 316.333 91.0164 313.164C89.2787 311.745 87.9616 309.956 86.7414 308.137C86.4602 307.718 86.1847 307.298 85.9106 306.88C84.9833 305.467 84.0716 304.078 83.0042 302.811C77.5484 296.396 68.8531 293.866 60.493 291.572C57.7823 290.839 55.0533 290.188 52.5946 291.104L52.5902 291.106C51.4041 291.535 50.3964 292.303 49.4149 293.22C48.9661 293.639 48.5303 294.082 48.0855 294.534L47.9599 294.662C47.4744 295.155 46.9771 295.656 46.4566 296.125L46.4526 296.129C42.6546 299.481 37.4964 301.179 32.4523 300.736C32.6009 301.427 32.7509 302.099 32.9518 302.782L32.0458 303.185C29.1944 298.53 27.3844 293.203 27.1807 287.734C27.15 287.057 27.1345 286.376 27.119 285.694C27.0829 284.112 27.047 282.531 26.8205 281.024C26.5003 278.892 25.8103 277.03 24.2726 275.698C23.9955 275.472 23.693 275.265 23.3726 275.055C23.2844 274.997 23.1939 274.939 23.1022 274.879C22.866 274.726 22.6218 274.568 22.389 274.405C21.7376 273.951 21.0876 273.406 20.6685 272.611C19.9831 271.342 20.1447 269.879 20.3424 268.638C20.963 263.808 21.5937 259.018 22.2268 254.209C22.4319 252.651 22.6372 251.092 22.8425 249.529C22.1307 249.09 21.4355 249.026 20.7642 249.211C19.9924 249.424 19.2092 249.98 18.4747 250.795C17.0049 252.425 15.8624 254.943 15.4859 257.12C15.1095 259.459 13.9452 262.17 12.3704 263.98C11.5821 264.886 10.6585 265.603 9.641 265.902C8.59881 266.209 7.50374 266.063 6.44753 265.325L6.20103 265.153L6.23773 264.854C8.27785 248.26 13.2686 232.068 20.8272 217.188L21.6159 215.635L21.771 217.37C21.8544 218.302 22.4351 219.127 23.2565 219.643C23.929 220.066 24.7267 220.258 25.48 220.147C24.8409 218.04 25.5634 215.963 26.9026 214.272C28.3544 212.44 30.5756 210.992 32.7976 210.311C34.2822 209.856 35.857 209.559 37.3972 209.269C38.0968 209.137 38.7892 209.007 39.4629 208.864C41.6533 208.398 43.7055 207.788 45.4543 206.567L45.4574 206.565C47.8698 204.908 49.3764 202.34 50.8984 199.597C50.9811 199.448 51.0639 199.298 51.1469 199.148C52.57 196.575 54.0539 193.893 56.3652 191.964L56.3665 191.963C57.0769 191.374 57.871 190.829 58.6452 190.299L58.6863 190.271C59.4535 189.746 60.2002 189.236 60.8689 188.691C62.2311 187.58 63.1746 186.402 63.2649 184.848C63.2876 184 63.0377 183.177 62.7122 182.292C62.655 182.137 62.5951 181.979 62.5343 181.818C62.2583 181.09 61.9629 180.311 61.8206 179.514C61.4265 177.411 62.1102 175.407 63.3083 173.709C64.5055 172.011 66.2379 170.584 68.0251 169.602L68.0359 169.596L68.036 169.596C69.5176 168.829 71.0832 168.229 72.6134 167.643C72.9429 167.516 73.2707 167.391 73.5957 167.264C75.4453 166.544 77.2189 165.79 78.8019 164.708L78.8095 164.703L78.8095 164.703C81.4188 162.99 83.3422 160.581 85.0285 157.877C85.8715 156.526 86.6507 155.108 87.4273 153.673C87.5367 153.47 87.646 153.268 87.7555 153.065C88.421 151.832 89.091 150.59 89.7971 149.386C89.7972 149.386 89.7973 149.385 89.7974 149.385L90.2287 149.638C93.4414 144.12 98.6871 138.602 105.113 139.129L188.325 383.082ZM188.325 383.082C188.263 385.279 187.073 387.229 185.846 389.239C185.735 389.421 185.624 389.604 185.513 389.787M188.325 383.082L135.495 495.981M135.495 495.981C136.191 494.615 136.091 492.985 135.425 491.512C134.695 489.897 133.32 488.554 131.734 488.05L131.941 487.077C134.743 487.388 137.607 487.699 140.426 487.947C141.533 483.916 142.644 479.884 143.755 475.853L143.755 475.852L143.772 475.789C144.915 471.644 146.057 467.5 147.195 463.355L147.197 463.346C147.226 463.248 147.255 463.15 147.284 463.051C147.778 461.373 148.328 459.506 149.431 458.003C151.307 455.361 154.209 454.208 157.198 453.342C157.927 453.131 158.659 452.937 159.386 452.744C161.694 452.132 163.956 451.533 165.928 450.436C170.404 447.906 172.563 443.461 173.693 438.236C174.553 434.258 174.803 429.901 175.046 425.677C175.123 424.334 175.199 423.004 175.294 421.704C176.08 410.461 179.645 399.366 185.513 389.787M135.495 495.981C133.773 495.244 131.861 495.388 130.156 496.092C128.308 496.855 126.658 498.293 125.675 500.074L125.671 500.083C123.824 503.586 124.111 507.802 125.104 511.535L125.105 511.54C128.123 522.382 137.255 531.159 148.092 534.01C147.199 535.12 145.707 535.472 143.924 535.268C141.881 535.034 139.611 534.073 137.884 532.901L137.883 532.9C112.586 515.794 93.4884 489.735 84.7725 460.459C84.1052 458.217 83.4898 455.945 82.8718 453.664C82.7774 453.315 82.683 452.967 82.5884 452.618C81.8744 449.988 81.1466 447.352 80.3252 444.759C78.6827 439.574 76.6595 434.54 73.5987 430.027C71.0507 426.224 67.8576 422.935 64.7014 419.683L64.6859 419.668C61.5139 416.4 58.38 413.17 55.8866 409.449C52.7196 404.608 50.715 399.115 48.6955 393.58C48.4832 392.998 48.2707 392.416 48.0567 391.834C45.8162 385.741 43.4098 379.685 39.2475 374.666C38.6845 373.974 38.0898 373.269 37.486 372.553C35.5929 370.308 33.6106 367.958 32.2361 365.572C30.4311 362.438 29.7801 359.423 31.6528 356.639L31.6558 356.635C32.0429 356.045 32.5455 355.455 33.0818 354.842C33.1408 354.774 33.2003 354.706 33.2601 354.638C33.7345 354.097 34.2253 353.537 34.6403 352.971C35.5665 351.71 36.2517 350.237 35.4198 348.65L35.4184 348.647C35.147 348.137 34.7447 347.743 34.3541 347.404C34.2123 347.281 34.0761 347.168 33.9443 347.059C33.6933 346.85 33.4584 346.655 33.2314 346.429C32.0052 345.11 31.7846 343.395 32.0771 341.463C32.3415 339.716 33.0111 337.88 33.6501 336.129C33.7233 335.928 33.7962 335.728 33.8681 335.53L33.8705 335.523C36.1933 328.794 36.1857 321.627 35.2 314.508L35.1748 314.326L35.0381 314.204C28.1967 308.083 22.7979 300.487 19.4151 291.959C18.4017 289.344 17.1976 286.338 15.523 283.977C13.9083 281.701 11.8018 279.951 8.94211 279.784C8.2522 277.856 7.55079 275.928 6.84992 274.001C6.11018 271.968 5.37103 269.937 4.64557 267.905L4.1782 266.597L3.70463 267.903C3.32232 268.958 2.35659 269.712 1.1772 270.02C5.65389 203.978 32.3307 144.056 73.7756 97.5781C74.6276 97.2018 75.4622 96.7265 76.2825 96.2593C76.3489 96.2215 76.4152 96.1838 76.4814 96.1462L76.4862 96.1434C81.4725 93.2339 85.9437 89.6015 90.3449 85.9285C90.7666 85.5766 91.1877 85.2243 91.6085 84.8722C95.5885 81.5422 99.5457 78.2313 103.845 75.4006L103.847 75.3991C105.809 74.0913 107.906 72.9414 110.143 73.1751L110.143 73.1752L110.153 73.1761C111.186 73.2635 112.214 73.8426 112.883 74.6563C113.55 75.4669 113.812 76.4425 113.467 77.3457L113.467 77.3456L113.462 77.3578C113.188 78.1344 112.514 78.7853 111.734 79.3524L111.719 79.3636L111.704 79.3759C100.534 88.8805 88.2958 97.1903 75.2795 104.07C73.7418 104.839 71.927 105.83 71.1351 107.587C70.3842 109.118 70.6618 110.801 71.4654 112.193C72.2688 113.585 73.6276 114.747 75.1622 115.279C77.7308 116.173 80.5446 115.827 83.1191 115.296C81.1319 118.75 80.6236 123.076 81.8007 126.897L81.899 127.216L82.2315 127.248C83.8777 127.403 84.9127 126.324 85.5957 125.056C86.1606 124.007 86.5544 122.705 86.8943 121.581C86.9625 121.355 87.0286 121.136 87.0934 120.929C87.8767 118.494 89.4424 116.396 91.3772 114.439C92.8903 112.909 94.6024 111.49 96.3177 110.069C96.8031 109.666 97.2888 109.264 97.7702 108.859C101.86 105.416 105.693 101.749 105.587 96.5455C107.765 97.2975 109.901 96.4872 111.754 95.0821C113.825 93.5113 115.65 91.1254 117.005 89.0112L117.007 89.008C118.31 86.9395 120.41 84.8945 122.554 83.8278C123.624 83.2956 124.673 83.0224 125.622 83.0814C126.51 83.1366 127.336 83.483 128.044 84.2339C128.144 85.3574 128.265 86.4984 128.385 87.6368C128.482 88.5524 128.579 89.4663 128.665 90.3678L128.72 90.9476L129.285 90.8055C132.171 90.0793 135.076 89.3394 137.98 88.5998C140.245 88.0231 142.509 87.4464 144.764 86.8763C142.474 89.5855 141.923 93.7553 143.605 96.9088L143.606 96.9106C145.504 100.436 150.008 102.311 153.843 101.254C153.653 102.359 153.084 103.377 152.287 104.327C151.318 105.484 150.043 106.503 148.797 107.415L148.791 107.419C142.432 112.216 135.671 117.082 128.357 119.412L127.809 119.587L128.059 120.106L129.494 123.084C127.349 123.266 125.128 122.626 122.754 121.943C122.675 121.92 122.596 121.897 122.517 121.874C120.062 121.168 117.455 120.448 114.814 120.79C114.45 120.837 114.069 120.879 113.677 120.922C112.459 121.057 111.136 121.202 109.922 121.547C108.291 122.011 106.765 122.855 105.789 124.572C105.744 124.647 105.712 124.732 105.691 124.792C105.664 124.867 105.637 124.958 105.609 125.057C105.552 125.256 105.489 125.512 105.424 125.799C105.295 126.374 105.155 127.096 105.047 127.792C104.941 128.481 104.862 129.171 104.865 129.67C104.866 129.902 104.883 130.168 104.966 130.372C105.008 130.474 105.102 130.653 105.311 130.746C105.543 130.849 105.758 130.779 105.887 130.705C108.469 129.227 111.034 127.75 113.569 126.287C114.205 128.283 114.333 130.467 113.932 132.612L113.81 133.266L114.473 133.201C117.569 132.898 120.79 133.513 123.567 135.07C120.508 141.666 113.169 146.1 105.87 145.737L135.495 495.981ZM185.513 389.787L185.939 390.048M185.513 389.787C185.512 389.788 185.512 389.789 185.511 389.79L185.939 390.048M185.939 390.048C186.052 389.861 186.167 389.673 186.283 389.484C187.497 387.498 188.759 385.434 188.825 383.097L166.173 450.873C174.367 446.24 174.985 435.478 175.547 425.676C175.623 424.34 175.699 423.022 175.793 421.74C176.573 410.577 180.113 399.56 185.939 390.048Z" stroke="#EBFF00"/>
<mask id="path-5-inside-1" fill="white">
<path d="M144.119 79.6297C141.288 81.0273 137.385 79.4482 136.332 76.4714C135.261 73.4947 137.276 69.81 140.362 69.1021C142.304 68.6483 145.008 68.8662 145.607 66.9603C145.789 66.3795 145.68 65.7442 145.68 65.1452C145.607 61.5513 148.82 58.5745 152.287 57.667C155.754 56.7776 159.42 57.4673 162.942 58.157C164.194 60.7526 164.557 63.7657 163.958 66.5791C161.544 66.688 159.13 66.7788 156.716 66.8877C156.934 70.8991 156.534 75.9451 152.813 77.4334C149.474 78.7585 145.117 76.2899 142.34 78.5407"/>
</mask>
<path d="M136.332 76.4714L137.275 76.138L137.273 76.1329L136.332 76.4714ZM140.362 69.1021L140.585 70.0768L140.589 70.0759L140.362 69.1021ZM145.607 66.9603L146.561 67.2601L146.562 67.2586L145.607 66.9603ZM145.68 65.1452H146.68V65.1351L146.68 65.125L145.68 65.1452ZM152.287 57.667L152.039 56.6983L152.034 56.6996L152.287 57.667ZM162.942 58.157L163.842 57.7225L163.625 57.2719L163.134 57.1757L162.942 58.157ZM163.958 66.5791L164.003 67.5781L164.775 67.5433L164.936 66.7874L163.958 66.5791ZM156.716 66.8877L156.671 65.8887L155.663 65.9342L155.717 66.9419L156.716 66.8877ZM152.813 77.4334L153.182 78.363L153.185 78.3619L152.813 77.4334ZM143.676 78.733C142.56 79.2842 141.179 79.2686 139.934 78.7642C138.69 78.2598 137.69 77.3106 137.275 76.138L135.39 76.8048C136.028 78.609 137.505 79.9378 139.183 80.6177C140.861 81.2977 142.847 81.3728 144.562 80.5264L143.676 78.733ZM137.273 76.1329C136.851 74.9583 137.023 73.5911 137.666 72.4157C138.308 71.2404 139.367 70.3563 140.585 70.0768L140.138 68.1274C138.271 68.5558 136.779 69.868 135.911 71.4562C135.043 73.0443 134.743 75.0078 135.391 76.8099L137.273 76.1329ZM140.589 70.0759C141.02 69.9753 141.503 69.9098 142.052 69.8348C142.58 69.7628 143.169 69.6819 143.724 69.5477C144.812 69.2842 146.098 68.7334 146.561 67.2601L144.653 66.6605C144.518 67.0931 144.152 67.3863 143.253 67.6038C142.814 67.7101 142.326 67.7789 141.781 67.8532C141.258 67.9246 140.675 68.0021 140.134 68.1283L140.589 70.0759ZM146.562 67.2586C146.699 66.8192 146.717 66.3918 146.712 66.0447C146.709 65.8711 146.7 65.6981 146.693 65.5516C146.686 65.3978 146.68 65.2679 146.68 65.1452H144.68C144.68 65.3219 144.688 65.4961 144.695 65.648C144.703 65.8072 144.71 65.9417 144.712 66.0744C144.716 66.3399 144.697 66.5206 144.653 66.662L146.562 67.2586ZM146.68 65.125C146.62 62.1619 149.334 59.4738 152.54 58.6344L152.034 56.6996C148.307 57.6753 144.595 60.9407 144.68 65.1654L146.68 65.125ZM152.536 58.6356C155.748 57.8116 159.189 58.441 162.749 59.1384L163.134 57.1757C159.652 56.4936 155.76 55.7436 152.039 56.6983L152.536 58.6356ZM162.041 58.5916C163.197 60.9877 163.533 63.7746 162.98 66.3709L164.936 66.7874C165.581 63.7568 165.191 60.5176 163.842 57.7225L162.041 58.5916ZM163.913 65.5801C162.708 65.6345 161.503 65.6843 160.296 65.7343C159.089 65.7842 157.88 65.8342 156.671 65.8887L156.761 67.8867C157.966 67.8323 159.171 67.7825 160.378 67.7326C161.585 67.6827 162.794 67.6327 164.003 67.5781L163.913 65.5801ZM155.717 66.9419C155.824 68.911 155.772 71.0476 155.278 72.8407C154.785 74.6249 153.902 75.9209 152.442 76.505L153.185 78.3619C155.446 77.4576 156.622 75.4864 157.206 73.3727C157.786 71.2678 157.825 68.8757 157.714 66.8335L155.717 66.9419ZM152.445 76.5039C151.777 76.7689 151.022 76.8582 150.169 76.849C149.301 76.8396 148.424 76.7328 147.457 76.6441C145.639 76.4772 143.452 76.3524 141.711 77.7638L142.97 79.3175C144.006 78.4782 145.385 78.4623 147.274 78.6357C148.161 78.7171 149.173 78.8384 150.148 78.8489C151.138 78.8595 152.18 78.7605 153.182 78.363L152.445 76.5039Z" fill="#EBFF00" mask="url(#path-5-inside-1)"/>
<mask id="path-7-inside-2" fill="white">
<path d="M181.71 39.5704C188.299 36.4121 193.871 31.4387 200.369 28.0989C211.55 22.3632 224.601 21.855 237.161 21.4557C265.749 20.5663 294.337 19.6769 322.925 18.7875C316.3 22.4177 309.675 26.066 303.031 29.6962C297.622 32.673 291.469 35.7224 285.534 34.0343C285.407 38.8081 289.745 43.2369 294.537 43.2006C282.793 50.461 266.493 43.0372 254.096 49.136C248.905 51.6953 244.712 56.5235 238.994 57.431C235.691 57.9574 232.26 57.068 228.975 57.794C223.475 58.992 220.008 64.2013 215.943 68.0857C211.26 72.569 204.38 75.6365 198.264 73.4947C192.147 71.3528 188.952 62.2592 193.853 58.0118C196.267 55.9245 199.716 55.5796 202.565 54.1094C205.415 52.6573 207.666 48.7548 205.524 46.377C204.598 45.3424 203.074 44.9431 202.22 43.8359C201.295 42.6379 201.386 40.9317 200.623 39.6249C197.719 34.5244 189.642 41.3855 184.142 39.3344"/>
</mask>
<path d="M200.369 28.0989L199.913 27.2092L199.912 27.2095L200.369 28.0989ZM237.161 21.4557L237.13 20.4562L237.129 20.4562L237.161 21.4557ZM322.925 18.7875L323.405 19.6645L322.894 17.788L322.925 18.7875ZM303.031 29.6962L302.552 28.8187L302.549 28.8201L303.031 29.6962ZM285.534 34.0343L285.807 33.0725L284.568 32.7201L284.534 34.0077L285.534 34.0343ZM294.537 43.2006L295.062 44.0512L298.099 42.1736L294.529 42.2006L294.537 43.2006ZM254.096 49.136L253.655 48.2387L253.654 48.2391L254.096 49.136ZM238.994 57.431L238.838 56.4434L238.837 56.4435L238.994 57.431ZM228.975 57.794L229.188 58.7711L229.191 58.7705L228.975 57.794ZM215.943 68.0857L215.252 67.3626L215.251 67.3633L215.943 68.0857ZM193.853 58.0118L193.199 57.2554L193.198 57.2562L193.853 58.0118ZM202.565 54.1094L202.111 53.2184L202.107 53.2207L202.565 54.1094ZM205.524 46.377L204.779 47.0438L204.781 47.0463L205.524 46.377ZM202.22 43.8359L203.013 43.2255L203.012 43.2244L202.22 43.8359ZM200.623 39.6249L199.754 40.1197L199.759 40.1287L200.623 39.6249ZM182.142 40.4722C185.513 38.8563 188.611 36.7825 191.635 34.7302C194.678 32.6648 197.642 30.6248 200.826 28.9884L199.912 27.2095C196.598 28.9129 193.527 31.0295 190.512 33.0753C187.478 35.1342 184.495 37.1262 181.278 38.6686L182.142 40.4722ZM200.826 28.9887C211.774 23.3724 224.593 22.8557 237.193 22.4552L237.129 20.4562C224.608 20.8542 211.326 21.3541 199.913 27.2092L200.826 28.9887ZM237.192 22.4552C251.486 22.0105 265.78 21.5658 280.074 21.1211C294.368 20.6764 308.662 20.2317 322.956 19.787L322.894 17.788C308.6 18.2327 294.306 18.6774 280.012 19.1221C265.718 19.5668 251.424 20.0115 237.13 20.4562L237.192 22.4552ZM322.444 17.9105C315.816 21.5424 309.195 25.1886 302.552 28.8187L303.511 30.5738C310.154 26.9435 316.783 23.293 323.405 19.6645L322.444 17.9105ZM302.549 28.8201C299.847 30.3071 297.033 31.7693 294.182 32.6601C291.338 33.5482 288.526 33.8456 285.807 33.0725L285.26 34.9962C288.477 35.9111 291.709 35.5278 294.778 34.5691C297.839 33.613 300.806 32.0621 303.513 30.5723L302.549 28.8201ZM284.534 34.0077C284.392 39.3471 289.187 44.2412 294.544 44.2006L294.529 42.2006C290.303 42.2327 286.421 38.269 286.533 34.0609L284.534 34.0077ZM294.011 42.35C288.431 45.7998 281.725 45.7915 274.588 45.6043C267.571 45.4202 260.119 45.0584 253.655 48.2387L254.538 50.0333C260.47 47.1149 267.367 47.4155 274.535 47.6036C281.583 47.7885 288.899 47.8618 295.062 44.0512L294.011 42.35ZM253.654 48.2391C250.975 49.5598 248.513 51.4897 246.18 53.076C243.792 54.7003 241.467 56.026 238.838 56.4434L239.151 58.4186C242.239 57.9285 244.87 56.3863 247.305 54.7298C249.796 53.0353 252.026 51.2715 254.538 50.0329L253.654 48.2391ZM238.837 56.4435C237.304 56.6878 235.731 56.6055 234.017 56.5384C232.344 56.4729 230.544 56.4232 228.759 56.8176L229.191 58.7705C230.692 58.4388 232.25 58.4708 233.939 58.5369C235.587 58.6014 237.381 58.7006 239.152 58.4186L238.837 56.4435ZM228.762 56.8169C225.754 57.4722 223.353 59.2154 221.236 61.2037C220.178 62.1984 219.17 63.2747 218.19 64.3252C217.202 65.384 216.243 66.4153 215.252 67.3626L216.633 68.8087C217.675 67.8139 218.674 66.7374 219.652 65.6895C220.637 64.6334 221.602 63.6042 222.606 62.6613C224.614 60.7743 226.696 59.3138 229.188 58.7711L228.762 56.8169ZM215.251 67.3633C210.693 71.7272 204.198 74.5129 198.594 72.5509L197.933 74.4385C204.563 76.7601 211.826 73.4107 216.634 68.808L215.251 67.3633ZM198.594 72.5509C195.89 71.6042 193.758 69.0773 192.882 66.2472C192.007 63.4208 192.45 60.5508 194.508 58.7675L193.198 57.2562C190.355 59.7202 189.945 63.5208 190.971 66.8384C191.997 70.1525 194.52 73.2434 197.933 74.4385L198.594 72.5509ZM194.507 58.7683C195.562 57.8556 196.875 57.2974 198.375 56.7733C199.823 56.2676 201.516 55.7759 203.024 54.9981L202.107 53.2207C200.765 53.913 199.308 54.329 197.716 54.8851C196.177 55.4228 194.557 56.0807 193.199 57.2554L194.507 58.7683ZM203.019 55.0004C204.647 54.1711 206.084 52.6627 206.829 50.999C207.577 49.328 207.695 47.2927 206.267 45.7078L204.781 47.0463C205.495 47.8391 205.558 48.944 205.004 50.1817C204.446 51.4266 203.334 52.5955 202.111 53.2184L203.019 55.0004ZM206.269 45.7102C205.687 45.0595 204.929 44.6228 204.365 44.2796C203.747 43.9031 203.31 43.612 203.013 43.2256L201.428 44.4462C201.984 45.167 202.736 45.6292 203.325 45.9878C203.968 46.3797 204.435 46.66 204.779 47.0438L206.269 45.7102ZM203.012 43.2244C202.69 42.8081 202.52 42.2721 202.33 41.5245C202.156 40.8412 201.955 39.9241 201.487 39.121L199.759 40.1287C200.053 40.6325 200.189 41.2219 200.392 42.0179C200.578 42.7496 200.825 43.6657 201.429 44.4473L203.012 43.2244ZM201.492 39.13C200.581 37.5304 199.214 36.8497 197.681 36.7197C196.235 36.5972 194.626 36.9611 193.098 37.3701C191.505 37.7961 189.975 38.2778 188.457 38.5428C186.953 38.8053 185.624 38.8197 184.492 38.3975L183.793 40.2714C185.41 40.8747 187.153 40.8006 188.801 40.513C190.435 40.2277 192.137 39.6975 193.614 39.3022C195.156 38.8898 196.454 38.623 197.512 38.7126C198.482 38.7948 199.213 39.1691 199.754 40.1197L201.492 39.13Z" fill="#EBFF00" mask="url(#path-7-inside-2)"/>
<mask id="path-9-inside-3" fill="white">
<path d="M268.526 63.6931C272.392 62.8037 275.75 60.5167 279.362 58.8468C282.974 57.1769 287.276 56.1968 290.816 57.9574C291.868 60.5893 288.837 62.9852 286.169 63.9291C281.05 65.726 275.496 66.2161 270.142 65.3267"/>
</mask>
<path d="M290.816 57.9574L291.744 57.586L291.602 57.2319L291.261 57.0621L290.816 57.9574ZM286.169 63.9291L286.5 64.8726L286.502 64.8718L286.169 63.9291ZM268.75 64.6677C270.8 64.1962 272.69 63.3602 274.489 62.4562C276.334 61.5285 277.985 60.5854 279.782 59.7545L278.943 57.9391C277.128 58.7781 275.293 59.8134 273.59 60.6691C271.841 61.5485 270.119 62.3006 268.302 62.7186L268.75 64.6677ZM279.782 59.7545C283.32 58.1186 287.253 57.3021 290.37 58.8528L291.261 57.0621C287.299 55.0914 282.628 56.2352 278.943 57.9391L279.782 59.7545ZM289.887 58.3288C290.215 59.1498 289.969 60.0085 289.151 60.9002C288.327 61.7976 287.056 62.5547 285.835 62.9863L286.502 64.8718C287.95 64.3596 289.528 63.4468 290.624 62.2524C291.726 61.0521 292.468 59.3969 291.744 57.586L289.887 58.3288ZM285.838 62.9855C280.877 64.7271 275.493 65.2019 270.305 64.3402L269.978 66.3132C275.499 67.2303 281.224 66.725 286.5 64.8726L285.838 62.9855Z" fill="#EBFF00" mask="url(#path-9-inside-3)"/>
<mask id="path-11-inside-4" fill="white">
<path d="M502.257 92.5351C501.204 92.6621 500.097 92.6077 498.972 92.3354C494.053 91.2826 490.314 87.4891 486.103 84.7301C476.392 78.3047 463.142 77.4697 452.65 82.7154C455.137 79.1033 456.389 74.6382 456.117 70.2456L454.611 70.772C437.422 60.8071 417.274 50.461 398.524 57.1587C394.186 58.7379 390.265 61.0975 385.873 62.604C381.208 64.2376 376.035 64.9092 372.042 67.7952C367.976 70.6812 365.816 77.0522 369.301 80.5191C372.259 83.4777 376.979 82.6791 381.117 83.0784C385.183 83.4777 389.848 87.5254 387.615 91.0104C369.646 99.4143 351.622 107.891 333.652 116.367C341.911 119.054 347.374 128.42 345.596 136.951C339.551 138.003 333.725 134.337 327.626 133.938C318.768 133.484 310.31 141.289 310.128 150.146C309.874 159.004 318.006 167.19 326.864 167.063C333.489 166.991 339.987 162.997 346.412 164.685C346.666 158.641 350.805 153.522 355.052 149.203C363.311 140.926 375.109 133.447 386.145 137.513C389.757 138.82 392.843 141.252 395.856 143.666C402.481 148.912 409.106 154.212 415.749 159.53C417.855 157.37 419.942 155.192 422.048 153.105C425.66 156.917 429.272 160.71 432.938 164.576C434.771 163.324 436.677 162.144 438.511 160.892C439.817 164.304 441.197 167.644 442.522 171.056C443.048 167.317 443.502 163.651 443.956 159.966C448.294 160.093 452.886 160.22 456.807 158.26C460.746 156.354 463.632 151.635 461.98 147.569C461.127 145.409 459.094 143.703 458.695 141.398C457.841 136.805 464.394 133.665 468.659 135.753C472.852 137.786 474.958 142.577 476.737 146.97C477.717 142.505 478.624 138.112 479.623 133.647C483.725 144.429 489.642 154.521 496.993 163.378C483.543 160.819 469.367 162.289 456.789 167.462C460.8 173.107 467.679 176.447 474.577 176.175C477.662 176.102 481.075 175.394 483.434 177.355C485.213 178.861 485.667 181.294 485.994 183.526C487.046 189.825 488.099 196.05 489.079 202.276C481.982 196.45 471.763 197.103 462.506 196.922C453.249 196.667 442.431 194.108 439.019 185.523C435.352 189.661 433.719 195.56 434.771 201.078C425.188 198.791 414.17 195.125 411.411 185.668C403.933 188.427 394.621 183.653 392.589 175.975C391.862 173.289 391.663 170.004 389.303 168.57C387.869 167.717 386.018 167.844 384.312 168.043C370.081 169.695 355.905 171.274 341.747 172.926C334.015 173.852 326.011 174.777 319.186 178.571C312.361 182.31 306.934 189.661 307.714 197.412C294.664 205.162 283.592 216.379 276.113 229.575C273.754 233.641 271.721 238.306 272.647 242.898C273.3 246.438 275.66 249.451 276.386 252.936C277.638 258.907 274.226 264.679 272.792 270.578C268.726 287.368 281.468 303.178 293.284 315.883C298.857 321.782 305.3 328.208 313.432 328.535C318.478 328.734 323.27 326.502 327.989 324.65C341.493 319.332 356.196 316.9 370.68 317.481C367.395 320.04 370.807 325.612 374.891 326.465C378.957 327.318 383.35 325.993 387.288 327.373C396.273 330.586 395.039 343.763 390.973 352.367C393.006 351.968 395.111 351.568 397.199 351.187C396.092 354.073 394.966 356.959 393.859 359.772C406.184 361.333 410.848 377.542 407.981 389.667C405.167 401.81 397.961 412.955 397.762 425.425C397.707 432.25 399.794 438.875 401.9 445.355C407.164 461.818 412.409 478.281 417.673 494.798C432.376 496.559 440.816 477.863 454.465 472.018C459.584 469.786 465.61 469.332 469.621 465.52C473.488 461.854 472.235 453.25 467.262 453.25C474.014 452.524 479.786 446.353 479.986 439.528C480.058 437.622 479.786 435.716 480.04 433.829C480.494 431.142 482.2 428.783 483.834 426.478C494.252 411.521 501.005 394.387 507.757 377.47C509.517 372.932 511.296 368.485 513.057 363.947C519.736 347.085 526.362 330.295 533.041 313.433C535.655 306.808 538.287 300.255 540.901 293.612C537.288 299.584 527.85 298.803 522.459 294.338C517.014 289.891 514.182 283.121 509.917 277.548C506.305 272.757 501.44 268.509 499.734 262.665C498.754 259.325 498.935 255.713 498.355 252.228C497.03 244.677 492.056 238.397 488.644 231.572C485.231 224.747 483.453 215.908 488.244 209.918C502.039 233.986 514.582 258.762 525.926 284.155C527.178 280.217 530.064 276.804 533.731 274.898C536.417 273.446 539.43 272.865 542.262 271.686C549.74 268.4 554.913 260.468 554.913 252.337C554.841 244.205 549.667 236.273 542.117 233.06C538.378 231.481 534.112 230.973 530.573 228.795C527.033 226.707 524.474 221.916 526.706 218.431C528.794 215.145 533.858 215.218 537.325 217.051C540.81 218.957 543.369 222.17 546.636 224.33C548.996 225.909 551.755 226.943 554.314 228.395C568.163 236.327 571.576 254.37 574.48 270.106C576.059 278.565 577.838 286.969 579.943 295.227C580.016 293.449 579.998 291.615 579.998 289.855C579.925 213.584 550.43 144.265 502.257 92.5351ZM528.812 187.828C526.906 187.701 525.145 186.448 523.621 185.269C521.134 183.308 518.629 181.003 517.903 177.917C517.05 174.251 518.811 170.04 516.85 166.773C515.925 165.194 514.291 164.213 512.912 163.106C509.3 160.22 506.668 156.082 505.688 151.635C504.834 147.696 506.069 142.45 510.08 141.797C511.986 141.47 514.073 142.523 514.926 144.284L512.24 145.736C516.76 146.262 518.865 153.087 515.398 156.027C514.945 156.481 514.346 156.88 514.346 157.534C514.346 157.933 514.6 158.314 514.945 158.587C517.758 161.672 521.969 162.779 525.636 164.74C529.302 166.646 532.914 170.185 532.333 174.251C531.153 174.705 530.046 175.104 528.866 175.558C527.614 176.81 528.612 179.043 529.919 180.277C531.226 181.511 532.932 182.764 533.005 184.597C533.005 186.575 530.772 187.955 528.812 187.828Z"/>
</mask>
<path d="M502.257 92.5351C501.204 92.6621 500.097 92.6077 498.972 92.3354C494.053 91.2826 490.314 87.4891 486.103 84.7301C476.392 78.3047 463.142 77.4697 452.65 82.7154C455.137 79.1033 456.389 74.6382 456.117 70.2456L454.611 70.772C437.422 60.8071 417.274 50.461 398.524 57.1587C394.186 58.7379 390.265 61.0975 385.873 62.604C381.208 64.2376 376.035 64.9092 372.042 67.7952C367.976 70.6812 365.816 77.0522 369.301 80.5191C372.259 83.4777 376.979 82.6791 381.117 83.0784C385.183 83.4777 389.848 87.5254 387.615 91.0104C369.646 99.4143 351.622 107.891 333.652 116.367C341.911 119.054 347.374 128.42 345.596 136.951C339.551 138.003 333.725 134.337 327.626 133.938C318.768 133.484 310.31 141.289 310.128 150.146C309.874 159.004 318.006 167.19 326.864 167.063C333.489 166.991 339.987 162.997 346.412 164.685C346.666 158.641 350.805 153.522 355.052 149.203C363.311 140.926 375.109 133.447 386.145 137.513C389.757 138.82 392.843 141.252 395.856 143.666C402.481 148.912 409.106 154.212 415.749 159.53C417.855 157.37 419.942 155.192 422.048 153.105C425.66 156.917 429.272 160.71 432.938 164.576C434.771 163.324 436.677 162.144 438.511 160.892C439.817 164.304 441.197 167.644 442.522 171.056C443.048 167.317 443.502 163.651 443.956 159.966C448.294 160.093 452.886 160.22 456.807 158.26C460.746 156.354 463.632 151.635 461.98 147.569C461.127 145.409 459.094 143.703 458.695 141.398C457.841 136.805 464.394 133.665 468.659 135.753C472.852 137.786 474.958 142.577 476.737 146.97C477.717 142.505 478.624 138.112 479.623 133.647C483.725 144.429 489.642 154.521 496.993 163.378C483.543 160.819 469.367 162.289 456.789 167.462C460.8 173.107 467.679 176.447 474.577 176.175C477.662 176.102 481.075 175.394 483.434 177.355C485.213 178.861 485.667 181.294 485.994 183.526C487.046 189.825 488.099 196.05 489.079 202.276C481.982 196.45 471.763 197.103 462.506 196.922C453.249 196.667 442.431 194.108 439.019 185.523C435.352 189.661 433.719 195.56 434.771 201.078C425.188 198.791 414.17 195.125 411.411 185.668C403.933 188.427 394.621 183.653 392.589 175.975C391.862 173.289 391.663 170.004 389.303 168.57C387.869 167.717 386.018 167.844 384.312 168.043C370.081 169.695 355.905 171.274 341.747 172.926C334.015 173.852 326.011 174.777 319.186 178.571C312.361 182.31 306.934 189.661 307.714 197.412C294.664 205.162 283.592 216.379 276.113 229.575C273.754 233.641 271.721 238.306 272.647 242.898C273.3 246.438 275.66 249.451 276.386 252.936C277.638 258.907 274.226 264.679 272.792 270.578C268.726 287.368 281.468 303.178 293.284 315.883C298.857 321.782 305.3 328.208 313.432 328.535C318.478 328.734 323.27 326.502 327.989 324.65C341.493 319.332 356.196 316.9 370.68 317.481C367.395 320.04 370.807 325.612 374.891 326.465C378.957 327.318 383.35 325.993 387.288 327.373C396.273 330.586 395.039 343.763 390.973 352.367C393.006 351.968 395.111 351.568 397.199 351.187C396.092 354.073 394.966 356.959 393.859 359.772C406.184 361.333 410.848 377.542 407.981 389.667C405.167 401.81 397.961 412.955 397.762 425.425C397.707 432.25 399.794 438.875 401.9 445.355C407.164 461.818 412.409 478.281 417.673 494.798C432.376 496.559 440.816 477.863 454.465 472.018C459.584 469.786 465.61 469.332 469.621 465.52C473.488 461.854 472.235 453.25 467.262 453.25C474.014 452.524 479.786 446.353 479.986 439.528C480.058 437.622 479.786 435.716 480.04 433.829C480.494 431.142 482.2 428.783 483.834 426.478C494.252 411.521 501.005 394.387 507.757 377.47C509.517 372.932 511.296 368.485 513.057 363.947C519.736 347.085 526.362 330.295 533.041 313.433C535.655 306.808 538.287 300.255 540.901 293.612C537.288 299.584 527.85 298.803 522.459 294.338C517.014 289.891 514.182 283.121 509.917 277.548C506.305 272.757 501.44 268.509 499.734 262.665C498.754 259.325 498.935 255.713 498.355 252.228C497.03 244.677 492.056 238.397 488.644 231.572C485.231 224.747 483.453 215.908 488.244 209.918C502.039 233.986 514.582 258.762 525.926 284.155C527.178 280.217 530.064 276.804 533.731 274.898C536.417 273.446 539.43 272.865 542.262 271.686C549.74 268.4 554.913 260.468 554.913 252.337C554.841 244.205 549.667 236.273 542.117 233.06C538.378 231.481 534.112 230.973 530.573 228.795C527.033 226.707 524.474 221.916 526.706 218.431C528.794 215.145 533.858 215.218 537.325 217.051C540.81 218.957 543.369 222.17 546.636 224.33C548.996 225.909 551.755 226.943 554.314 228.395C568.163 236.327 571.576 254.37 574.48 270.106C576.059 278.565 577.838 286.969 579.943 295.227C580.016 293.449 579.998 291.615 579.998 289.855C579.925 213.584 550.43 144.265 502.257 92.5351ZM528.812 187.828C526.906 187.701 525.145 186.448 523.621 185.269C521.134 183.308 518.629 181.003 517.903 177.917C517.05 174.251 518.811 170.04 516.85 166.773C515.925 165.194 514.291 164.213 512.912 163.106C509.3 160.22 506.668 156.082 505.688 151.635C504.834 147.696 506.069 142.45 510.08 141.797C511.986 141.47 514.073 142.523 514.926 144.284L512.24 145.736C516.76 146.262 518.865 153.087 515.398 156.027C514.945 156.481 514.346 156.88 514.346 157.534C514.346 157.933 514.6 158.314 514.945 158.587C517.758 161.672 521.969 162.779 525.636 164.74C529.302 166.646 532.914 170.185 532.333 174.251C531.153 174.705 530.046 175.104 528.866 175.558C527.614 176.81 528.612 179.043 529.919 180.277C531.226 181.511 532.932 182.764 533.005 184.597C533.005 186.575 530.772 187.955 528.812 187.828Z" stroke="#EBFF00" stroke-width="2" mask="url(#path-11-inside-4)"/>
<path d="M512.737 420.455L512.738 420.457C512.973 422.87 511.955 424.947 510.556 426.799C509.63 428.026 508.491 429.207 507.4 430.338C506.864 430.893 506.34 431.437 505.858 431.968C504.416 433.558 503.311 435.856 503.05 437.972C502.79 440.085 503.371 441.881 505.112 442.747L505.116 442.749C505.94 443.169 506.908 443.257 507.964 443.35C512.336 443.733 516.928 443.829 520.317 441.408L520.317 441.408C522.736 439.682 523.994 437.21 524.66 434.293C525.33 431.362 525.391 428.032 525.446 424.629L525.448 424.534C525.503 421.187 525.559 417.772 526.233 414.725C526.916 411.635 528.245 408.873 530.892 406.909L530.894 406.907C531.267 406.633 531.661 406.38 532.042 406.136L532.085 406.109C532.455 405.872 532.812 405.644 533.149 405.402C533.848 404.899 534.415 404.368 534.752 403.678L534.755 403.672L534.755 403.672C535.266 402.662 535.194 401.644 534.77 400.556C534.337 399.447 533.561 398.32 532.725 397.126C532.694 397.083 532.664 397.039 532.633 396.995C531.84 395.864 531.006 394.675 530.482 393.465C530.109 392.604 529.882 391.705 529.94 390.782L526.535 393.196C528.034 399.17 524.626 406.016 518.889 408.336L512.737 420.455ZM512.737 420.455C512.627 419.361 512.241 418.264 511.883 417.245C511.778 416.946 511.676 416.654 511.583 416.371C511.159 415.073 510.917 413.91 511.281 412.784M512.737 420.455L511.281 412.784M511.281 412.784C511.715 411.469 512.791 410.659 514.223 410.02C514.937 409.701 515.716 409.435 516.517 409.17C516.605 409.141 516.693 409.112 516.781 409.083C517.491 408.848 518.214 408.61 518.889 408.336L511.281 412.784Z" stroke="#EBFF00"/>
</svg>
